<!-- Generator: Adobe Illustrator 19.2.1, SVG Export Plug-In  -->
<svg version="1.1"
   xmlns="http://www.w3.org/2000/svg" xmlns:xlink="http://www.w3.org/1999/xlink" xmlns:a="http://ns.adobe.com/AdobeSVGViewerExtensions/3.0/"
   x="0px" y="0px" width="144.2px" height="43.9px" viewBox="0 0 144.2 43.9" style="enable-background:new 0 0 144.2 43.9;"
   xml:space="preserve">
<style type="text/css">
  .st0{fill:#8EAB59;}
  .st1{fill:#5A6C42;}
  .st2{fill:#EBEBEB;}
</style>
<defs>
</defs>
<g>
  <g>
    <polygon class="st0" points="122.3,22 100.3,0 100.3,22 100.3,43.9     "/>
    <g>
      <polygon class="st1" points="113.3,0 135.2,22 113.3,43.9 144.2,43.9 144.2,0       "/>
    </g>
  </g>
  <g>
    <path class="st2" d="M7.7,15.5c0-2.2-0.8-2.8-2-2.8c-1.2,0-2,0.7-2,2.4v1.6H0v-1.3c0-4,2-6.2,5.8-6.2s5.8,2.3,5.8,6.2V16
      c0,2.7-0.9,4.3-2.7,5.1c1.9,0.9,2.7,2.7,2.7,5.2v1.9c0,4-2,6.2-5.8,6.2S0,32.2,0,28.3v-2.1h3.7v2.3c0,1.8,0.8,2.4,2,2.4
      c1.2,0,2-0.6,2-2.8v-1.9c0-2.3-0.8-3.2-2.6-3.2H3.9v-3.5h1.5c1.5,0,2.3-0.6,2.3-2.6V15.5z"/>
    <path class="st2" d="M26.8,9.4v3.5l-7.4,17.8h7.4v3.5H15.4v-3.5L22.8,13h-7.1V9.4H26.8z"/>
    <path class="st2" d="M34.8,19.9h5.4v3.5h-5.4v7.3h6.7v3.5H30.9V9.4h10.6V13h-6.7V19.9z"/>
    <path class="st2" d="M53.9,34.2c-0.2-0.6-0.4-1-0.4-3v-3.9c0-2.3-0.8-3.2-2.6-3.2h-1.3v10.1h-3.9V9.4h5.9c4,0,5.8,1.9,5.8,5.7v1.9
      c0,2.6-0.8,4.2-2.6,5c1.9,0.8,2.6,2.7,2.6,5.3v3.8c0,1.2,0,2.1,0.4,3H53.9z M49.6,13v7.6h1.5c1.5,0,2.3-0.6,2.3-2.6v-2.4
      c0-1.8-0.6-2.6-2-2.6H49.6z"/>
    <path class="st2" d="M61.4,15.4c0-4,2.1-6.2,5.9-6.2s5.9,2.3,5.9,6.2v12.9c0,4-2.1,6.2-5.9,6.2s-5.9-2.3-5.9-6.2V15.4z M65.3,28.5
      c0,1.8,0.8,2.4,2,2.4c1.2,0,2-0.7,2-2.4V15.1c0-1.8-0.8-2.4-2-2.4c-1.2,0-2,0.7-2,2.4V28.5z"/>
    <path class="st2" d="M80,12.5c3,0,3.7-1.5,4.3-3.1h2.6v24.8H83V15.3h-3V12.5z"/>
  </g>
</g>
</svg>
