<!-- Generator: Adobe Illustrator 19.2.1, SVG Export Plug-In  -->
<svg version="1.1"
	 xmlns="http://www.w3.org/2000/svg" xmlns:xlink="http://www.w3.org/1999/xlink" xmlns:a="http://ns.adobe.com/AdobeSVGViewerExtensions/3.0/"
	 x="0px" y="0px" width="53.8px" height="45.4px" viewBox="0 0 53.8 45.4" style="enable-background:new 0 0 53.8 45.4;"
	 xml:space="preserve">
<style type="text/css">
	.st0{fill:#54C2BB;}
	.st1{fill:#D0D2D3;}
</style>
<defs>
</defs>
<g>
	<g>
		<path class="st0" d="M37.2,22.7L37.2,22.7L37.2,22.7c-0.1-0.1-0.1-0.2-0.2-0.4L26.9,5L16.8,22.4c0,0,0,0,0,0l-0.2,0.3h0
			c-1,1.7-1.5,3.7-1.5,5.8c0,6.5,5.3,11.9,11.9,11.9c6.5,0,11.9-5.3,11.9-11.9C38.8,26.4,38.2,24.4,37.2,22.7z"/>
	</g>
	<g>
		<g>
			<polygon class="st1" points="53.8,45.4 40.5,45.4 40.5,40.4 48.8,40.4 48.8,5 40.5,5 40.5,0 53.8,0 			"/>
		</g>
		<g>
			<polygon class="st1" points="13.4,45.4 0,45.4 0,0 13.4,0 13.4,5 5,5 5,40.4 13.4,40.4 			"/>
		</g>
	</g>
</g>
</svg>
