<!-- Generator: Adobe Illustrator 19.2.1, SVG Export Plug-In  -->
<svg version="1.1"
	 xmlns="http://www.w3.org/2000/svg" xmlns:xlink="http://www.w3.org/1999/xlink" xmlns:a="http://ns.adobe.com/AdobeSVGViewerExtensions/3.0/"
	 x="0px" y="0px" width="203.4px" height="45.4px" viewBox="0 0 203.4 45.4" style="enable-background:new 0 0 203.4 45.4;"
	 xml:space="preserve">
<style type="text/css">
	.st0{fill:#D0D2D3;}
	.st1{fill:#54C2BB;}
</style>
<defs>
</defs>
<g>
	<g>
		<path class="st0" d="M37.2,22.7L37.2,22.7L37.2,22.7c-0.1-0.1-0.1-0.2-0.2-0.4L26.9,5L16.8,22.4l0,0l-0.2,0.3l0,0
			c-1,1.7-1.5,3.7-1.5,5.8c0,6.5,5.3,11.9,11.9,11.9c6.5,0,11.9-5.3,11.9-11.9C38.8,26.4,38.2,24.4,37.2,22.7z"/>
	</g>
	<g>
		<g>
			<polygon class="st1" points="53.8,45.4 40.5,45.4 40.5,40.4 48.8,40.4 48.8,5 40.5,5 40.5,0 53.8,0 			"/>
		</g>
		<g>
			<polygon class="st1" points="13.4,45.4 0,45.4 0,0 13.4,0 13.4,5 5,5 5,40.4 13.4,40.4 			"/>
		</g>
	</g>
</g>
<g>
	<g>
		<g>
			<path class="st0" d="M63.4,13.1v1.3h4.2v2.7h-4.2v13.4H60V17.2h-2v-2.7h2v-1.3c0-1.7,0.5-3,1.5-4s2.2-1.5,3.7-1.5
				s2.8,0.5,3.9,1.6l-1.3,2.4c-0.7-0.7-1.4-1.1-2.1-1.1c-0.7,0-1.3,0.3-1.7,0.7C63.6,11.7,63.4,12.4,63.4,13.1z"/>
			<path class="st0" d="M78.7,17.7c-1.7,0-2.9,0.5-3.8,1.6c-0.8,1.1-1.3,2.6-1.3,4.4v6.9h-3.4V14.5h3.4v3.2c0.5-1,1.3-1.8,2.2-2.5
				c0.9-0.6,1.9-1,3-1v3.4C78.8,17.7,78.8,17.7,78.7,17.7z"/>
			<path class="st0" d="M96.4,24H83.8c0.1,1.2,0.6,2.1,1.6,2.8c1,0.7,2.1,1.1,3.4,1.1c2,0,3.6-0.6,4.6-1.9l1.9,2.1
				c-1.7,1.8-4,2.7-6.8,2.7c-2.3,0-4.2-0.8-5.8-2.3s-2.4-3.5-2.4-6.1s0.8-4.5,2.4-6s3.5-2.2,5.7-2.2c2.2,0,4,0.7,5.6,2
				c1.5,1.3,2.3,3.1,2.3,5.5L96.4,24L96.4,24z M83.8,21.3H93c0-1.4-0.4-2.4-1.3-3.1c-0.8-0.7-1.9-1.1-3.1-1.1
				c-1.2,0-2.4,0.4-3.3,1.1C84.3,19,83.8,20.1,83.8,21.3z"/>
			<path class="st0" d="M110.8,25.8c0,1.5-0.6,2.8-1.7,3.7c-1.1,0.9-2.5,1.4-4.3,1.4c-1.2,0-2.4-0.2-3.6-0.6c-1.3-0.4-2.4-1-3.3-1.8
				l1.6-2.6c1.9,1.4,3.7,2.1,5.4,2.1c0.8,0,1.4-0.2,1.8-0.5c0.4-0.4,0.7-0.8,0.7-1.3c0-0.8-1.1-1.5-3.2-2.2
				c-0.1-0.2-0.2-0.3-0.3-0.3c-3.3-0.9-5-2.4-5-4.5c0-1.5,0.6-2.7,1.7-3.6c1.2-0.9,2.7-1.3,4.5-1.3c1.9,0,3.6,0.5,5.3,1.6l-1.3,2.5
				c-1.3-0.9-2.7-1.3-4.3-1.3c-0.8,0-1.5,0.1-2,0.4s-0.8,0.7-0.8,1.3c0,0.5,0.3,0.9,0.8,1.2c0.4,0.2,0.9,0.4,1.5,0.5
				c0.7,0.2,1.2,0.3,1.7,0.5c0.5,0.2,1,0.3,1.5,0.5c0.5,0.2,1,0.5,1.5,0.8C110.3,23.1,110.8,24.2,110.8,25.8z"/>
			<path class="st0" d="M117.3,21.9v8.7h-3.4V8.2h3.4v9.3c0.5-1,1.2-1.8,2.2-2.3c1-0.6,2-0.8,3.2-0.8c1.8,0,3.3,0.6,4.4,1.7
				c1.1,1.1,1.7,2.7,1.7,4.8v9.9h-3.4v-9.1c0-3-1.2-4.4-3.7-4.4c-1.2,0-2.2,0.4-3.1,1.2C117.8,19.2,117.3,20.4,117.3,21.9z"/>
		</g>
	</g>
	<g>
		<g>
			<path class="st1" d="M140.8,30.6c-2.2,0-4.2-0.8-5.8-2.3s-2.4-3.5-2.4-6s0.8-4.5,2.5-6s3.7-2.3,6.2-2.3s4.5,0.8,6.1,2.5l-2,2.5
				c-1.4-1.2-2.8-1.8-4.2-1.8s-2.6,0.5-3.7,1.4c-1,0.9-1.6,2.1-1.6,3.6s0.5,2.7,1.5,3.8c1,1,2.3,1.5,3.8,1.5s2.9-0.7,4.3-2.1l2,2.2
				C145.6,29.6,143.2,30.6,140.8,30.6z"/>
			<g>
				<g>
					<path class="st1" d="M163.4,28.2c-1.6,1.6-3.6,2.4-6.1,2.4c-2.4,0-4.4-0.8-6.1-2.4c-1.6-1.6-2.4-3.6-2.4-5.9s0.8-4.3,2.4-5.9
						c1.6-1.6,3.6-2.4,6.1-2.4c2.4,0,4.4,0.8,6.1,2.4c1.6,1.6,2.4,3.6,2.4,5.9S164.9,26.6,163.4,28.2z M153.6,26.1
						c1,1,2.2,1.5,3.6,1.5c1.5,0,2.7-0.5,3.6-1.5c1-1,1.4-2.2,1.4-3.8c0-1.6-0.5-2.8-1.4-3.8c-1-1-2.2-1.5-3.6-1.5
						c-1.5,0-2.7,0.5-3.6,1.5c-1,1-1.4,2.2-1.4,3.8C152.2,23.9,152.8,25.1,153.6,26.1z"/>
				</g>
			</g>
			<g>
				<g>
					<path class="st1" d="M170.1,28.3c-1.5-1.5-2.3-3.6-2.3-6.1s0.8-4.5,2.3-6c1.6-1.5,3.4-2.2,5.6-2.2c2.1,0,3.9,0.9,5.2,2.7V7.9
						h3.4v22.5h-3.4V28c-1.3,1.8-3.1,2.7-5.5,2.7C173.4,30.6,171.6,29.8,170.1,28.3z M171.2,22.4c0,1.5,0.5,2.8,1.5,3.8
						s2.1,1.5,3.5,1.5c1.4,0,2.5-0.5,3.4-1.5c0.9-1,1.4-2.2,1.4-3.8c0-1.5-0.5-2.8-1.4-3.8c-0.9-1-2.1-1.5-3.4-1.5
						c-1.4,0-2.5,0.5-3.5,1.5S171.2,20.8,171.2,22.4z"/>
				</g>
			</g>
			<path class="st1" d="M203.4,23.8h-12.6c0.1,1.2,0.6,2.1,1.6,2.8c1,0.7,2.1,1.1,3.4,1.1c2,0,3.6-0.6,4.6-1.9l1.9,2.1
				c-1.7,1.8-4,2.7-6.8,2.7c-2.3,0-4.2-0.8-5.8-2.3s-2.4-3.5-2.4-6.1s0.8-4.5,2.4-6c1.6-1.5,3.5-2.2,5.7-2.2s4,0.7,5.6,2
				c1.5,1.3,2.3,3.1,2.3,5.5v2.3H203.4z M190.9,21.1h9.2c0-1.4-0.4-2.4-1.3-3.1c-0.8-0.7-1.9-1.1-3.1-1.1c-1.2,0-2.4,0.4-3.3,1.1
				C191.4,18.8,190.9,19.8,190.9,21.1z"/>
		</g>
	</g>
</g>
</svg>
