<!-- Generator: Adobe Illustrator 19.2.1, SVG Export Plug-In  -->
<svg version="1.1"
   xmlns="http://www.w3.org/2000/svg" xmlns:xlink="http://www.w3.org/1999/xlink" xmlns:a="http://ns.adobe.com/AdobeSVGViewerExtensions/3.0/"
   x="0px" y="0px" width="165.3px" height="62.9px" viewBox="0 0 165.3 62.9" style="enable-background:new 0 0 165.3 62.9;"
   xml:space="preserve">
<style type="text/css">
  .st0{fill:#231F20;}
</style>
<defs>
</defs>
<g>
  <g>
    <path class="st0" d="M41,28.2C41,28.2,40.9,28.2,41,28.2C40.9,28.2,40.9,28.2,41,28.2C40.9,28.2,40.9,28.2,41,28.2z"/>
    <path class="st0" d="M11.3,17.9C11.3,17.9,11.3,17.9,11.3,17.9C11.3,17.9,11.3,17.9,11.3,17.9C11.3,17.9,11.3,17.9,11.3,17.9z"/>
    <path class="st0" d="M1.1,5.9c0-0.5,0-1.1,0-1.6c0-0.3,0-0.6,0-1c0-0.2-0.2-0.5-0.4-0.5C0.4,2.8,0.2,2.7,0,2.7v5.7l1.1,0.1
      C1.1,7.6,1.1,6.8,1.1,5.9z"/>
    <path class="st0" d="M0,2.1c0.2,0,0.3,0.1,0.5,0.1c0.1,0,0.1,0,0.2,0C0.8,2.3,1,2.1,1,2c0-0.2,0-0.4,0-0.5C1,1,1,0.5,1,0H0V2.1z"
      />
    <path class="st0" d="M14.4,12.6c0.1,0,0.1-0.1,0.1-0.2c0-0.1,0-0.2-0.1-0.2c-0.1,0-0.1,0.1-0.1,0.2C14.3,12.5,14.3,12.6,14.4,12.6
      z"/>
    <polygon class="st0" points="14.6,15.3 14.6,15.3 14.6,15.3    "/>
    <path class="st0" d="M22.3,10.4L22.3,10.4C22.3,10.4,22.3,10.4,22.3,10.4L22.3,10.4C22.3,10.4,22.3,10.4,22.3,10.4
      C22.3,10.4,22.3,10.4,22.3,10.4z"/>
    <path class="st0" d="M22.3,10.4C22.3,10.4,22.3,10.4,22.3,10.4C22.3,10.4,22.3,10.4,22.3,10.4C22.3,10.4,22.3,10.5,22.3,10.4
      L22.3,10.4z"/>
    <path class="st0" d="M2.3,0H1.3c0,0.1,0,0.2,0,0.4c0,0.7,0,1.3,0,2c0,0,0,0,0,0l0,0v0c0,0,0,0,0,0l0,0c0,0,0,0,0,0
      c0.2,0,0.4,0,0.6,0c0.1,0,0.1-0.1,0.2-0.1C2.3,1.9,2.3,1.5,2.2,1c0-0.2,0-0.5,0-0.7C2.3,0.2,2.3,0.1,2.3,0z"/>
    <path class="st0" d="M14.6,15.3C14.6,15.3,14.6,15.4,14.6,15.3L14.6,15.3C14.6,15.3,14.6,15.3,14.6,15.3z"/>
    <path class="st0" d="M39.6,12.5C39.6,12.5,39.6,12.6,39.6,12.5C39.6,12.6,39.6,12.5,39.6,12.5C39.6,12.5,39.6,12.5,39.6,12.5z"/>
    <path class="st0" d="M17.7,7.5C17.7,7.5,17.7,7.5,17.7,7.5C17.7,7.5,17.7,7.5,17.7,7.5C17.6,7.5,17.6,7.5,17.7,7.5
      c0.1,0.1,0.1,0.2,0.2,0.3C18,8,18.1,8,18.2,7.9c0,0,0.1-0.1,0.1-0.1c0,0,0,0,0,0c-0.1,0-0.1-0.1-0.2-0.2c0,0,0,0,0,0c0,0,0,0,0,0
      C17.9,7.5,17.8,7.5,17.7,7.5z"/>
    <path class="st0" d="M37.6,2.6L37.6,2.6C37.6,2.6,37.6,2.6,37.6,2.6C37.6,2.6,37.6,2.6,37.6,2.6c0.1,0,0.1,0,0.2,0c0,0,0,0,0,0
      c0,0,0,0,0-0.1c0,0,0,0,0-0.1c0,0,0-0.1,0-0.1C37.7,2.5,37.7,2.5,37.6,2.6C37.6,2.6,37.6,2.6,37.6,2.6z"/>
    <polygon class="st0" points="1.4,2.4 1.4,2.4 1.4,2.4 1.4,2.4    "/>
    <path class="st0" d="M1.4,2.4C1.3,2.4,1.2,2.5,1.2,2.6c-0.1,0.1-0.1,0.2,0,0.3C1.2,2.9,1.3,3,1.4,3c0,0,0,0,0,0c0,0,0,0,0,0
      C1.3,2.8,1.3,2.6,1.4,2.4C1.4,2.4,1.4,2.4,1.4,2.4C1.4,2.4,1.4,2.4,1.4,2.4z"/>
    <path class="st0" d="M17.7,7.5c0-0.1-0.1-0.2-0.2-0.2c0,0,0,0,0,0C17.5,7.4,17.6,7.5,17.7,7.5C17.7,7.5,17.7,7.5,17.7,7.5z"/>
    <path class="st0" d="M2.6,2.8c-0.1,0-0.1,0.1-0.1,0.1c0,0.1,0.1,0.2,0.2,0.2c0.1,0,0.2-0.1,0.2-0.2C2.8,2.9,2.7,2.8,2.6,2.8z"/>
    <path class="st0" d="M1.4,3c0,0.1-0.1,0.1-0.1,0.2c-0.1,0.1-0.1,0.3,0,0.4c0.1,0.2,0.1,0.3,0.1,0.5c0,0.4,0,0.9,0,1.3
      c0,0.3,0,0.6,0,1c0,0.4,0,0.8,0,1.2c0,0.1,0,0.3,0,0.4c0.1,0.2,0.1,0.4,0.1,0.6l1.1,0.1c0-0.4-0.1-0.7-0.1-1.1
      c0-0.2-0.2-0.2-0.3-0.3C2.1,7.1,2.1,7,2.2,6.9c0,0,0.1,0,0.1-0.1c0.1-0.1,0.2-0.2,0.1-0.3c0-0.4-0.1-0.8,0-1.2c0-0.1,0-0.2,0-0.3
      c-0.1-0.4-0.1-0.7,0-1.1c0-0.2,0-0.4-0.1-0.6c0-0.1-0.1-0.3-0.3-0.3C1.8,3.1,1.6,3.1,1.4,3C1.4,3,1.4,3,1.4,3C1.4,3,1.4,3,1.4,3z"
      />
    <path class="st0" d="M47,27.4c-0.1-0.1-0.2-0.1-0.3-0.1c-0.1,0-0.1-0.1-0.2-0.1c-0.1-0.1-0.1-0.2-0.1-0.3c0,0,0,0,0,0l0,0
      c0,0,0,0,0,0c0,0,0,0,0,0c-0.1,0-0.3,0-0.4,0c-0.1,0-0.2-0.1-0.2-0.2c0,0,0-0.1,0-0.1c0-0.1,0.1-0.1,0.2-0.1
      c0.1,0.1,0.3,0.2,0.4,0.3c0,0,0,0,0,0.1c0,0,0,0,0,0c0,0,0,0,0,0c0.1,0,0.3,0,0.4,0c0.1,0,0.3,0.1,0.4,0.2
      c0.2-0.3,0.3-0.5,0.5-0.8c0.4-0.9,0.8-1.8,1.1-2.7c0,0,0,0,0,0c0.6-2,1-4.2,1-6.5c0-4.5-1.6-8.3-4.6-11.2c0,0.5,0,0.9,0,1.4
      c0,0.1,0,0.3,0,0.3c0,0.3,0,0.5-0.1,0.6c0,0,0,0.1-0.1,0.1c0,0,0-0.1-0.1-0.1c0,0,0-0.1,0-0.1c0-0.4-0.1-0.8-0.1-1.2
      c0-0.4,0-0.9,0-1.3c-0.4-0.3-0.8-0.7-1.2-1c-2.1-1.6-4.5-2.7-7.2-3.5c0,0.1,0,0.1,0,0.2c-0.1,0.4,0,0.9-0.1,1.3c0,0.1,0,0.3,0,0.4
      c0,0.4,0.1,0.7,0.1,1.1c0,0,0,0.1-0.1,0.1c-0.1,0-0.1,0-0.2-0.1c-0.1-0.3-0.1-0.6,0-1c0-0.3,0-0.6,0-1c0-0.4,0-0.8,0-1.2
      C33.9,0.3,31.5,0,29,0h-13c0,0,0,0,0,0c0,0,0,0.1,0,0.1c0,0-0.1,0-0.1-0.1c0,0,0,0,0,0h-1c0,0,0,0.1,0.1,0.1c0,0.1,0,0.1,0,0.2
      c0,0,0,0.1-0.1,0.1c-0.1,0-0.2,0-0.2-0.1c0-0.1,0-0.1,0-0.2c0,0,0-0.1,0.1-0.1h-1.3c0,0.3,0,0.6,0,0.8c0,0.3,0,0.4-0.1,0.5
      c0,0,0,0.1,0,0.1c0,0-0.1,0-0.1,0c-0.1-0.2-0.1-0.4-0.1-0.6c0-0.2,0-0.4,0.1-0.6H9.7c0.1,0.4,0.1,0.8,0,1.2c0,0.1,0,0.2,0,0.3
      c0.2,0.6,0.2,1.2,0.2,1.8c0,0.4,0,0.7,0,1.1c0,0.3,0,0.6,0.1,1c0,0.3,0,0.6,0,0.9c0,0.6,0,1.3-0.1,2C9.8,7.5,9.7,6.8,9.7,6.1
      c0-0.2-0.1-0.3-0.2-0.5c0,0,0-0.1-0.1-0.1c-0.4-0.1-0.7-0.2-1-0.2C8.2,5.4,8,5.3,7.8,5.2C7.7,5.1,7.6,5,7.6,5
      C7.5,4.9,7.4,5,7.3,5.1C7.2,5.3,7.2,5.6,7.1,5.8c0,0,0,0.1-0.1,0.1C7,5.9,7,5.9,7,5.8c0-0.2,0-0.4-0.1-0.6c0-0.1-0.1-0.2-0.1-0.3
      C6.5,4.7,6.4,4.3,6.2,4.1C6.2,4,6.2,3.9,6.4,3.9c0.1,0,0.1,0,0.2-0.1c0.1,0,0.2-0.1,0.2-0.2c0-0.2,0-0.4,0-0.5
      C6.7,2.4,6.7,1.8,6.7,1.1c0-0.1,0-0.3,0.1-0.4C6.9,0.6,7,0.4,7,0.2C7,0.1,7,0.1,7,0H2.9c0,0.1,0,0.3,0,0.4c0,0.1,0,0.2,0,0.3
      c0.1,0.5,0.1,1,0.1,1.5c0,0.3,0.1,0.5,0.3,0.7c0.2,0.2,0.4,0.5,0.8,0.6c0,0,0,0,0.1,0.1c0,0.1,0,0.1-0.1,0.1c-0.2,0-0.4,0-0.6,0
      C3.1,3.7,3,3.8,3,4c0,0.2-0.1,0.3-0.1,0.5c0,0.4,0,0.8,0,1.2c0,0.4-0.1,0.8-0.1,1.2c0,0.4,0,0.9,0,1.3c0,0.2,0,0.3,0,0.5
      c0.6,0.1,1.3,0.1,2.2,0.3C5.9,9,6.7,9.2,7.5,9.5c0.1,0,0.2,0.1,0.2,0.1C7.9,10,7.9,10.5,7.9,11v16.8l-5,2.5l5,2.7v19.3
      c0,0.8-0.1,1.1-0.2,1.2c-0.1,0.1-0.2,0.2-0.4,0.3c0,0-0.4,0.2-1.7,0.3c-1.2,0.1-2.1,0.2-2.7,0.3l-2.6,0.2v4.3
      c0.1,0.1,0.1,0.2,0.1,0.3c0,0.2-0.1,0.5-0.1,0.7v3.1h9.1c0-0.7-0.1-1.5-0.1-2.2c0-0.4,0.1-0.8,0.1-1.2c0,0,0-0.1,0.1-0.1
      c0,0,0.1,0,0.1,0c0,0,0.1,0.1,0,0.1c-0.1,0.4,0.2,0.7,0.2,1c0,0.2,0,0.5,0,0.7c0,0.4,0.1,0.8,0.4,1.1c0.1,0.1,0.1,0.3,0.1,0.4
      c0,0,0,0.1,0,0.1h18.4c-0.1,0-0.2-0.1-0.3-0.1c-0.1-0.1-0.2-0.2-0.3-0.2c-0.2-0.1-0.4-0.2-0.5-0.4c0-0.1-0.1-0.1-0.1-0.2
      c-0.1-0.1-0.1-0.3-0.1-0.4c0-0.1,0-0.1,0.1-0.2c0-0.1,0.1-0.3,0.2-0.4c0.2-0.2,0.4-0.3,0.6-0.5c0.1-0.2,0.3-0.2,0.5-0.1
      c0.2,0.1,0.4,0.3,0.5,0.6c0,0.2,0.1,0.3,0.2,0.5c0.2,0.5,0.1,1-0.2,1.4c0,0,0,0-0.1,0h1.5v-8.6l-2.8-0.1c-0.9,0-1.9-0.1-3.1-0.3
      c-1.5-0.2-1.9-0.3-1.9-0.4c-0.2-0.1-0.3-0.1-0.3-0.2c-0.1-0.3-0.2-0.7-0.2-1.2V37.8h3.5c3,0,5.9-0.4,8.6-1.2
      c2.8-0.8,5.3-2.1,7.6-3.7C44,31.4,45.7,29.5,47,27.4z M48,11.7C48,11.7,48,11.6,48,11.7C48,11.6,48,11.6,48,11.7
      C48,11.7,48,11.7,48,11.7z M48.5,22c0,0,0,0.1,0,0.2c0,0,0,0.1,0,0.1c0,0-0.1,0-0.1-0.1c0-0.1,0-0.3,0-0.4c0-0.1,0-0.2,0.1-0.2
      c0.1,0,0.1,0.1,0.1,0.2C48.5,21.9,48.5,21.9,48.5,22z M48.5,20c0.1,0,0.1,0.1,0.1,0.2c0,0.1-0.2,0.2-0.2,0.2c0,0,0-0.1-0.1-0.1
      c0,0,0-0.1,0-0.1c0,0,0-0.1,0-0.1C48.4,20,48.5,20,48.5,20z M48.4,18.6c0,0.1-0.1,0.1-0.1,0.1c-0.1,0-0.1-0.1-0.1-0.1
      c0-0.1,0-0.2,0.1-0.2C48.3,18.4,48.3,18.4,48.4,18.6C48.4,18.5,48.4,18.5,48.4,18.6z M48.3,15c0,0,0,0.1,0,0.1
      c0,0.1,0,0.1-0.1,0.2c-0.1,0-0.1,0-0.1-0.1c0,0,0-0.1,0-0.1c0-0.1,0-0.1,0.1-0.2C48.2,14.9,48.3,14.9,48.3,15z M47.8,10.4
      c0-0.1,0-0.1,0.1-0.2c0.1,0,0.2,0.1,0.2,0.2c0,0.1,0,0.1,0,0.2c0,0.1,0,0.1-0.1,0.2c0,0,0,0.1-0.1,0.1c-0.1,0-0.1,0-0.1-0.1
      C47.8,10.6,47.8,10.5,47.8,10.4z M47.4,15.3C47.4,15.3,47.4,15.3,47.4,15.3c0.2,0,0.2,0.1,0.2,0.2c0,0.1-0.1,0.1-0.1,0.1
      c-0.1,0-0.1,0-0.1-0.1C47.3,15.4,47.3,15.4,47.4,15.3z M47,15.1C47,15.2,47,15.2,47,15.1c-0.1,0-0.1,0-0.1,0
      C46.9,15.1,46.9,15.1,47,15.1C47,15.1,47,15.1,47,15.1z M46.6,13.2c0-0.1,0.1-0.1,0.2-0.1c0.1,0,0.2,0.2,0.2,0.3
      c0,0.1-0.1,0.2-0.1,0.3c0,0.1-0.1,0.1-0.2,0.1c0,0,0-0.1-0.1-0.1C46.6,13.5,46.6,13.4,46.6,13.2z M3.5,4.9c-0.1,0-0.1,0-0.2-0.1
      c0,0,0-0.1,0.1-0.1C3.5,4.7,3.5,4.8,3.5,4.9C3.6,4.9,3.5,4.9,3.5,4.9z M5.1,2.4C5.2,2.5,5.2,2.5,5.1,2.4c0,0.1,0,0.1,0,0.1
      C5.1,2.5,5.1,2.5,5.1,2.4C5.1,2.5,5.1,2.5,5.1,2.4z M4.9,4.1C4.8,4.1,4.7,4.1,4.7,4c0-0.1,0-0.1,0-0.2c0-0.1,0.1-0.1,0.2-0.1
      c0.2,0,0.2,0.1,0.3,0.2c0,0,0,0.1,0,0.1C5.2,4.1,5,4.2,4.9,4.1z M4.7,30.7L4.7,30.7L4.7,30.7L4.7,30.7z M2.1,61.8
      c-0.1,0-0.1-0.1-0.1-0.2c0-0.1,0-0.2,0.1-0.2c0.1,0,0.1,0.1,0.1,0.2C2.2,61.7,2.2,61.8,2.1,61.8z M2.9,60.3c0,0.1-0.1,0.2-0.2,0.2
      c-0.1,0-0.1,0-0.2-0.1c-0.1-0.1-0.1-0.2-0.1-0.3c0-0.2,0.2-0.3,0.4-0.2c0.1,0,0.2,0.1,0.2,0.2C2.9,60.2,2.9,60.2,2.9,60.3z
       M8.3,25.3L8.3,25.3L8.3,25.3L8.3,25.3z M9.1,47.7C9.2,47.7,9.2,47.7,9.1,47.7c0.1,0,0.1,0,0.1,0.1c0,0.3,0,0.6,0,0.9
      c0,0.1,0,0.1-0.1,0.1c0,0,0-0.1,0-0.1c0-0.2,0-0.3,0-0.5C9.2,48.1,9.1,47.9,9.1,47.7z M9.1,49.8C9.1,49.8,9.2,49.8,9.1,49.8
      c0.1,0,0.1,0,0.1,0c0,0.1,0,0.1,0,0.2c0,0.1-0.1,0.3-0.1,0.3c-0.1-0.1-0.1-0.2-0.1-0.3C9.1,50,9.1,49.9,9.1,49.8z M9.2,51.3
      L9.2,51.3L9.2,51.3L9.2,51.3z M9.5,56.7c0,0.1-0.1,0.1-0.1,0.1c0,0-0.1,0-0.1-0.1c0-0.6,0-1.1-0.1-1.7c0-0.1,0-0.1,0-0.2
      c0-0.1,0.1-0.1,0.1-0.1c0.1,0,0.1,0,0.1,0.1c0,0.2,0,0.3,0,0.6c0,0.1,0,0.3,0,0.5C9.6,56.2,9.6,56.5,9.5,56.7z M9.8,58.5
      C9.8,58.5,9.8,58.5,9.8,58.5C9.8,58.5,9.9,58.4,9.8,58.5C9.9,58.5,9.9,58.5,9.8,58.5C9.9,58.5,9.8,58.5,9.8,58.5z M10.1,11.5
      C10.1,11.5,10.1,11.5,10.1,11.5c-0.1,0-0.1,0-0.1,0c-0.1-0.2,0-0.3-0.1-0.6c0-0.1,0-0.2,0-0.3c0,0,0,0,0.1-0.1c0,0,0.1,0,0.1,0.1
      C10.2,10.9,10.2,11.2,10.1,11.5z M28.4,56.5c0-0.1,0.2-0.2,0.3-0.1c0.1,0,0.1,0.1,0.1,0.2c0,0,0,0.1,0,0.1c0,0.1-0.1,0.2-0.2,0.2
      c-0.1,0-0.2-0.1-0.2-0.2C28.4,56.5,28.4,56.5,28.4,56.5z M39.5,5.3C39.5,5.3,39.5,5.3,39.5,5.3c0,0.1,0,0.1,0,0.1
      C39.4,5.4,39.4,5.4,39.5,5.3C39.4,5.3,39.4,5.2,39.5,5.3z M39.5,6.3C39.5,6.3,39.4,6.3,39.5,6.3C39.4,6.3,39.4,6.2,39.5,6.3
      C39.5,6.1,39.5,6.2,39.5,6.3z M39.4,7.2C39.4,7.1,39.5,7.1,39.4,7.2c0.2,0,0.3,0.1,0.3,0.2c0,0.1,0,0.1-0.1,0.2
      c-0.1,0-0.1,0-0.2,0C39.4,7.4,39.3,7.3,39.4,7.2z M39.7,8.2C39.7,8.3,39.7,8.3,39.7,8.2c-0.1,0.2-0.1,0.2-0.2,0.1
      c0-0.1,0-0.1,0-0.2C39.6,8.1,39.7,8.1,39.7,8.2z M38.6,21.4C38.6,21.5,38.6,21.5,38.6,21.4C38.6,21.6,38.6,21.6,38.6,21.4
      C38.5,21.5,38.6,21.5,38.6,21.4z M38.4,16.8C38.4,16.8,38.4,16.8,38.4,16.8c0,0.1,0,0.1,0,0.1C38.3,16.9,38.3,16.9,38.4,16.8
      C38.3,16.8,38.3,16.8,38.4,16.8z M37.3,2c0.1,0,0.1,0.1,0,0.1c0,0,0,0,0,0c0,0,0,0,0,0c0.1,0,0.1,0,0.2,0c0.1,0,0.2,0.1,0.3,0.2
      c0,0,0,0,0,0c0,0,0,0,0,0c0,0,0,0.1,0,0.1c0,0,0,0,0,0c0,0,0,0,0,0c0,0,0,0.1,0,0.1c0,0,0,0,0,0c0,0.1-0.1,0.2-0.1,0.1
      c-0.1,0-0.1-0.1-0.1-0.1c0,0,0,0,0,0c0,0,0,0,0,0c-0.1,0-0.2-0.1-0.2-0.2c0-0.1,0-0.1,0-0.2c0,0,0,0,0,0c0,0,0,0,0,0
      C37.3,2.2,37.3,2.2,37.3,2C37.2,2,37.3,2,37.3,2z M36.4,4.6C36.4,4.6,36.4,4.6,36.4,4.6c0.2,0,0.3,0.1,0.3,0.2
      c0,0.2,0,0.3-0.1,0.5c0,0-0.1,0-0.1,0c0,0-0.1,0-0.1,0C36.2,5.1,36.2,4.9,36.4,4.6z M35.6,14.1C35.6,14.1,35.6,14.2,35.6,14.1
      c0.1,0.1,0.1,0.2,0.1,0.3c0,0.3,0,0.6,0.3,0.7c0.1,0,0.1,0.2,0,0.3c0,0-0.1,0-0.1,0.1c-0.1,0.1-0.1,0.2-0.1,0.3c0,0,0,0,0,0
      c0,0,0,0,0,0c-0.1,0.2-0.1,0.3-0.1,0.5c0,0.3,0,0.6,0.1,1c0.1,0.4,0.1,0.7,0.1,1.1c0,0.6,0,1.3,0,1.9c0,0.2,0,0.4,0,0.5
      c0,0.4,0,0.8,0,1.2c0,0.6,0,1.2,0.2,1.8c0,0.1,0,0.2,0,0.3c-0.2,0.4-0.2,0.9-0.2,1.4c0,0.1,0,0.3,0,0.4c0,0,0,0-0.1,0.1
      c0,0-0.1-0.1-0.1-0.1c0-0.1,0-0.3,0-0.4c0-0.2,0-0.5-0.1-0.7c-0.1-0.6-0.1-1.2-0.1-1.8c0-0.3,0-0.6,0-0.9c0-0.5-0.1-1,0-1.5
      c0-0.2,0-0.4,0-0.6c0-0.7-0.1-1.3,0-2c0-0.6,0.1-1.2,0-1.8c0-0.1,0-0.1,0.1-0.2c0.1-0.1,0.2-0.1,0.3,0c0,0,0,0,0,0l0,0
      c0,0,0,0,0,0c0,0,0,0,0,0c0,0-0.1-0.1-0.1-0.1c-0.1-0.3-0.2-0.5-0.3-0.8c-0.1-0.2,0-0.4,0-0.6C35.5,14.1,35.5,14.1,35.6,14.1z
       M35.3,11.7c0.1,0,0.1,0,0.1,0.1c0,0,0,0.1,0,0.1c0,0.1,0,0.1-0.1,0.2c0,0-0.1,0-0.1-0.1c0,0,0-0.1,0-0.1
      C35.2,11.8,35.2,11.7,35.3,11.7z M34.4,8.6C34.5,8.6,34.5,8.6,34.4,8.6c0.1,0.1,0.1,0.1,0.1,0.2c0,0,0,0-0.1,0
      C34.4,8.8,34.4,8.7,34.4,8.6z M34.4,11.5c0-0.1,0-0.1,0.1-0.1c0,0,0.1,0,0.1,0.1c0,0.1,0.1,0.1,0.1,0.2c0,0.4,0.1,0.7,0.1,1
      c-0.1,0.3,0,0.7-0.1,1c0,0-0.1,0-0.1,0c-0.1,0-0.1-0.1-0.1-0.1C34.4,12.9,34.3,12.2,34.4,11.5z M34.8,16.3
      C34.7,16.4,34.7,16.4,34.8,16.3c-0.1,0-0.1,0-0.1,0c0-0.1,0-0.3,0-0.4c0,0,0,0,0.1,0c0,0,0.1,0,0.1,0.1
      C34.8,16.1,34.8,16.2,34.8,16.3z M30.4,0.7C30.5,0.7,30.5,0.7,30.4,0.7c0.2,0,0.2,0.1,0.2,0.2C30.6,1,30.5,1,30.5,1
      c-0.1,0-0.1,0-0.1-0.1C30.4,0.8,30.4,0.8,30.4,0.7z M27.4,7.1c0-0.1,0.1-0.1,0.2-0.1c0.1,0,0.1,0.1,0.1,0.1c0,0,0,0.1,0,0.1
      c0,0.1-0.1,0.2-0.2,0.2c-0.1,0-0.1-0.1-0.1-0.2C27.4,7.1,27.4,7.1,27.4,7.1z M25.3,3.3c0.1,0,0.1,0,0.1,0.1c0,0.1,0,0.1-0.1,0.1
      C25.3,3.5,25.3,3.5,25.3,3.3C25.3,3.4,25.3,3.3,25.3,3.3z M22.7,6.5c0-0.1,0.1,0.1,0.1,0.2c0,0.1,0,0.1-0.1,0.1c0,0,0,0,0-0.1
      c0,0,0-0.1,0-0.1C22.6,6.6,22.6,6.6,22.7,6.5z M22.4,1.7C22.5,1.7,22.5,1.7,22.4,1.7c0.1,0,0.1,0.2,0.1,0.2c0,0,0,0-0.1,0
      C22.4,1.8,22.4,1.8,22.4,1.7z M21.6,6.8C21.6,6.8,21.6,6.7,21.6,6.8c0.1-0.2,0.2,0,0.2,0.1c0,0,0,0.1,0,0.1c0,0-0.1,0.1-0.1,0
      C21.5,7,21.5,6.9,21.6,6.8z M21.6,9C21.6,9,21.6,9,21.6,9c0.1,0,0.1,0.1,0.1,0.2c0,0,0,0.1-0.1,0.1c0,0-0.1,0-0.1-0.1
      C21.5,9.1,21.5,9.1,21.6,9z M19.7,1.3L19.7,1.3L19.7,1.3L19.7,1.3z M19.5,8C19.5,8,19.5,8.1,19.5,8c0.1,0.1,0.1,0.1,0.1,0.2
      c0,0-0.1,0.1-0.1,0.1C19.4,8.2,19.4,8.1,19.5,8C19.4,8,19.5,8,19.5,8z M19.3,5.8C19.3,5.8,19.3,5.8,19.3,5.8
      C19.3,5.8,19.2,5.8,19.3,5.8C19.3,5.7,19.3,5.7,19.3,5.8z M16.2,4.9c0.1,0,0.1,0,0.1,0.1c0,0,0,0.1,0,0.1c0,0,0,0.1-0.1,0.1
      c-0.1,0-0.1,0-0.2-0.1C16.1,5,16.1,4.9,16.2,4.9z M14.6,4.5c0,0,0,0.1,0,0.1c0,0,0,0-0.1,0.1c0,0-0.1,0-0.1-0.1c0,0,0-0.1,0-0.1
      C14.5,4.4,14.6,4.4,14.6,4.5z M13.7,0L13.7,0L13.7,0L13.7,0z M13.4,7.3C13.4,7.3,13.4,7.4,13.4,7.3c-0.1,0.1-0.1,0.1-0.1,0.1
      c-0.1-0.1-0.1-0.3-0.1-0.4c0,0,0,0,0.1-0.1C13.4,7,13.4,7.1,13.4,7.3z M13.2,4.6C13.2,4.6,13.3,4.6,13.2,4.6c0.1,0,0.1,0,0.1,0
      c0,0.1,0,0.3,0,0.4c0,0,0,0,0,0c0,0.1,0,0.2,0,0.3c0,0,0,0.1,0,0.1c0,0-0.1,0-0.1,0C13.2,5.2,13.1,4.9,13.2,4.6z M11.1,0.9
      C11.1,0.8,11.1,0.8,11.1,0.9c0.1,0,0.1,0,0.1,0c0,0.1,0,0.1,0,0.2c0,0.2-0.1,0.4-0.1,0.6C11.1,1.5,11,1.3,11,1
      C11,1,11,0.9,11.1,0.9z M11.2,3.9C11.2,3.9,11.2,4,11.2,3.9C11.1,4,11.1,4,11.2,3.9C11.1,3.9,11.1,3.9,11.2,3.9
      C11.1,3.9,11.2,3.9,11.2,3.9z M10.3,1.7C10.2,1.7,10.2,1.7,10.3,1.7c-0.1-0.1,0-0.1,0-0.1C10.3,1.6,10.3,1.6,10.3,1.7
      C10.3,1.7,10.3,1.7,10.3,1.7z M10.5,7.2C10.5,7.2,10.4,7.2,10.5,7.2C10.4,7.1,10.4,7,10.4,7c0,0,0-0.1,0-0.1c0,0,0.1,0,0.1,0.1
      C10.5,7.1,10.6,7.1,10.5,7.2z M10.6,4.5C10.5,4.5,10.5,4.5,10.6,4.5c-0.1,0-0.1-0.1-0.1-0.1c0,0,0-0.1,0-0.1c0,0,0-0.1,0.1-0.1
      c0.1,0,0.1,0,0.2,0.1C10.6,4.4,10.6,4.5,10.6,4.5z M11.2,42.3C11.2,42.3,11.2,42.4,11.2,42.3c-0.1,0.1-0.2,0-0.2,0
      c0-0.1,0-0.1,0.1-0.1C11.1,42.1,11.2,42.2,11.2,42.3C11.2,42.2,11.2,42.3,11.2,42.3z M11.1,40.4C11.1,40.3,11,40.3,11.1,40.4
      C11,40.2,11,40.2,11,40.1c0,0,0-0.1,0-0.1c0,0,0-0.1,0.1-0.1c0,0,0.1,0,0.1,0.1c0,0,0,0.1,0,0.1C11.2,40.2,11.2,40.4,11.1,40.4z
       M11.3,39c-0.1,0-0.1,0-0.2,0c0-0.1,0-0.1,0-0.2c0,0,0.1,0,0.1,0c0,0,0.1,0,0.1,0.1C11.3,38.8,11.3,38.8,11.3,39
      C11.3,38.9,11.3,38.9,11.3,39z M11.5,38.1L11.5,38.1L11.5,38.1L11.5,38.1z M11.6,19.1c-0.1,0-0.1,0-0.1-0.1c0-0.2,0-0.5,0.1-0.7
      c0,0,0,0,0-0.1l0,0l0,0c-0.1-0.1-0.2-0.2-0.2-0.3c0,0,0,0,0,0c-0.1,0-0.1,0-0.1,0c0,0,0,0,0.1,0s0,0,0.1,0c0,0,0,0,0,0
      c0,0,0,0,0,0c0,0.1,0.1,0.2,0.2,0.3c0,0,0,0.1,0,0.1C11.6,18.6,11.6,18.8,11.6,19.1C11.6,19.1,11.6,19.1,11.6,19.1z M11.6,16.4
      c0,0.1,0,0.2,0,0.4c0,0,0,0.1,0,0.1c0,0-0.1-0.1-0.1-0.1c-0.1-0.3-0.1-0.7-0.1-1c0,0,0-0.1,0.1-0.1c0.1,0,0.1,0,0.2,0.1
      C11.7,15.9,11.6,16.1,11.6,16.4z M12.2,35.8C12.2,35.8,12.1,35.7,12.2,35.8c-0.1-0.1,0-0.1,0-0.1C12.2,35.7,12.3,35.7,12.2,35.8
      C12.3,35.7,12.2,35.8,12.2,35.8z M12.3,8.8c-0.1-0.3,0-0.6,0-0.8c0,0,0-0.1,0-0.1c0,0,0,0,0,0c0,0.2,0.1,0.4,0.1,0.6
      c0,0.1,0,0.2-0.1,0.3C12.4,8.9,12.4,8.9,12.3,8.8C12.4,8.9,12.3,8.8,12.3,8.8z M12.5,11.5c0-0.1,0.1-0.1,0.2-0.1c0,0,0,0.1,0,0.1
      c0,0.1,0,0.2,0,0.3c0,0.1-0.1,0.2-0.1,0.2c0,0-0.1,0-0.1,0C12.4,11.7,12.4,11.6,12.5,11.5z M12.7,13.6
      C12.7,13.7,12.7,13.7,12.7,13.6c-0.1,0.1-0.1,0-0.1,0C12.6,13.6,12.6,13.5,12.7,13.6C12.7,13.6,12.7,13.6,12.7,13.6z M12.6,15.6
      c0-0.1,0-0.1,0.1-0.1c0.1,0,0.1,0.1,0.1,0.2c0,0.1-0.1,0.1-0.1,0.1C12.6,15.7,12.6,15.7,12.6,15.6z M12.7,21.9
      C12.6,21.9,12.6,21.8,12.7,21.9c0-0.1,0-0.2,0-0.2c0.1,0,0.1,0,0.1,0.1C12.8,21.9,12.7,21.9,12.7,21.9z M13.2,30.8
      c0,0.1,0,0.1-0.1,0.1c-0.1,0-0.1-0.1-0.1-0.2c0-0.1,0-0.1,0.1-0.1c0,0,0.1,0,0.1,0.1C13.2,30.6,13.2,30.6,13.2,30.8
      C13.2,30.7,13.2,30.7,13.2,30.8z M13.2,46.5C13.2,46.5,13.2,46.5,13.2,46.5C13.2,46.4,13.3,46.4,13.2,46.5
      C13.3,46.5,13.3,46.5,13.2,46.5C13.3,46.6,13.2,46.6,13.2,46.5z M13.5,57.7c-0.1,0-0.1,0-0.1-0.1c0,0,0-0.1,0-0.1
      c0.1,0,0.1,0,0.2,0.1C13.6,57.6,13.6,57.7,13.5,57.7z M13.7,17.2C13.7,17.3,13.7,17.3,13.7,17.2c-0.1,0.1-0.1,0.1-0.2,0
      c-0.1-0.1-0.1-0.2-0.2-0.4c0-0.6,0-1.3-0.1-1.9c0-0.3,0-0.6-0.1-1c-0.1-0.4-0.1-0.9,0-1.3c0-0.2,0-0.4,0-0.5
      c-0.2-0.8-0.1-1.6-0.1-2.3c0-0.3,0-0.6,0-0.9c0-0.1,0-0.1,0.1-0.1c0,0,0.1,0,0.1,0.1c0.1,0.3,0.2,0.7,0.1,1.1c0,0.6,0,1.3,0,2.1
      c0,0.2,0,0.7,0.1,1.1c0,0.4,0,0.7,0,1.1c0,0.3-0.1,0.6,0,1c0,0.1,0,0.3,0,0.4c-0.1,0.2,0,0.4,0,0.6C13.7,16.6,13.8,16.9,13.7,17.2
      z M14.2,23.1c0-0.3,0-0.5,0-0.6c0-0.4,0-0.7-0.1-1.1c0-0.1,0-0.3,0-0.4c0.1-0.6,0-1.2,0-1.8c0-0.1,0-0.2-0.1-0.3
      c0-0.1-0.1-0.3,0-0.4c0-0.2,0.1-0.4,0.1-0.5c0-0.2-0.1-0.3-0.1-0.5c0-0.1,0-0.2,0.1-0.3c0,0,0.1,0,0.1,0c0,0,0.1,0,0.1,0.1
      c0.1,0.5,0,0.9,0,1.4c0,0.1,0,0.2,0,0.3c0,0.2,0.1,0.3,0.2,0.5c0.1,0,0.1,0.1,0.1,0.2c0.1,0.1,0.1,0.4-0.1,0.5
      c-0.2,0.1-0.3,0.2-0.2,0.4c0,0.2,0,0.5,0,0.7c0,0.1,0,0.3,0,0.4c0,0.2,0,0.4,0.1,0.6c0.1,0.2,0.1,0.5,0.1,0.7
      c0,0.2-0.1,0.4-0.1,0.6c-0.1,0.2,0.1,0.4,0,0.6c0,0,0,0.1-0.1,0.1c0,0-0.1,0-0.1-0.1C14.3,23.8,14.3,23.4,14.2,23.1z M14.7,31.8
      C14.7,31.8,14.6,31.8,14.7,31.8c-0.1,0.1-0.2,0-0.2,0c0-0.2,0-0.4,0-0.5c0,0,0,0,0,0c0-0.1,0-0.3,0-0.4c0,0,0-0.1,0.1-0.1
      c0,0,0.1,0,0.1,0C14.7,31.1,14.8,31.4,14.7,31.8z M15.1,26.9c-0.2,0.2-0.2,0.5-0.3,0.8c-0.1,0.3-0.1,0.6,0,0.8
      c0.1,0.4,0,0.8-0.1,1.1c0,0-0.1,0-0.1,0c-0.1-0.4-0.1-0.8-0.1-1.3c0-0.2,0-0.5,0-0.8c0-0.4-0.1-0.9-0.1-1.4c0-0.2,0-0.4,0.1-0.5
      c0-0.1,0.2-0.1,0.2,0c0,0.1,0.1,0.1,0.1,0.1c0,0,0,0,0.1-0.1c0-0.1,0.1-0.1,0.2-0.1c0,0,0,0.1,0.1,0.1c0,0.1,0.1,0.3,0.1,0.4
      C15.2,26.4,15.1,26.6,15.1,26.9z M14.8,10.3c0-0.1,0.1-0.1,0.2-0.1c0.1,0,0.1,0.1,0.1,0.2c0,0.1-0.1,0.1-0.2,0.1
      C14.8,10.4,14.7,10.4,14.8,10.3z M14.7,9c0-0.1,0-0.2,0-0.3c0-0.1,0-0.2,0.1-0.3c0,0,0-0.1,0-0.1c0.1,0,0.1,0,0.2,0.1
      c0,0,0.1,0,0.1,0.1c0.1,0.2,0.1,0.4,0,0.6c0,0.1-0.1,0.1-0.2,0.1C14.8,9.1,14.7,9,14.7,9z M16.9,17.1c-0.1,0-0.1,0-0.2-0.1
      c0,0,0-0.1,0-0.1c0-0.1,0.1-0.1,0.2-0.1C16.9,16.9,17,16.9,16.9,17.1C16.9,17,16.9,17.1,16.9,17.1z M17.4,60.9c-0.1,0-0.1,0-0.2,0
      c0,0,0,0-0.1-0.1c0-0.1,0-0.1,0-0.2c0-0.1,0.1-0.1,0.2-0.1c0.1,0,0.1,0.1,0.1,0.1c0,0,0,0.1,0,0.1C17.5,60.8,17.4,60.9,17.4,60.9z
       M17.6,50.7c0,0.1-0.1,0.1-0.2,0.1c-0.1,0-0.1,0-0.2-0.1c0-0.1,0-0.1,0-0.2c0-0.1,0.1-0.2,0.2-0.2c0.1,0,0.2,0.1,0.2,0.2
      C17.6,50.5,17.6,50.6,17.6,50.7z M17.7,10.3c-0.2-0.1-0.2-0.3,0-0.4c0,0,0.1,0,0.1,0c0.1,0,0.1,0,0.2,0.1c0,0.1,0,0.2,0.1,0.3
      c0,0.1-0.1,0.1-0.1,0.1C17.7,10.3,17.7,10.3,17.7,10.3z M17.8,42.9c0,0,0-0.1,0-0.1c0,0,0-0.1,0-0.1c0-0.1,0.1-0.2,0.1-0.1
      c0.1,0,0.1,0.1,0.1,0.2c0,0.1,0,0.1,0,0.2c0,0.1,0,0.1-0.1,0.2c0,0-0.1,0-0.1,0C17.9,43.2,17.8,43,17.8,42.9z M18.1,45
      C18,45,18,44.9,18.1,45c0-0.1,0-0.1,0-0.1C18.1,44.9,18.2,44.9,18.1,45C18.1,45,18.1,45,18.1,45z M18.3,12.8
      C18.2,12.8,18.2,12.8,18.3,12.8C18.2,12.8,18.2,12.7,18.3,12.8c-0.1-0.1-0.1-0.1,0-0.1C18.2,12.6,18.3,12.7,18.3,12.8
      C18.3,12.7,18.3,12.7,18.3,12.8z M17.9,8.7c0-0.1,0-0.1,0-0.2c-0.1-0.3-0.1-0.3-0.4-0.2c-0.1,0-0.1,0.1-0.2,0.1
      c-0.1,0-0.2,0-0.3-0.1c-0.1-0.1-0.2-0.2-0.3-0.3c0-0.1-0.1-0.2-0.1-0.3c0-0.1,0-0.2,0.1-0.3c0,0,0,0,0,0c0,0,0,0,0,0
      c-0.2-0.1-0.4-0.3-0.6-0.4c0,0-0.1,0-0.1,0C16,7,16,7,16,7.1c0,0.1,0.1,0.2,0.1,0.3c0,0.1,0,0.1-0.1,0.2c-0.1,0-0.1,0-0.2,0
      c-0.1-0.2-0.2-0.4-0.2-0.7c0-0.1,0-0.1,0-0.2c0-0.1-0.2-0.2-0.3-0.2c-0.1,0-0.1,0-0.2,0.1C15,6.6,15,6.8,14.9,6.9
      C14.9,7,14.8,7,14.8,7c-0.1,0-0.1-0.1-0.1-0.2c0-0.1,0-0.3,0-0.4c0-0.1-0.1-0.2-0.2-0.2c-0.1,0-0.1,0-0.2,0.1c0,0,0,0.1,0,0.1
      c0,0.5,0.1,1.1,0,1.6c0,0.2,0,0.4,0.2,0.6c0.1,0.2,0.1,0.3,0.1,0.5c0,0.2,0,0.5-0.2,0.7c-0.1,0.1-0.1,0.3,0,0.4
      c0.1,0.2,0,0.3,0,0.5c-0.1,0.2,0,0.4,0.1,0.6c0.2,0.2,0.3,0.5,0.2,0.8c0,0.2,0,0.4,0.1,0.5c0,0.1,0.1,0.1,0.1,0.2
      c0,0.4,0.1,0.8,0,1.2c0,0.2-0.1,0.5-0.1,0.7c0,0.1-0.1,0.1-0.1,0.2c-0.1,0.1-0.1,0.3,0,0.4l-0.1,0c0,0,0,0,0,0c0,0-0.1,0-0.1,0.1
      c-0.2,0.1-0.4,0-0.4-0.2C14,15,14,14.8,14,14.6c0-0.1,0-0.1,0.2-0.2c0.1,0,0.2-0.1,0.2-0.2c0-0.2-0.1-0.5-0.1-0.7
      c-0.1-0.1-0.1-0.1-0.2-0.2c-0.1,0-0.1-0.1-0.1-0.2c0-0.5,0-0.9-0.1-1.4c-0.1-0.4,0-0.7,0-1.1c0-0.3-0.1-0.6-0.1-1
      c0-0.2,0-0.4,0.1-0.6c0-0.2,0-0.4,0-0.6c0-0.1,0-0.3-0.1-0.4c0-0.2,0-0.5-0.1-0.7c0-0.4-0.1-0.7,0-1.1c0-0.6,0-1.2,0-1.8
      c0-0.4,0-0.7,0-1.1c0-0.3,0-0.6-0.1-0.9c0-0.1-0.1-0.3,0-0.4c0-0.4,0-0.8,0.1-1.2c0,0,0.1,0,0.1,0.1c0.1,0.1,0.1,0.3,0.1,0.4
      c0,0.5,0.1,1,0.1,1.5c0,0.2,0,0.4,0,0.6c0,0.5,0,0.9,0,1.4c0,0.2,0,0.4,0.4,0.4c0,0,0.1,0,0.1,0c0.2,0.1,0.3,0.1,0.5,0
      c0,0,0.1,0,0.1-0.1c0.1,0,0.1,0,0.2,0c0.1,0,0.1,0.1,0,0.2c0,0.1-0.1,0.1-0.1,0.2c-0.1,0.1-0.1,0.3,0,0.4c0.1,0,0.1,0.1,0.2,0.1
      c0.1,0,0.3,0.1,0.4,0.2c0.1,0.1,0.2,0.2,0.4,0.2c0.1,0,0.3,0,0.4,0c0.1,0,0.2,0,0.3,0.1c0.1,0,0.1,0.1,0.1,0.2
      c-0.1,0.2-0.1,0.5-0.2,0.7c0,0,0,0,0,0c0,0,0,0,0,0c0.1,0,0.2,0,0.3,0c0.1,0,0.3,0,0.4,0c0,0,0,0,0,0c0,0,0,0,0,0c0,0,0,0,0,0
      c0-0.1,0-0.2,0-0.3c0,0,0.1,0,0.1,0c0.2,0.1,0.3,0.2,0.5,0.4c0,0,0,0.1,0,0.2c0,0,0,0,0,0c0,0,0,0,0,0c0.1,0,0.1,0.1,0.2,0.2
      c0,0,0,0,0,0c0,0,0,0,0,0c0,0,0,0,0,0c0,0,0.1,0,0.1,0c0.2,0.2,0.4,0.4,0.4,0.7c0,0.1,0,0.1,0.1,0.2C19,8.8,19.1,9,19.3,9.1
      c0.1,0.1,0.1,0.2,0.1,0.3c0,0.1-0.1,0.2-0.2,0.2c-0.2,0.1-0.3,0-0.4-0.2c0-0.1-0.1-0.2-0.2-0.2c-0.1,0-0.1,0-0.2,0
      C18.2,9.1,18,8.9,17.9,8.7z M18.8,55.3C18.8,55.3,18.7,55.3,18.8,55.3c-0.1,0-0.1,0-0.2,0C18.7,55.2,18.7,55.2,18.8,55.3
      C18.7,55.2,18.8,55.2,18.8,55.3C18.8,55.2,18.8,55.3,18.8,55.3z M19.2,28.8c0-0.2,0-0.4,0-0.6c-0.1-0.9-0.1-1.7-0.1-2.6
      c0-0.2,0-0.4,0-0.5c0-0.1,0-0.3,0-0.4c0.1-0.3,0.1-0.6,0-1c0-0.3,0-0.6-0.1-0.9c-0.1-0.2-0.1-0.4-0.1-0.6c0.1-0.9,0.1-1.8,0-2.7
      c-0.1-1.2-0.1-2.4-0.1-3.5c0-0.2,0-0.4,0-0.6c-0.1-0.4-0.1-0.8,0-1.3c0-0.3,0-0.5,0-0.7c0-0.1,0-0.3,0-0.4c0-0.3,0-0.5-0.2-0.7
      c0,0,0-0.1,0-0.2c0.1-0.2,0.1-0.3,0.3-0.5c0.1-0.1,0.1-0.1,0.2,0c0,0,0.1,0,0.1,0.1c0.1,0.2,0.1,0.4,0.1,0.5c0,0.2,0,0.4-0.1,0.5
      c0,0.1,0,0.2,0,0.3c0.1,0.3,0.1,0.7,0.2,1.1c0,0.2,0,0.4,0,0.6c0,0.2,0,0.4,0,0.6c0,0.1,0,0.2,0,0.3c0,0.2-0.1,0.4-0.1,0.6
      c0,0.2,0.1,0.4,0.1,0.6c0,0.2,0,0.5,0,0.7c0,0.2,0,0.5,0,0.7c0.1,0.8,0.1,1.6,0,2.4c0,0.5,0,1,0,1.5c0,0.7,0,1.4,0.1,2.1
      c0,0.2,0,0.4,0,0.5c0,0.2,0,0.4,0,0.5c0,0.1,0.1,0.3,0,0.4c-0.1,0.7,0,1.4,0,2.1c0,0.7,0,1.4,0.1,2.1c0,0.1,0,0.3,0,0.4
      c0,0.5,0,1.1,0,1.6c0,0,0,0.1,0,0.1c0,0.4,0.1,0.7,0.1,1.1c0,0.4-0.1,0.7,0,1.1c0,0.5,0,1,0.1,1.5c0,0.1,0,0.3,0,0.4
      c0,0.1-0.1,0.1-0.1,0.1c-0.1,0-0.1,0-0.2-0.1c0-0.1,0-0.1,0-0.2c0-0.1,0-0.3,0-0.4c0,0,0,0,0,0c0-0.1,0-0.2,0-0.3
      c0-0.3,0-0.5-0.1-0.7c-0.1-0.4-0.1-0.8-0.1-1.2c0-0.3,0-0.6,0-1c0-0.3,0-0.6,0-1c0-0.5-0.1-1-0.1-1.5
      C19.2,29.6,19.1,29.2,19.2,28.8z M19.7,62.3C19.7,62.3,19.7,62.3,19.7,62.3c-0.2,0.1-0.2,0.1-0.2,0c-0.1-0.3-0.1-0.6-0.2-0.8
      s-0.1-0.6-0.1-0.8c0-0.1,0.1-0.1,0.1-0.1c0,0,0.1,0,0.1,0c0,0,0.1,0.1,0.1,0.2c0,0.2,0.1,0.4,0.1,0.6c0,0.1,0,0.3,0,0.4
      C19.7,61.9,19.8,62.1,19.7,62.3z M19.8,39.2c0,0.1-0.1,0.1-0.1,0.1c0,0-0.1,0-0.1,0c0-0.1-0.1-0.2-0.1-0.3c0-0.1,0-0.1,0-0.2
      c0-0.2,0-0.5,0-0.7c0-0.3,0-0.6,0.1-0.9c0,0,0,0,0.1-0.1c0,0,0.1,0,0.1,0c0,0,0,0.1,0.1,0.1c0,0,0,0.1,0,0.1
      c0,0.2,0.1,0.5,0.1,0.7C19.8,38.5,19.9,38.8,19.8,39.2z M20.1,12.3C20.1,12.3,20.1,12.3,20.1,12.3c0-0.1,0-0.1,0-0.2
      C20.2,12.2,20.2,12.2,20.1,12.3C20.2,12.3,20.1,12.3,20.1,12.3z M20.4,19.9c-0.1,0-0.1-0.1-0.1-0.2c0-0.1,0.1-0.2,0.1-0.1
      c0.1,0,0.1,0.1,0.1,0.2C20.5,19.8,20.4,19.8,20.4,19.9z M20.8,12.8C20.8,12.8,20.7,12.8,20.8,12.8c-0.3-0.1-0.3-0.2-0.2-0.4
      c0,0,0-0.1,0.1-0.1c0.1-0.1,0.1-0.3,0-0.4c0-0.1-0.1-0.1-0.1-0.2c0,0,0-0.1,0-0.1c0-0.3-0.1-0.5-0.2-0.8c0-0.1,0.1-0.1,0.2-0.1
      c0.1,0,0.2,0,0.2,0.1c0.1,0.3,0.4,0.5,0.8,0.5c0.1,0,0.1,0,0.2,0.1c0.1,0.2,0.1,0.4,0.2,0.6c0,0.1-0.1,0.3-0.2,0.3
      c-0.2,0-0.3,0.1-0.4,0.3c0,0.1-0.1,0.1-0.1,0.2C20.9,12.8,20.9,12.8,20.8,12.8z M21.4,22.4C21.4,22.4,21.4,22.3,21.4,22.4
      c-0.2-0.2-0.2-0.4-0.1-0.5c0,0,0,0,0.1-0.1c0.1,0,0.1,0.1,0.1,0.1C21.6,22,21.6,22.2,21.4,22.4C21.5,22.3,21.5,22.3,21.4,22.4z
       M21.5,23.7c0,0.1-0.1,0.1-0.1,0C21.4,23.7,21.4,23.6,21.5,23.7C21.5,23.6,21.5,23.7,21.5,23.7z M21.7,29.7c0,0.1,0,0.1-0.1,0.2
      c-0.1,0-0.2-0.1-0.2-0.2c0-0.5,0-1-0.1-1.5c0-0.2,0-0.3,0-0.5c0,0,0-0.1,0.1-0.1c0,0,0.1,0,0.1,0c0.1,0.1,0.1,0.2,0.1,0.3
      c0.1,0.3,0,0.7,0,0.9C21.7,29.2,21.7,29.5,21.7,29.7z M21.9,13.3c-0.1,0.2-0.1,0.4-0.1,0.6c0,0.4,0,0.8,0,1.2
      c0,0.1-0.1,0.3-0.2,0.4c-0.1,0-0.2,0.1-0.3,0c0,0-0.1-0.1-0.1-0.2c0-0.2,0-0.4,0-0.5c0-0.1,0.1-0.1,0.1-0.1
      c0.1-0.1,0.2-0.2,0.2-0.3c0-0.2,0-0.4,0-0.5c-0.1-0.3,0-0.5,0.1-0.7c0-0.1,0.2-0.2,0.4-0.1C22,13.1,21.9,13.2,21.9,13.3z
       M22.2,29.7c-0.1,0-0.1,0-0.2-0.1c0-0.1,0-0.2,0.1-0.3c0.1-0.1,0.2,0,0.2,0.1C22.4,29.5,22.3,29.7,22.2,29.7z M24.6,35.8
      c0,0.1-0.1,0.1-0.2,0.1c-0.1,0-0.2-0.1-0.2-0.2c0-0.1,0.1-0.2,0.2-0.2c0.1,0,0.1,0,0.2,0.1C24.7,35.6,24.7,35.7,24.6,35.8z
       M27.2,36.5c0,0.1-0.1,0.1-0.2,0.1c-0.1,0-0.1,0-0.2-0.1c0,0,0-0.1,0-0.1c0-0.2-0.1-0.5,0-0.7c0-0.1,0.1-0.1,0.1-0.1
      c0.1,0,0.1,0,0.2,0.1c0,0.1,0.1,0.1,0.1,0.2c0,0.1,0,0.2,0,0.3C27.3,36.3,27.3,36.4,27.2,36.5z M26.7,29.5c0,0,0.1-0.1,0.2-0.1
      c0.1,0,0.1,0,0.2,0.1c0.1,0.2,0.1,0.4,0,0.6c0,0-0.1,0-0.1,0C26.8,29.9,26.7,29.7,26.7,29.5z M26.8,28.3
      C26.8,28.3,26.8,28.3,26.8,28.3c0,0.1-0.1,0.1-0.2,0.1c0,0-0.1,0-0.1-0.1c-0.9,0.2-1.9,0.2-3,0.2h-1.2v-2.1c0,0,0,0,0,0
      c0,0,0,0,0-0.1c0,0,0,0,0-0.1c0,0,0,0,0,0V17c-0.1,0-0.1-0.1-0.1-0.1c0,0,0,0,0,0c0,0,0,0,0,0c0,0,0,0,0,0c0,0,0,0,0,0
      c0-0.3,0-0.3,0.1-0.4v-4.3c-0.1-0.1-0.1-0.1-0.1-0.2c0-0.1,0-0.1,0.1-0.1V11c-0.1,0-0.2,0-0.2,0c-0.1-0.1-0.1-0.1,0-0.2
      c0-0.1,0.1-0.1,0.1-0.2c0.1,0,0.1-0.1,0.1-0.1c0,0,0,0,0,0c0,0,0,0,0,0l0,0c0,0,0,0,0,0l0,0V9.1h2.8c0.8,0,1.6,0.1,2.3,0.2
      c0-0.1,0-0.1,0.1-0.1c0.1,0,0.2,0,0.2,0.2c0,0,0,0,0,0c0.7,0.1,1.4,0.3,1.9,0.6c1.1,0.5,1.9,1.2,2.6,2c0.6,0.9,1.1,1.9,1.4,3.1
      c0.3,1.4,0.5,2.7,0.5,4c0,0.9-0.1,1.9-0.4,3.1c-0.2,1-0.7,2-1.4,3c-0.6,0.9-1.6,1.7-3,2.4C28.6,27.8,27.8,28.1,26.8,28.3z
       M36.5,29.7c0,0.1-0.1,0.1-0.2,0.1c-0.2,0-0.4-0.2-0.3-0.4c0-0.1,0.1-0.1,0.1-0.2c0.1-0.1,0.3,0,0.4,0.1c0,0.1,0,0.1,0,0.2
      C36.5,29.6,36.5,29.6,36.5,29.7z M39.4,31.9c-0.1,0.1-0.2,0-0.2-0.1c0-0.1,0-0.1,0.1-0.2c0.1-0.1,0.2,0,0.2,0.1
      C39.5,31.8,39.5,31.9,39.4,31.9z M39.7,24.5C39.7,24.5,39.7,24.6,39.7,24.5c-0.1,0.2-0.3,0.4-0.4,0.5c-0.2,0.1-0.3,0.1-0.5,0.1
      c-0.1,0-0.2-0.1-0.3-0.1c0,0,0,0,0,0c0,0.1,0,0.1,0.1,0.2c0,0.1,0,0.1,0,0.2c-0.1,0.1-0.2,0.3-0.3,0.4c-0.1,0.1-0.2,0.2-0.2,0.2
      c-0.5,0.2-0.9,0.6-1.4,0.8c-0.2,0.2-0.6,0.3-0.8,0.6c-0.1,0.1-0.2,0.2-0.2,0.2c-0.3,0.1-0.5,0.3-0.7,0.5c-0.4,0.3-0.9,0.6-1.3,0.9
      c-0.3,0.1-0.5,0.3-0.7,0.4c-0.4,0.2-0.8,0.4-1.2,0.5c-0.1,0-0.1,0-0.2-0.1c0,0,0-0.1,0-0.1c0-0.1,0.1-0.1,0.1-0.2
      c0.1-0.1,0.2-0.1,0.3-0.2c0.3-0.2,0.6-0.3,0.9-0.5c0.1-0.1,0.2-0.1,0.4-0.2c0.3-0.1,0.5-0.2,0.7-0.4c0.5-0.3,0.9-0.6,1.4-1
      c0.2-0.2,0.8-0.6,1-0.7c0.1-0.1,0.2-0.1,0.2-0.2c0.2-0.2,0.4-0.3,0.7-0.5c0.4-0.2,0.7-0.4,1.1-0.6c0.1,0,0.1-0.1,0.1-0.2h0
      c0,0,0,0,0,0c0,0,0,0,0,0c0.1,0,0.2,0,0.3-0.1c0.2-0.2,0.4-0.5,0.7-0.6c0,0,0.1,0,0.1,0C39.7,24.4,39.7,24.4,39.7,24.5z
       M39.6,12.5L39.6,12.5L39.6,12.5C39.6,12.5,39.6,12.5,39.6,12.5C39.6,12.5,39.6,12.5,39.6,12.5c-0.1-0.1-0.1-0.2-0.1-0.4
      c0,0,0,0,0.1,0c0,0,0.1,0,0.1,0C39.7,12.3,39.7,12.4,39.6,12.5C39.6,12.5,39.6,12.5,39.6,12.5z M39.7,10.4c0,0.2,0,0.4,0,0.6
      c0,0,0,0-0.1,0.1c0,0,0-0.1,0-0.1c0-0.4,0-0.8-0.1-1.2c0-0.1,0-0.2,0.1-0.3c0-0.1,0.1-0.1,0.2-0.1c0.1,0,0.2,0.2,0.2,0.2
      c0,0.1,0,0.1,0,0.2C39.7,10,39.7,10.2,39.7,10.4z M40.2,26.4c0,0.1-0.1,0.2-0.2,0.1c-0.1-0.1-0.1-0.1-0.1-0.2
      c0-0.1,0.1-0.1,0.2-0.1C40.1,26.2,40.2,26.2,40.2,26.4C40.2,26.3,40.2,26.3,40.2,26.4z M40.6,6C40.5,6,40.5,6,40.6,6
      c-0.1,0-0.1,0-0.1-0.1c0-0.1,0-0.1,0.1-0.2c0,0,0.1,0,0.1,0C40.7,5.8,40.7,5.9,40.6,6z M41,28.1c0,0.1-0.1,0.1-0.1,0.2
      c0,0,0,0,0,0c0,0,0,0,0-0.1C41,28.2,41,28.2,41,28.1c0,0.1-0.1,0.1-0.1,0.2c0,0,0,0,0,0c0,0,0,0,0,0l0,0c0,0,0,0,0,0
      c0-0.1-0.1-0.2-0.1-0.3c0,0,0-0.1,0-0.1c0,0,0,0,0.1,0C41,27.9,41.1,27.9,41,28.1C41.1,28,41.1,28,41,28.1z M41.1,26.8
      c0,0.1-0.1,0.1-0.2,0.1c0,0,0,0-0.1-0.1c0-0.1,0-0.2,0-0.3c0-0.1,0.1-0.1,0.1-0.1c0.1,0,0.1,0,0.1,0.1
      C41.1,26.6,41.1,26.7,41.1,26.8z M41,24.9c-0.1,0-0.1,0-0.2-0.1c-0.1-0.1,0-0.1,0-0.2c0.1,0,0.1-0.1,0.2-0.1c0.1,0,0.1,0,0.2,0.1
      c0,0,0,0.1,0,0.1C41.2,24.9,41.1,24.9,41,24.9z M41.6,13.2L41.6,13.2L41.6,13.2L41.6,13.2z M44.8,20.7L44.8,20.7L44.8,20.7
      L44.8,20.7z M46.2,25.7L46.2,25.7L46.2,25.7L46.2,25.7z M45.7,11c0-0.2,0.1-0.2,0.2-0.2c0.1,0,0.3,0.1,0.4,0.2
      c0.1,0.1,0.1,0.1,0,0.2c0,0.1-0.1,0.1-0.1,0.1c-0.1,0-0.1,0,0,0C45.8,11.4,45.7,11.2,45.7,11z M45.7,18.7
      C45.7,18.7,45.7,18.8,45.7,18.7c0,0.1,0,0.1,0,0.1C45.6,18.9,45.6,18.8,45.7,18.7C45.6,18.8,45.6,18.7,45.7,18.7z M45.2,16.2
      c0-0.1,0.1-0.1,0.1-0.1c0.1,0,0.1,0,0.2,0.1c0,0.1,0.1,0.3,0,0.4c0,0.1-0.2,0.1-0.3,0.1c-0.1,0-0.1-0.1-0.1-0.2c0,0,0-0.1,0-0.1
      C45.2,16.3,45.2,16.2,45.2,16.2z M44.8,10.1c0.1-0.1,0.3,0,0.3,0.1c0,0.1,0,0.1,0,0.2c0,0.1,0,0.2-0.1,0.3
      c-0.1,0.1-0.4,0.1-0.4-0.1C44.5,10.4,44.6,10.2,44.8,10.1z M44.5,12.9c0.1,0,0.1,0,0.2,0c0,0,0.1,0.1,0.1,0.2
      c0,0.2-0.2,0.3-0.3,0.3c-0.1,0-0.1-0.1-0.1-0.1C44.4,13.2,44.4,13,44.5,12.9z M44.2,16.7c0,0,0.1-0.1,0.2,0c0.1,0,0.1,0.1,0.1,0.2
      c0,0.1,0,0.1-0.1,0.1c-0.1,0-0.1,0-0.2-0.1C44.1,16.9,44.1,16.8,44.2,16.7z M43.7,18.1c0.1,0,0.2,0.1,0.2,0.2
      c0,0.2-0.1,0.3-0.3,0.3c-0.1,0-0.2-0.1-0.2-0.2C43.4,18.1,43.6,18,43.7,18.1z M42.2,21L42.2,21L42.2,21L42.2,21z M42.2,9.2
      c-0.1,0-0.1-0.1-0.1-0.2c0,0,0-0.1,0-0.1c0.1,0,0.1,0,0.2,0.1c0,0,0,0.1,0,0.1C42.3,9.2,42.3,9.2,42.2,9.2z M43.4,28.8
      C43.4,28.8,43.4,28.8,43.4,28.8c0-0.2,0.1-0.4,0.3-0.4c0.1,0,0.3,0.1,0.3,0.2c0.1,0.3,0,0.5-0.2,0.6c-0.1,0.1-0.1,0-0.2,0
      C43.5,29.2,43.4,29,43.4,28.8z"/>
    <path class="st0" d="M9.5,0H7.1c0,0.9,0,1.9,0.1,2.8c0,0.4,0,0.9,0.1,1.3c0,0.1,0.2,0.3,0.3,0.3c0,0,0.1,0,0.1,0
      c0.1,0,0.2,0,0.3,0.1C8,4.5,8.1,4.6,8.2,4.6c0.3,0,0.6,0.2,0.9,0.3c0.1,0,0.2,0,0.3,0c0.1,0,0.3-0.2,0.3-0.3c0-0.1,0-0.1,0-0.2
      c0-0.2-0.1-0.4-0.1-0.6c0-0.7-0.1-1.4,0-2c0-0.3,0-0.6,0-0.8c-0.1-0.2-0.1-0.5,0-0.7C9.5,0.1,9.5,0,9.5,0z"/>
    <polygon class="st0" points="43.7,28.8 43.7,28.9 43.7,28.9    "/>
  </g>
  <g>
    <polygon class="st0" points="100.2,57.7 100.2,57.7 100.3,57.7     "/>
    <polygon class="st0" points="90,17.3 90,17.3 90,17.3    "/>
    <polygon class="st0" points="64.4,1.9 64.4,1.9 64.4,1.9     "/>
    <polygon class="st0" points="90,17.3 90,17.3 90,17.3    "/>
    <polygon class="st0" points="64.4,1.9 64.5,1.9 64.4,1.9     "/>
    <path class="st0" d="M97.5,13.9C97.5,13.9,97.5,13.9,97.5,13.9C97.6,13.9,97.6,13.9,97.5,13.9z"/>
    <path class="st0" d="M97.5,13.9C97.5,13.9,97.5,13.8,97.5,13.9C97.5,13.8,97.5,13.9,97.5,13.9C97.5,13.9,97.5,13.9,97.5,13.9z"/>
    <path class="st0" d="M77.2,41C77.2,41,77.2,41,77.2,41C77.2,41,77.2,41,77.2,41L77.2,41L77.2,41z"/>
    <path class="st0" d="M89.8,23.9L89.8,23.9C89.8,23.9,89.8,23.9,89.8,23.9C89.8,23.9,89.8,23.9,89.8,23.9z"/>
    <path class="st0" d="M81.4,62.9H100c0,0,0-0.1,0-0.1c0-0.2,0-0.4,0.1-0.6c0-0.2,0.1-0.3,0-0.5c-0.1-0.3-0.1-0.6-0.1-0.8
      c0-0.3,0-0.6,0-1c0-0.6,0-1.1,0.1-1.7c0-0.1,0.1-0.2,0.2-0.3c0,0,0,0,0-0.1l0,0c0,0,0,0,0,0c-0.1-0.2-0.1-0.4-0.2-0.6
      c-0.1-0.3,0-0.5,0.1-0.7c0,0,0.1,0,0.1,0c0,0,0.1,0,0.1,0c0.1,0.2,0.2,0.4,0.3,0.7c0.1,0.2,0,0.4-0.3,0.5c-0.1,0-0.1,0-0.2,0.1
      c0,0,0,0,0,0c0,0,0,0,0,0c0,0.1,0,0.2,0,0.4c0,0.1,0,0.2,0.1,0.3c0,0.1,0.1,0.2,0.1,0.3c0,0.2,0,0.4,0.1,0.5
      c0,0.2,0.1,0.3,0.2,0.5c0,0.2,0.1,0.5,0,0.7c-0.1,0.4-0.1,0.8,0,1.2c0,0.4,0,0.8,0,1.2h13.3v-8.5l-1.7-0.1c0,0.4,0.1,0.9,0.1,1.3
      c0,0.2,0,0.5,0.1,0.7c0,0.1,0,0.1,0,0.2c-0.1,1,0,1.9,0,2.8c0,0.4,0,0.8,0,1.1c0,0.6,0,1.1,0,1.7c0,0.2,0,0.4-0.1,0.5
      c0,0.1-0.1,0.1-0.1,0.2c-0.1,0.1-0.1,0.1-0.2,0c-0.2-0.2-0.3-0.3-0.3-0.6c0-0.3,0-0.6,0-1c0-0.3,0-0.6,0-1
      c-0.1-0.4-0.1-0.8-0.1-1.2c0-0.6,0-1.1-0.1-1.7c0-0.4,0-0.8,0-1.2c0-0.2,0.1-0.5,0-0.7c0-0.2,0-0.4,0-0.6c0-0.1,0-0.3,0-0.4
      c0-0.1,0-0.1,0-0.2l-0.6,0c-0.7,0-1.6-0.1-2.6-0.2c-0.9-0.1-1.3-0.3-1.4-0.3c-0.2-0.1-0.8-0.5-2-1.8c-1-1-1.8-2-2.5-3
      c-2.4-3.5-4.9-7.2-7.6-11.1c-0.9-1.3-1.7-2.4-2.5-3.6c0,0.2,0,0.4-0.1,0.7c-0.1,0.3-0.1,0.6,0,0.8c0,0.1,0,0.1,0,0.2
      c0,1,0,2-0.1,3c0,0,0,0.1,0,0.1c0,0.1-0.1,0.1-0.2,0.1c-0.1,0-0.1,0-0.1-0.1c-0.1-0.7-0.2-1.3-0.1-2c0-0.2,0-0.4,0-0.5
      c0,0,0,0,0,0c0-0.4,0-0.7,0-1.1c0-0.1,0-0.3,0-0.4c-0.1-0.3-0.1-0.6-0.1-1c0-0.2,0-0.4,0-0.6c-0.1-0.1-0.2-0.3-0.3-0.4l0.3-0.2
      c0,0,0,0,0,0c0-0.5,0-1,0.1-1.5c0-0.2,0-0.4,0-0.5c0-0.1-0.1-0.3,0-0.4c0-0.1,0-0.2,0.1-0.3c0,0,0.1-0.1,0.1-0.1
      c0.1,0,0.1,0,0.1,0.1c0,0.1,0,0.1,0.1,0.2c0.1,0.2,0.1,0.3,0,0.5c0,0.1,0,0.1-0.1,0.2c0,0.1,0,0.2,0.1,0.3
      c0.1,0.2,0.2,0.4,0.3,0.6c0,0.1,0,0.1,0,0.2c0,0.1-0.1,0.2-0.1,0.4l4-2.1l-4.1-2c0,0,0,0,0,0.1c-0.1,0.2-0.1,0.4-0.2,0.6
      c0,0.1-0.1,0.1-0.2,0.1c-0.1,0-0.1-0.1-0.1-0.1c0-0.1,0-0.1,0-0.2c0-0.1,0-0.3,0-0.4c0,0,0,0,0,0c0-0.1,0-0.1,0-0.2l-1.6-0.8
      c1.5-2,2.8-3.8,3.9-5.3c1.8-2.4,3.8-5,5.9-7.7c1.1-1.4,2-2.5,2.6-3.3c0.3-0.3,0.9-0.9,2.1-1.4c0.5-0.2,1.2-0.4,2-0.5
      c1-0.2,1.7-0.2,2.3-0.3l2.8-0.1V0h-9.4c0,0,0,0.1,0,0.1c0,0.1-0.2,0.1-0.3,0c0,0,0-0.1,0-0.1h-2.5c0,0.2,0,0.4,0.1,0.6
      c0,0.1,0,0.1,0,0.2c0,0.1-0.1,0.1-0.2,0.1c0,0-0.1,0-0.1-0.1c-0.2-0.3-0.2-0.6-0.2-0.9h-3c0,0.1,0,0.1-0.1,0.2
      c-0.1,0-0.1,0-0.1-0.1c0,0,0,0,0-0.1h-7.5c0,0-0.1,0.1-0.1,0.2c0,0.1,0,0.2,0,0.3c0,0.2,0.1,0.3,0.2,0.4c0.1,0,0.1,0.1,0.2,0.1
      c0.2,0.2,0.3,0.4,0.3,0.7c0,0.1,0,0.1-0.1,0.2c-0.1,0.2-0.1,0.5-0.1,0.7c0,0.3,0.1,0.6,0.2,0.8c0,0.2,0,0.4-0.1,0.5
      c-0.1,0.2-0.1,0.3-0.2,0.5c-0.1,0.1-0.1,0.1-0.2,0c-0.1-0.1-0.1-0.1-0.2-0.3c0-0.1-0.1-0.3,0-0.4c0-0.2,0-0.4,0.1-0.6
      c0.1-0.2,0-0.3-0.2-0.5c-0.1-0.1-0.2-0.1-0.2-0.2c-0.1-0.1-0.1-0.2-0.1-0.3c0-0.2,0.1-0.5,0-0.7c0-0.1,0-0.3,0-0.4
      c0-0.3,0-0.7,0-1h-0.8c0,0.3,0,0.4,0.1,0.9c0,0.1,0,0.2,0,0.3c-0.1,0.2-0.3,0.4-0.3,0.7C87.1,1.9,87,2,87,1.9c0,0,0-0.1-0.1-0.1
      c0-0.2,0-0.4,0-0.6c0-0.2,0.1-0.3,0-0.5c0-0.2,0-0.5-0.1-0.7h-1.9v8.5l2.8,0.1c0.9,0,1.5,0.1,2.1,0.2c-0.1-0.5-0.1-1-0.1-1.5
      c0-0.2,0-0.4,0-0.5c0-0.3-0.1-0.6,0-0.8c0-0.2,0-0.4,0-0.5c0-0.4,0-0.8,0-1.2c0-0.2,0-0.4,0.1-0.6c0,0,0-0.1,0-0.1
      c0.1,0,0.1,0,0.2,0.1c0.1,0,0.1,0.1,0.1,0.2c0,0.2,0,0.4,0,0.5c0,0,0,0,0,0c0,0.1,0,0.3,0,0.4c0,0.2,0.1,0.3,0.2,0.5
      c0.1,0.2,0.1,0.2,0.1,0.4c-0.1,0.2-0.1,0.5-0.1,0.7c0,0.8,0,1.7,0,2.5C90.6,8.9,91,9,91.2,9c-0.1,0.3-0.3,0.6-0.5,1
      c0.1,0,0.1,0,0.1,0c0.1,0.1,0.2,0.3,0.3,0.4c0,0.2,0,0.4,0,0.6c0,0.2,0,0.4-0.1,0.6c0,0.1-0.1,0.1-0.2,0.1c0,0-0.1,0-0.1-0.1
      c-0.1-0.2-0.1-0.5-0.1-0.7c-0.1-0.2-0.1-0.4-0.2-0.6c0,0,0,0,0,0c-0.1,0.2-0.3,0.4-0.4,0.7c0,0.4,0,0.8-0.1,1.2c0,0.2,0,0.4,0,0.5
      c0,0.2,0,0.4,0,0.6c-0.1,0.3,0,0.5,0.2,0.7c0,0,0,0.1,0.1,0.1c0.1,0.2,0,0.4-0.3,0.4c-0.1,0-0.1,0-0.2-0.1c0-0.1,0-0.2-0.1-0.3
      c0-0.2,0.1-0.3,0-0.5c-0.1-0.1-0.1-0.3-0.2-0.4c0-0.1-0.1-0.2-0.1-0.3c0-0.1,0-0.2,0-0.3c0,0,0-0.1,0-0.1c0,0,0-0.1,0-0.1
      c-0.1,0-0.1,0-0.1,0.1c0,0,0,0.1,0,0.1c0,0.1-0.1,0.2-0.2,0.1c-0.1-0.1-0.1-0.1-0.1-0.2c-0.1,0.2-0.3,0.4-0.4,0.6
      c-0.9,1.3-1.8,2.7-2.8,4.1c0,0,0,0,0,0c0,0.1,0,0.2,0,0.3c0,0.2,0,0.4,0.1,0.6c0.2,0.3,0.2,0.6,0.3,0.9c0,0.1,0,0.1-0.1,0.2
      c-0.1,0-0.1,0-0.2-0.1c-0.1-0.1-0.1-0.2-0.2-0.3c0-0.1-0.1-0.1-0.1-0.2c0-0.4-0.1-0.7-0.3-1c-0.7,1-1.4,2-2.2,3.1
      c-0.7-1-1.3-2-1.9-2.9c-1.2-1.8-2.2-3.5-3.1-5c-0.9-1.4-1.6-2.7-2.3-3.9c0,0,0-0.1-0.1-0.1c1.4-0.3,2.7-0.4,4-0.4l2.4-0.1
      c0,0,0,0,0,0c0-0.1-0.1-0.1-0.2-0.2C82,8.2,81.9,8.1,81.9,8c0-0.2,0-0.4-0.1-0.6c-0.1-0.3-0.1-0.6-0.2-0.9c0-0.2-0.1-0.5-0.3-0.7
      c-0.1-0.1-0.2-0.2-0.2-0.4c0-0.1,0-0.3-0.1-0.4c-0.2-0.5-0.5-1-0.7-1.6c0,0,0-0.1,0-0.1C80,2.9,80,2.4,79.8,2
      c-0.1-0.2-0.2-0.5-0.3-0.7c0-0.1-0.1-0.1-0.2,0c-0.2,0.1-0.4,0.3-0.5,0.5c-0.1,0.1,0,0.3,0.1,0.4c0.1,0.1,0.1,0.2,0.1,0.3
      C79,2.7,79,2.9,79,3.1c0,0.4,0,0.7,0,1.1c0,0.4,0,0.7,0,1.1c0.1,0.7,0,1.4,0,2.1c0,0.2-0.1,0.3-0.2,0.5c0,0-0.1,0.1-0.1,0.1
      c-0.1,0-0.1,0-0.1-0.1c0-0.1,0-0.2,0-0.3c0-0.2,0-0.4-0.1-0.5c-0.1-0.1-0.1-0.3,0-0.4c0-0.1,0-0.2,0-0.3c0-0.2,0-0.4,0-0.5
      c0-0.3,0.1-0.5,0.1-0.7c0-0.2-0.1-0.5-0.1-0.7c0-0.6-0.1-1.2,0-1.8c0-0.2,0-0.4,0-0.6c-0.1-0.2,0-0.4,0-0.5c0.1-0.3,0-0.6-0.1-0.8
      c-0.1-0.1-0.1-0.3-0.1-0.4H72c0,0,0,0,0,0.1c0.1,0.1,0.1,0.2,0.1,0.3c0,0.1,0.1,0.2,0,0.3c-0.1,0.2-0.1,0.4-0.2,0.6
      c0,0.1-0.1,0.1-0.1,0.1c0,0-0.1,0-0.1,0c0,0-0.1,0-0.1-0.1c-0.1-0.2-0.2-0.4-0.2-0.6c0-0.1-0.1-0.2-0.2-0.3
      c-0.1-0.1-0.1-0.2-0.1-0.4c0,0,0,0,0,0h-1.6c0,0,0,0.1,0,0.1c0.1,0.2,0.2,0.4,0.2,0.6c0,0.1-0.1,0.2-0.2,0.2c-0.1,0-0.3,0-0.4-0.1
      c0,0,0-0.1-0.1-0.1c-0.1-0.2-0.2-0.3-0.3-0.5C69,0.2,68.9,0.1,68.9,0h-0.1c0,0.1-0.1,0.3-0.1,0.4c0,0.1-0.2,0.2-0.2,0.2
      c-0.1,0-0.2-0.1-0.2-0.2c0-0.1,0-0.2-0.1-0.3c0,0,0,0,0,0h-2.7c0,0,0,0.1,0,0.1c0.1,0.3,0.1,0.6,0.1,0.9c0,0.2-0.1,0.3-0.3,0.4
      c-0.1,0.1-0.2,0.1-0.3,0c-0.1-0.1-0.1-0.2-0.1-0.3c0-0.1,0-0.1,0.1-0.2c0.1-0.2,0.2-0.3,0.2-0.5c0-0.2,0-0.3,0-0.5h-0.5
      c0,0.1,0,0.1,0,0.3c0,0,0,0.2,0,0.3c0,0.1-0.1,0.1-0.1,0.1c-0.1,0-0.1,0-0.2-0.1c0,0,0-0.1,0-0.1c-0.1-0.2-0.1-0.3,0-0.5
      c0,0,0-0.1,0-0.1h-3.8c0,0.1,0,0.2,0,0.3c0,0.1-0.1,0.1-0.1,0.2c0,0.1-0.1,0.1-0.2,0.1c-0.1,0-0.1,0-0.1-0.1
      c0-0.1-0.1-0.3-0.1-0.4c0,0,0,0,0-0.1h-6.1c0,0.1-0.1,0.2-0.2,0.2c0,0-0.1,0-0.1,0c-0.1,0-0.1-0.1,0-0.2c0,0,0,0,0,0h-3v8.4
      l1.4,0.1c0,0,0,0,0,0c-0.1,0-0.1-0.1,0-0.2C52,8.2,52.1,8,52.2,7.9c0.3-0.2,0.5-0.5,0.8-0.7c0.2-0.1,0.3-0.3,0.4-0.5
      c0,0,0.1,0,0.1,0c0.1,0,0.2,0,0.2,0c0,0,0.1,0.1,0.1,0.2c0,0.1,0,0.1-0.1,0.2c-0.1,0.3-0.2,0.5-0.1,0.8c0,0,0,0.1,0,0.1
      c0,0.2-0.1,0.4-0.2,0.6c0.6,0.1,1.3,0.2,2.3,0.3c1.1,0.2,1.7,0.4,1.9,0.5c0.5,0.2,1,0.5,1.3,0.8c-0.1-0.5-0.1-1,0-1.5
      C59,8.3,59,7.9,59,7.4c0-0.2,0-0.4-0.1-0.6c-0.1-0.4,0-0.7,0.1-1c0-0.1,0.1-0.1,0.1-0.1c0,0,0.1,0,0.1,0.1
      c0.1,0.2,0.1,0.4,0.1,0.6c0,0.2,0,0.5,0,0.7c0,0.4-0.1,0.8,0,1.2c0,0.1,0,0.2,0,0.3c0,0.4,0,0.9,0,1.3c0,0.3,0,0.6,0,0.8
      c0.4,0.5,1.1,1.3,2.3,3.1c0.8,1.2,1.6,2.3,2.3,3.4c0-0.1,0-0.3,0-0.4c0,0,0,0,0,0c0-0.2,0-0.5,0-0.7c0-0.4,0-0.7,0-1.1
      c0-0.2,0-0.5,0-0.7c0,0,0,0,0.1,0c0,0,0.1,0,0.1,0c0,0.3,0.1,0.6,0.2,0.8c0,0.1,0,0.2,0,0.3c0,0.1-0.1,0.3-0.1,0.4
      c0,0.2,0,0.5,0.1,0.7c0.1,0.3,0.1,0.6,0,0.8c0,0.1,0,0.1-0.1,0.2c0,0,0,0,0,0.1c0.4,0.5,0.7,1,1.1,1.6c0-0.3,0-0.5,0-0.8
      c0-0.1,0-0.2,0.1-0.3c0-0.1,0.1-0.1,0.1-0.1c0.1,0,0.1,0,0.1,0.1c0,0.5,0.1,0.9,0.1,1.4c0,0.1,0,0.1,0,0.2c0,0,0,0.1,0,0.1
      c1.2,1.8,2.4,3.5,3.6,5.2c0.6,0.9,1.1,1.7,1.7,2.4c0.1,0,0.2,0,0.4,0c0.1,0,0.1,0.1,0,0.2c0,0.1-0.1,0.1-0.1,0.1
      c0.1,0.1,0.1,0.2,0.2,0.3l-4.3,2.1l2.7,1.4c0,0,0-0.1,0-0.1c0-0.1,0.1-0.1,0.2-0.1c0.1,0.1,0.2,0.2,0.2,0.4c0,0,0,0,0,0l3,1.6
      c-1.5,2-3.1,4.2-4.9,6.5c-2.7,3.5-4.9,6.5-6.6,8.9c-0.5,0.7-1,1.3-1.4,1.8c0,0,0.1,0,0.1,0.1c0.1,0.1,0.1,0.2,0.2,0.3
      c0.1,0.1,0.1,0.1,0.3,0.1c0,0,0,0,0,0c0,0,0,0,0,0c0.1,0,0.2,0,0.2,0.1c0.1,0.2,0.2,0.4,0.2,0.6c0.1,0.3,0,0.5-0.2,0.7
      c-0.1,0.1-0.1,0.1-0.2,0c-0.1,0-0.1-0.1-0.1-0.1c0,0,0-0.1,0-0.1c0.1-0.2,0.1-0.4,0-0.6c-0.1-0.2,0-0.4,0.1-0.6c0,0,0,0,0,0l0,0
      c0,0,0,0,0,0c0,0,0,0,0,0c-0.2,0-0.4,0.2-0.5,0.3c-0.1,0-0.2,0-0.3-0.1C60,51.3,60,51.2,60,51.1c-0.2,0.2-0.3,0.3-0.5,0.5
      c-0.6,0.7-1.5,1.3-2.6,1.9c-0.3,0.1-0.7,0.3-1.5,0.4c0,0.1,0,0.2-0.1,0.3c0,0.1-0.1,0.1-0.2,0C55.1,54.2,55,54.1,55,54
      c-1,0.1-1.7,0.2-2.4,0.3L50,54.5v8.4h20.5c0,0,0-0.1,0-0.1c0-0.1,0-0.1,0.1-0.1c0.1,0,0.2,0,0.3,0.1c0,0,0,0.1,0,0.1h6.3v-8.5
      l-1.8-0.1c0.1,0,0.2,0.1,0.2,0.2c0,0.2,0,0.3,0,0.5c0,0.1,0,0.1,0,0.2c0,0.1-0.2,0.1-0.3,0.1c-0.1,0-0.1-0.1-0.1-0.2
      c0,0,0-0.1,0-0.1c0.1-0.2,0-0.4-0.1-0.6c0-0.1-0.1-0.1,0-0.2c0,0,0,0,0,0l-0.7,0c-0.3,0-0.6,0-0.9,0c0,0,0,0,0,0
      c0.1,0,0.1,0.1,0.1,0.2c0,0,0,0.1,0,0.1c0,0.1,0,0.1,0,0.1c0,0.3-0.1,0.4-0.2,0.5c-0.1,0-0.2,0-0.2,0c-0.1-0.2-0.2-0.5-0.1-0.7
      c0,0,0-0.1,0.1-0.1c-1.2-0.1-1.9-0.2-2.4-0.2c0.5-0.9,1.5-2.6,3.6-5.7c1-1.4,1.9-2.8,2.8-4.1c0,0-0.1,0-0.1,0c0,0-0.1,0-0.1-0.1
      c0-0.1,0-0.1,0-0.2c0-0.2,0-0.4,0-0.7c0-0.2-0.1-0.5,0-0.8c0-0.1,0.1-0.1,0.2-0.1c0.1,0,0.1,0.1,0.1,0.1c0,0.3,0.1,0.6,0,0.9
      c-0.1,0.2-0.1,0.4,0,0.6c0,0,0,0,0,0c0.9-1.3,1.8-2.5,2.6-3.7c0.7,1.1,1.4,2.1,2.1,3.2c1.5,2.3,2.7,4.3,3.8,6
      c0.9,1.5,1.7,2.8,2.2,4c0,0.1,0.1,0.2,0.1,0.2c-1.1,0.2-2.4,0.3-4,0.4l-2.8,0.1V62.9z M106.5,53.4
      C106.6,53.4,106.6,53.5,106.5,53.4c0,0.1,0,0.1,0,0.2c0,0.1,0,0.1-0.1,0.1c0,0,0-0.1,0-0.2C106.4,53.5,106.5,53.4,106.5,53.4z
       M103.6,53.5c0.2-0.1,0.3,0,0.4,0.2c0,0.1,0,0.1-0.1,0.2c-0.1,0.1-0.3,0-0.3-0.1C103.5,53.6,103.5,53.5,103.6,53.5z M103.1,61.6
      c0.1,0,0.1,0.1,0.1,0.2c0,0.1,0,0.1-0.1,0.2c0,0.1-0.1,0.1-0.2,0.1c-0.1,0-0.2-0.1-0.1-0.2C102.9,61.7,103,61.6,103.1,61.6z
       M101.2,51.5c0.1-0.1,0.2-0.1,0.3,0c0.1,0,0.1,0.1,0.1,0.1c0,0.1,0,0.1,0.1,0.2c0,0,0,0.1,0,0.1c-0.1,0.1-0.1,0.2-0.3,0.3
      c-0.1,0.1-0.4,0-0.5-0.1c0,0,0-0.1,0-0.1C100.9,51.9,101,51.7,101.2,51.5z M100.6,53c0,0.6,0,1.4-0.1,2c0,0.1-0.1,0.2-0.2,0.2
      c-0.1,0-0.1-0.1-0.1-0.1c0,0,0-0.1,0-0.1c0,0,0-0.1,0-0.1c0-0.3,0-0.6,0-0.8c0-0.2,0-0.4,0-0.3c0-0.6,0-1,0-1.4
      c0-0.1,0.1-0.1,0.1-0.1c0,0,0.1,0,0.1,0.1c0,0.1,0,0.1,0,0.2c0,0.1,0,0.2,0.1,0.3C100.5,52.9,100.6,52.9,100.6,53z M100.1,51
      c0,0,0.1,0,0.1,0c0.1,0.1,0.2,0.1,0.2,0.2c0,0.1-0.1,0.2-0.2,0.2c-0.1,0-0.2-0.1-0.2-0.2C100,51.1,100,51,100.1,51z M94.4,59.5
      C94.4,59.5,94.4,59.5,94.4,59.5c-0.1,0.1-0.1,0-0.1,0C94.3,59.4,94.4,59.4,94.4,59.5z M94.1,44C94.2,44,94.2,44,94.1,44
      c0.1,0,0.1,0,0.2,0.1c0,0.1,0,0.1-0.1,0.1C94.1,44.2,94.1,44.1,94.1,44C94.1,44,94.1,44,94.1,44z M92.9,47.1
      c0.1-0.1,0.2-0.1,0.3,0c0.1,0.1,0.2,0.2,0.2,0.4c0,0.2-0.1,0.3-0.3,0.4c-0.1,0-0.2-0.1-0.3-0.1C92.6,47.5,92.7,47.3,92.9,47.1z
       M92.1,41.7L92.1,41.7L92.1,41.7L92.1,41.7z M92.2,40.2c0,0,0,0.1,0,0.1c0,0-0.1,0-0.1,0c0,0-0.1-0.1-0.1-0.1
      C92.1,40.2,92.1,40.1,92.2,40.2z M111.5,7.5C111.5,7.6,111.4,7.6,111.5,7.5c-0.1,0-0.1-0.1-0.1-0.1c0,0,0,0,0.1-0.1
      c0,0,0.1,0,0.1,0C111.5,7.4,111.5,7.5,111.5,7.5z M110.9,4.8c0-0.1,0-0.2,0.1-0.3c0.1-0.1,0.2-0.2,0.3-0.3c0.1,0,0.1,0,0.2,0
      c0,0,0,0.1,0,0.1c0,0.1,0,0.3,0,0.3c0,0.1,0,0.1,0,0.2c-0.1,0.2,0,0.3,0.1,0.5c0,0,0,0.1,0.1,0.1c0.1,0.2,0.1,0.3,0,0.5
      c0,0.1-0.1,0.2-0.1,0.3c-0.1,0.1-0.3,0.1-0.3,0c0,0-0.1-0.1-0.1-0.1c-0.2-0.3-0.3-0.6-0.3-0.9C110.9,5.2,110.9,5,110.9,4.8z
       M109.9,2.2c0.1-0.2,0.1-0.3,0.3-0.4c0,0,0.1,0,0.2,0.1c0.1,0.4,0,0.8,0.1,1.1c0,0.2,0,0.3-0.1,0.4c0,0,0,0.1-0.1,0.1
      c-0.2,0.1-0.5-0.1-0.5-0.3c0,0,0-0.1,0-0.1C109.9,2.8,110,2.5,109.9,2.2z M107.8,3.3c0.1,0,0.1,0,0.2,0.1c0,0.1,0,0.2-0.1,0.2
      c-0.1,0-0.2-0.1-0.2-0.2C107.6,3.3,107.7,3.3,107.8,3.3z M104.4,8.7c-0.1,0-0.1,0-0.1-0.1c0,0,0-0.1,0-0.1c0.1-0.1,0.1-0.1,0.1,0
      C104.5,8.6,104.5,8.7,104.4,8.7C104.5,8.7,104.5,8.7,104.4,8.7z M104.3,7.8C104.3,7.8,104.3,7.7,104.3,7.8c0-0.1,0.1-0.1,0.1-0.1
      c0,0,0,0.1,0,0.1C104.4,7.8,104.4,7.9,104.3,7.8z M104,2.9c0.1-0.2,0.1-0.5,0.1-0.7c0-0.2,0-0.4,0-0.6c0,0,0-0.1,0.1-0.1
      c0,0,0.1,0,0.1,0c0,0.1,0.1,0.3,0.1,0.4c0.1,0.3,0.1,0.6,0.2,0.8c0.1,0.2,0.1,0.3,0.1,0.5c0,0.1,0,0.3,0,0.4
      c-0.1,0.4-0.1,0.8-0.3,1.2c0,0.1-0.1,0.1-0.2,0.1c0,0-0.1,0-0.1-0.1c-0.1-0.1-0.1-0.3-0.1-0.4c0-0.2,0-0.4,0-0.6
      c0-0.2,0-0.5-0.1-0.8c0,0,0-0.1,0-0.1C104,2.9,104,2.9,104,2.9z M102.7,7.6L102.7,7.6L102.7,7.6L102.7,7.6z M102.4,9.6
      c0-0.1,0.1-0.2,0.2-0.2c0.1,0,0.1,0,0.2,0.1c0.1,0.1,0.1,0.2,0.2,0.4c0.1,0.4,0.1,0.5-0.2,0.8c-0.1,0.1-0.2,0-0.2-0.1
      c0,0,0-0.1,0-0.1C102.4,10.2,102.4,9.9,102.4,9.6z M97.9,16.8c0,0.1,0,0.1-0.1,0.2c-0.1,0.1-0.1,0-0.2-0.1
      c-0.1-0.2-0.3-0.3-0.5-0.4c-0.2-0.1-0.2-0.4,0-0.5c0.1,0,0.1-0.1,0.2-0.1c0.1-0.1,0.2-0.2,0.2-0.3c0-0.2-0.1-0.4-0.1-0.6
      c0-0.1,0-0.1,0.1-0.2c0.1,0,0.2,0,0.2,0.1c0,0.2,0,0.5,0,0.7c0,0.2,0,0.4,0,0.7C97.9,16.4,97.9,16.6,97.9,16.8z M97.5,13.9
      L97.5,13.9c0.1,0,0.1,0,0.1,0c0,0,0,0.1,0,0.1C97.6,14,97.5,13.9,97.5,13.9z M101.5,0.8C101.5,0.7,101.6,0.7,101.5,0.8
      c0.1-0.1,0.1-0.1,0.2,0c0,0.1,0,0.1,0,0.2c0,0-0.1,0-0.1,0C101.5,0.9,101.5,0.8,101.5,0.8z M100.3,13.7c-0.1,0-0.2,0-0.2-0.1
      c0-0.1,0-0.1,0-0.2c0-0.1,0-0.2,0.2-0.2c0,0,0.1,0,0.1,0C100.5,13.3,100.5,13.6,100.3,13.7z M100.1,8.3c0.1,0.3,0,0.6,0.2,0.8
      c0.1,0.2,0.1,0.3,0,0.5c-0.1,0.2-0.1,0.4-0.1,0.6c0,0.1,0,0.3,0,0.4c0.1,0.3,0.1,0.6,0,0.9c0,0.1-0.1,0.1-0.2,0.1
      c0,0-0.1,0-0.1-0.1c0,0,0-0.1-0.1-0.1c0-0.1,0-0.3,0-0.3c0-0.2,0-0.4,0-0.5c-0.2-0.7-0.1-1.5-0.1-2.2c0-0.1,0-0.2,0-0.3
      c0-0.1,0.1-0.1,0.1-0.1C100,8.2,100.1,8.2,100.1,8.3z M99.2,4c0.1,0,0.1-0.1,0.2-0.1c0.1-0.1,0.2-0.2,0.2-0.3c0-0.5,0-1.1,0-1.6
      c0-0.1,0-0.1,0-0.2c0-0.1,0.1-0.1,0.1-0.2c0,0,0.1,0.1,0.1,0.1c0,0.1,0.1,0.2,0.1,0.3c0,0.2,0,0.4,0,0.5c0,0.2,0,0.3,0,0.4
      c0.1,0.2,0,0.4,0,0.6c0,0.1,0,0.3,0,0.4c0,0.1,0.1,0.3,0.1,0.4c0,0.5,0.1,0.9,0.1,1.4c0,0.2,0,0.4-0.1,0.6c0,0,0,0-0.1,0
      s-0.1,0-0.1,0c0-0.1,0-0.1-0.1-0.2c-0.1-0.2-0.1-0.3-0.1-0.5c0.1-0.3,0-0.6,0-1c-0.1-0.1-0.1-0.2-0.2-0.3
      c-0.1-0.1-0.2-0.2-0.3-0.3C99.1,4.2,99.2,4,99.2,4z M98.8,3.9C98.8,3.9,98.9,4,98.8,3.9c0,0.1,0,0.1,0,0.1C98.8,4,98.8,4,98.8,3.9
      C98.8,4,98.8,3.9,98.8,3.9z M98.6,1.9C98.6,1.9,98.6,1.9,98.6,1.9c0.1,0,0.1,0,0.1,0c0,0,0,0.1,0,0.1c0,0-0.1,0-0.1,0
      C98.6,2.1,98.5,2,98.6,1.9z M97.7,9c0,0.1,0.1,0.2,0.2,0.3c0.1,0.1,0.2,0.2,0.4,0.2c0.1,0,0.2,0,0.3,0.1c0.2,0.1,0.3,0.2,0.2,0.4
      c0,0.1-0.1,0.1-0.1,0.1c-0.1,0-0.3-0.1-0.4-0.1c-0.1,0-0.2,0-0.3,0.1c-0.1,0.1-0.2,0.2-0.2,0.3c0,0.3-0.1,0.6-0.1,0.9
      c0,0,0,0.1,0,0.1c0,0-0.1,0-0.1,0c0,0-0.1,0-0.1-0.1c-0.1-0.1-0.1-0.3-0.2-0.5c0-0.4-0.1-0.8-0.2-1.3c0-0.1,0-0.3,0-0.4
      C97,9,97.1,8.9,97.1,8.7c0-0.1,0-0.3,0.1-0.4c0,0,0,0,0.1,0c0,0,0.1,0,0.1,0c0,0,0.1,0.1,0.1,0.2C97.6,8.6,97.6,8.8,97.7,9z
       M97,1.5C97,1.5,97,1.4,97,1.5c0.1-0.1,0.1-0.1,0.1-0.1c0,0,0,0,0.1,0.1c0.1,0.2,0.1,0.4,0.1,0.6c0,0.2,0,0.3,0.1,0.5
      c0,0.1,0.1,0.1,0.1,0.2c0,0.1,0,0.3-0.1,0.4c0,0.1-0.2,0.1-0.3,0c0,0,0-0.1,0-0.1c0-0.1-0.1-0.2,0-0.3C97.1,2.3,96.9,1.9,97,1.5z
       M96.8,6.6c0.2-0.5,0.2-1,0.2-1.6c0-0.4,0-0.7,0.1-1.1c0-0.1,0.1-0.1,0.1-0.1c0.1,0,0.2,0.1,0.2,0.2c0,0,0,0.1,0,0.1
      c0,0.2-0.1,0.5,0,0.7c-0.1,0.8,0,1.6,0,2.3c0,0.2,0,0.4-0.1,0.5c0,0.1-0.1,0.1-0.2,0.1c-0.1,0-0.1,0-0.1-0.1C97,7.4,97,7.2,96.8,7
      c0-0.1,0-0.1,0-0.2C96.7,6.7,96.8,6.6,96.8,6.6z M96.2,13.8c0,0.1,0.1,0.1,0.1,0.2c0,0.1,0,0.1-0.1,0.1c0,0-0.1,0-0.1,0
      C96,14.1,96,14.1,96,14C96,13.9,96.2,13.8,96.2,13.8z M89.1,5.9C89.1,5.9,89.1,5.9,89.1,5.9C89.1,6,89.1,6,89.1,5.9
      C89,5.9,89,5.9,89.1,5.9z M89,4.8L89,4.8L89,4.8L89,4.8z M89.2,8.5c0,0.1-0.1,0.1-0.2,0.1c-0.1,0-0.1,0-0.1-0.1c0-0.1,0-0.2,0-0.3
      c0-0.1,0.1-0.1,0.2-0.1c0.1,0,0.1,0,0.1,0.1C89.3,8.3,89.3,8.4,89.2,8.5z M90.1,2.4C90.1,2.4,90.1,2.5,90.1,2.4
      C90,2.5,90,2.5,89.9,2.5c-0.1,0-0.1-0.1-0.1-0.2c0-0.1,0.2-0.2,0.2-0.1C90.1,2.3,90.1,2.3,90.1,2.4z M90.4,1.9
      c0-0.1,0.1-0.1,0.2-0.1c0.1,0,0.1,0.1,0.1,0.1c0,0.1,0,0.2,0,0.3c0,0.1,0,0.2,0,0.3c0,0,0,0.1,0,0.1c-0.1,0-0.1,0-0.2-0.1
      C90.4,2.4,90.3,2.1,90.4,1.9z M90.5,5c0-0.2,0-0.3,0-0.4c0-0.3,0-0.6,0-0.8c0-0.1,0.1-0.1,0.1-0.1c0,0,0.1,0,0.1,0.1
      c0,0.1,0.1,0.2,0.1,0.3c-0.1,0.3,0,0.6,0.2,0.9C91,5,91,5,91,5.1c0,0.1-0.1,0.3-0.2,0.4c0,0-0.1,0-0.1,0c-0.1,0-0.1,0-0.2-0.1
      C90.6,5.3,90.5,5.1,90.5,5z M90.7,6.7C90.7,6.7,90.7,6.7,90.7,6.7C90.7,6.7,90.6,6.7,90.7,6.7c-0.1-0.1-0.1-0.1-0.1-0.1
      C90.7,6.6,90.7,6.6,90.7,6.7C90.7,6.6,90.7,6.6,90.7,6.7z M90.9,8.3c-0.1,0-0.1,0-0.2-0.1c-0.1-0.2-0.1-0.3-0.1-0.5
      c0-0.1,0.1-0.1,0.2-0.1c0.1,0,0.1,0,0.2,0.1C91,7.9,91.1,8,91,8.1C91,8.2,91,8.3,90.9,8.3z M91.1,1.4L91.1,1.4L91.1,1.4L91.1,1.4z
       M92.2,24.1C92.1,24,92,24,92,23.9c0,0,0-0.1,0-0.1c0-0.1,0.1-0.1,0.1-0.1c0.1,0,0.1,0,0.1,0.1c0,0,0,0.1,0,0.1
      C92.2,24,92.2,24.1,92.2,24.1z M94,19.4c0.1,0,0.2,0,0.3,0.1c0,0,0,0.1,0,0.1c0,0.1,0,0.1-0.1,0.2c-0.1,0-0.1,0-0.2-0.1
      c0,0,0-0.1,0-0.1C93.9,19.5,93.9,19.4,94,19.4z M92.7,17.3c0,0.1-0.1,0.1-0.2,0.1c-0.1,0-0.1-0.1-0.1-0.2c0,0,0-0.1,0-0.1
      c0-0.1,0.1-0.1,0.2-0.1c0,0,0.1,0,0.1,0.1C92.8,17.1,92.8,17.2,92.7,17.3z M92.5,12.4c0.1,0,0.1,0,0.2,0.1c0.1,0.2,0.1,0.4,0,0.6
      c0,0-0.1,0-0.1,0c0,0-0.1,0-0.1,0c-0.1-0.2-0.1-0.3-0.1-0.5C92.4,12.5,92.5,12.4,92.5,12.4z M92.3,22.6c0,0,0,0.1,0,0.1
      c0,0.1,0,0.2-0.1,0.3c0,0.1-0.1,0.1-0.2,0.1c-0.1,0-0.1,0-0.2-0.1c-0.1-0.2-0.1-0.3,0-0.5c0-0.1,0.1-0.1,0.1-0.1
      c0.1,0,0.2,0.1,0.2,0.2C92.3,22.5,92.3,22.5,92.3,22.6z M91.9,20.2c0-0.1,0.1-0.1,0.1-0.1c0.1,0,0.1,0.1,0.1,0.2
      c0,0.1,0,0.3,0,0.3c0,0.3,0,0.4,0,0.5c0,0,0,0.1-0.1,0.1c0,0-0.1,0-0.1-0.1C91.9,20.7,91.8,20.4,91.9,20.2z M91.8,15
      c0.2-0.1,0.5,0.1,0.5,0.3c0,0.1,0,0.1,0,0.2c0,0.2-0.1,0.4-0.1,0.6c0,0.2,0,0.4,0,0.6c0,0.1,0,0.1-0.1,0.2c0,0.1-0.1,0.1-0.2,0.1
      c0,0-0.1,0-0.1-0.1c0-0.1,0-0.1,0-0.2c0.1-0.4,0.1-0.7-0.1-1c0-0.1-0.1-0.1-0.1-0.2C91.5,15.3,91.6,15.1,91.8,15z M80.1,4.1
      c0.1,0,0.1,0,0.1,0.1c0,0,0,0.1-0.1,0.1c-0.1,0-0.1,0-0.2-0.1C79.9,4.2,80,4.2,80.1,4.1z M53.4,1.4C53.4,1.4,53.4,1.4,53.4,1.4
      c0,0.1,0,0.1-0.1,0.1C53.3,1.4,53.3,1.4,53.4,1.4C53.3,1.3,53.4,1.3,53.4,1.4z M53.4,3.4c0-0.1-0.1-0.1-0.1-0.1
      c-0.1-0.3-0.1-0.6,0-0.9c0,0,0-0.1,0.1-0.1c0,0,0.1,0,0.1,0.1C53.5,2.8,53.5,2.8,53.4,3.4z M55.3,5.4C55.3,5.5,55.3,5.5,55.3,5.4
      c-0.1,0-0.2,0-0.1-0.1c0,0,0.1-0.1,0.1-0.1C55.3,5.3,55.4,5.4,55.3,5.4z M56.2,1.6C56.2,1.6,56.1,1.6,56.2,1.6
      C56,1.5,56,1.5,56,1.4c0-0.1,0.1-0.1,0.2-0.1C56.3,1.4,56.3,1.5,56.2,1.6z M56.8,2.4C56.8,2.4,56.8,2.4,56.8,2.4
      c-0.1-0.1,0-0.1,0-0.1C56.8,2.3,56.8,2.3,56.8,2.4C56.8,2.4,56.8,2.4,56.8,2.4z M57.8,5.7C57.8,5.7,57.9,5.6,57.8,5.7
      c0.1-0.1,0.1,0,0.2,0C58,5.7,57.9,5.7,57.8,5.7C57.9,5.7,57.9,5.7,57.8,5.7z M58.1,6.8C58,6.8,58,6.8,58.1,6.8
      C58,6.7,58,6.6,58,6.6c0,0,0.1-0.1,0.1-0.1C58.1,6.6,58.2,6.6,58.1,6.8C58.1,6.8,58.1,6.8,58.1,6.8z M58.8,1.3
      c-0.1,0-0.1-0.2,0-0.3c0-0.1,0.1-0.1,0.2-0.1c0.1,0,0.2,0.1,0.2,0.2c0,0.1,0,0.1-0.1,0.2C59,1.4,58.9,1.4,58.8,1.3z M59.3,4.8
      c0,0.1-0.1,0.1-0.1,0.2c0,0-0.2-0.1-0.2-0.2c0,0,0-0.1,0-0.1c0,0,0-0.1,0-0.1c0-0.1,0-0.1,0-0.2c0-0.1,0-0.3,0.1-0.4
      c0-0.1,0.1-0.1,0.2-0.1c0,0,0.1,0,0.1,0.1C59.3,4.2,59.3,4.5,59.3,4.8z M61.3,0.6c0.1-0.1,0.2-0.1,0.3-0.1c0.1,0,0.1,0,0.2,0
      c0.1,0.1,0.2,0.3,0.2,0.5c0,0.1-0.1,0.2-0.1,0.3c0,0.1-0.1,0.1-0.2,0c-0.1-0.1-0.3-0.3-0.4-0.4C61.2,0.8,61.2,0.7,61.3,0.6z
       M61.9,2.3C62,2.5,62,2.7,62,2.8C62,2.9,61.9,3,61.8,3c-0.1,0-0.3,0-0.4,0c-0.1,0-0.1-0.1-0.1-0.2c0-0.1,0-0.2,0-0.3
      c0-0.1,0-0.1,0-0.2c0-0.2,0-0.3,0-0.5c0,0,0.1,0,0.1,0C61.7,1.9,61.9,2,61.9,2.3z M61.1,5.6c0-0.2,0-0.4,0.1-0.8
      c0-0.1,0-0.3,0-0.6c0-0.1,0.1-0.2,0.2-0.2c0.1,0,0.1,0.1,0.2,0.1c0,0.1,0.1,0.1,0.1,0.2c0,0.1,0,0.2,0,0.3c0,0.1,0.1,0.3,0.3,0.3
      c0,0,0.1,0,0.1,0.1c0,0,0,0.1,0,0.1c0,0.3,0.1,0.6,0.1,1c0,0.1-0.1,0.2-0.2,0.2c-0.2-0.1-0.3,0.1-0.4,0.2c-0.1,0.1-0.2,0.1-0.2,0
      C61.1,6.2,61.1,5.9,61.1,5.6z M61.5,8.4C61.5,8.4,61.4,8.4,61.5,8.4c-0.2-0.2-0.3-0.4-0.2-0.6c0-0.1,0.1-0.1,0.1-0.2
      c0-0.2,0.2-0.3,0.4-0.4c0,0,0.1,0,0.1,0c0.1,0,0.2,0,0.2,0.1c0,0.1,0.1,0.2,0.1,0.3c0,0.2,0,0.3-0.1,0.5c0,0.2-0.1,0.2-0.3,0.3
      C61.7,8.4,61.6,8.4,61.5,8.4z M62.3,9.4c0,0.1,0,0.2-0.1,0.3c0,0,0,0.1-0.1,0.1c-0.1,0-0.1,0-0.2,0c-0.1-0.2-0.2-0.5-0.1-0.8
      c0-0.1,0.1-0.1,0.2-0.1c0,0,0.1,0,0.1,0c0.2,0,0.3,0.1,0.2,0.3C62.4,9.2,62.3,9.3,62.3,9.4C62.3,9.4,62.3,9.4,62.3,9.4z M62.7,0.4
      C62.7,0.4,62.7,0.3,62.7,0.4c0-0.1,0-0.1,0.1-0.1c0,0,0.1,0,0.1,0.1C62.8,0.4,62.8,0.5,62.7,0.4z M63,11.9L63,11.9L63,11.9
      L63,11.9z M63.1,0.8C63.1,0.7,63.1,0.7,63.1,0.8c0.1-0.1,0.2-0.1,0.2,0c0,0,0,0.1,0,0.1C63.2,0.9,63.1,0.8,63.1,0.8z M63.4,9.6
      c0,0.1-0.1,0.1-0.2,0.1c-0.1,0-0.1-0.1-0.1-0.2c0,0,0-0.1,0-0.1c0,0,0.1,0,0.2,0C63.4,9.5,63.5,9.5,63.4,9.6z M63.9,1.2
      c0-0.1,0.1-0.1,0.2-0.1c0.1,0,0.2,0.1,0.3,0.3c0,0.1,0,0.1,0.1,0.2c0,0.1,0,0.2,0.1,0.3l0,0c0,0,0-0.1,0-0.1
      c-0.3-0.1-0.5-0.2-0.6-0.5C63.8,1.3,63.8,1.3,63.9,1.2z M63.9,9.1c0-0.1,0-0.1,0-0.2c0,0,0-0.1,0.1-0.1c0.1,0,0.1,0,0.1,0.1
      c0,0.1,0,0.1,0,0.2c0,0.1,0,0.1-0.1,0.2C64,9.4,63.9,9.3,63.9,9.1z M64,7.8C64.1,7.7,64.1,7.7,64,7.8C64.1,7.8,64.1,7.8,64,7.8
      C64.1,7.8,64,7.8,64,7.8z M64.1,12.5c-0.1,0-0.1,0-0.1-0.1c0,0,0-0.1,0-0.1c0-0.1,0-0.1,0-0.2c0-0.1,0-0.1,0.1-0.1
      c0,0,0.1,0,0.1,0.1c0,0.1,0,0.2,0,0.3C64.2,12.4,64.2,12.4,64.1,12.5z M64.4,5.8c0-0.1,0-0.2-0.1-0.3c-0.1-0.1-0.1-0.2-0.1-0.4
      c0.1-0.3,0-0.3-0.2-0.6c-0.1-0.1-0.1-0.2,0-0.3c0,0,0-0.1,0.1-0.1c0,0,0-0.1,0-0.1c0.1-0.4,0.2-0.6,0.3-0.8c0,0,0.1-0.1,0.1,0
      c0.1,0,0.1,0.1,0.1,0.2c0,0.2,0,0.4,0,0.5c0,0.2,0,0.4,0,0.4c0,0.5,0.1,0.9,0.1,1.3c0,0.2,0.1,0.3,0.1,0.5c0,0.1,0,0.1-0.1,0.2
      c-0.1,0.1-0.2,0-0.2-0.1C64.4,6,64.4,5.9,64.4,5.8z M64.7,10.5c0,0-0.1,0-0.2-0.1c0-0.1-0.1-0.1-0.1-0.2c0-0.1,0-0.1,0.1-0.2
      c0.1,0,0.1,0,0.2,0c0,0.1,0,0.1,0.1,0.2C64.8,10.4,64.8,10.5,64.7,10.5z M65.3,2.2C65.3,2.2,65.3,2.1,65.3,2.2
      c0.1-0.1,0.2-0.1,0.2,0c0,0.1,0,0.1,0,0.2c0,0,0,0.1-0.1,0.1c0,0-0.1,0-0.1-0.1C65.2,2.3,65.2,2.2,65.3,2.2z M65.3,4.2
      c0-0.2,0-0.4,0.1-0.5c0-0.1,0.1-0.1,0.2-0.1c0.1,0,0.1,0,0.1,0.1c0,0,0,0.1,0,0.1c0,0.1,0,0.1,0,0.2c-0.1,0.4-0.1,0.7-0.1,1.1
      c0,0.1,0,0.1-0.1,0.1c-0.1,0-0.1,0-0.2-0.1c0-0.1-0.1-0.1-0.1-0.2c0-0.1,0-0.2,0-0.3C65.3,4.5,65.3,4.3,65.3,4.2z M65.4,10.2
      c0-0.1,0-0.3,0-0.4c0-0.2,0-0.4,0-0.6c0-0.1,0-0.1,0-0.2c0.1-0.4,0-0.8,0.1-1.2c0-0.1,0-0.3-0.1-0.4c-0.1-0.4-0.1-0.8,0-1.3
      C65.4,6,65.4,6,65.5,6c0.1,0,0.1,0,0.1,0.1c0,0.1,0,0.1,0,0.2c0,0.1,0,0.3,0,0.4c0,0.3,0,0.6,0,0.8c0,0.2,0,0.5,0.1,0.7
      c-0.1,0.5,0,0.9,0,1.3c-0.1,0.3,0.1,0.6,0,0.8c0,0.1-0.1,0.1-0.1,0.1c0,0-0.1,0-0.1-0.1C65.5,10.3,65.4,10.3,65.4,10.2z
       M65.5,15.1c0-0.1,0-0.1,0.1-0.2c0.1,0,0.1,0.1,0.1,0.2c0,0.1,0,0.2-0.1,0.2C65.5,15.3,65.5,15.2,65.5,15.1z M65.8,16.7
      c-0.1,0-0.1,0-0.2-0.1c0,0,0-0.1,0-0.1c0-0.1,0-0.2,0.1-0.2c0.1,0,0.1,0,0.2,0.1c0,0,0,0.1,0,0.1C65.8,16.6,65.8,16.6,65.8,16.7z
       M66.7,1.6C66.7,1.6,66.7,1.7,66.7,1.6c-0.1,0.1-0.1,0.1-0.1,0C66.6,1.5,66.7,1.5,66.7,1.6C66.7,1.5,66.7,1.6,66.7,1.6z M66.4,0.5
      c0-0.1,0-0.1,0.1-0.2c0,0,0.1,0,0.1,0c0.1,0,0.1,0.1,0.1,0.2C66.6,0.6,66.5,0.6,66.4,0.5C66.4,0.6,66.4,0.6,66.4,0.5z M66.9,4.1
      c0,0.1-0.1,0.1-0.2,0.1c-0.1,0-0.1,0-0.1-0.1c-0.1-0.2,0-0.5,0-0.8c0-0.1,0-0.4,0-0.6c0-0.1,0.1-0.1,0.1-0.1c0,0,0.1,0,0.1,0.1
      c0.1,0.1,0.1,0.2,0.1,0.3c0,0.4,0,0.7,0,1.1C66.9,4,66.9,4.1,66.9,4.1z M67.1,1.7C67,1.7,67,1.7,67.1,1.7c0-0.1,0-0.1,0-0.1
      C67.1,1.6,67.1,1.6,67.1,1.7C67.1,1.7,67.1,1.7,67.1,1.7z M68.1,20c-0.1,0.1-0.1,0.1-0.2,0s-0.1-0.1-0.1-0.2c0-0.1,0-0.1,0.1-0.2
      c0,0,0.1,0,0.1,0c0.1,0,0.1,0.1,0.2,0.1C68.2,19.9,68.2,19.9,68.1,20z M69.4,12.5c0,0-0.1,0.1-0.2,0.1c-0.1-0.1-0.1-0.1,0-0.2
      c0-0.1,0.1-0.1,0.2-0.1C69.4,12.3,69.4,12.3,69.4,12.5C69.4,12.4,69.4,12.4,69.4,12.5z M69.5,10.5c-0.1,0-0.1,0-0.1-0.1
      c0,0,0.1,0,0.1,0C69.5,10.4,69.5,10.4,69.5,10.5C69.5,10.5,69.5,10.5,69.5,10.5z M69.6,15.2C69.5,15.2,69.5,15.2,69.6,15.2
      c0-0.1,0-0.1,0-0.1c0,0,0.1,0,0.1,0C69.7,15.2,69.6,15.2,69.6,15.2z M70,1.6c0,0.1-0.1,0.2-0.2,0.2c0,0-0.1,0-0.1,0
      c0,0-0.1-0.1-0.1-0.1c0-0.1,0.1-0.2,0.1-0.3c0-0.1,0.1-0.1,0.2-0.1C70,1.4,70,1.5,70,1.6z M70.2,23.8c-0.1,0-0.1-0.1-0.1-0.1
      c0,0,0-0.1,0-0.1c0-0.1,0.1-0.1,0.2-0.1c0.1,0,0.1,0.1,0.1,0.2C70.3,23.8,70.3,23.8,70.2,23.8z M70.8,0.4c0-0.1,0.1-0.1,0.2-0.1
      c0,0,0,0.1,0,0.1c0,0,0,0.1,0,0.1c0,0.1-0.1,0.1-0.1,0.1C70.8,0.6,70.8,0.5,70.8,0.4z M71,21.6L71,21.6L71,21.6L71,21.6z M70.9,20
      c-0.1,0-0.1-0.1-0.1-0.2c0-0.1,0-0.2,0.1-0.2c0.1,0,0.1,0.1,0.1,0.1C71,20,71,20.1,70.9,20z M70.3,29.5c0,0.1-0.1,0.1-0.2,0.1
      c0,0-0.1,0-0.1,0c-0.1-0.1-0.1-0.3,0-0.4c0,0,0.1,0,0.1,0C70.3,29.2,70.4,29.3,70.3,29.5C70.3,29.4,70.3,29.4,70.3,29.5z M72,21.8
      C72,21.8,72,21.8,72,21.8c0-0.1,0-0.1,0-0.1C72,21.7,72.1,21.8,72,21.8C72.1,21.8,72,21.8,72,21.8z M72.9,17.2
      C72.9,17.2,73,17.2,72.9,17.2c0.1,0,0.1,0,0.1,0C73,17.3,73,17.3,72.9,17.2C72.9,17.3,72.9,17.3,72.9,17.2z M72.9,27.3
      C72.9,27.4,73,27.4,72.9,27.3c0.1,0.2,0.1,0.4,0.1,0.5c0,0.1,0,0.2-0.1,0.3c0,0.1-0.1,0.1-0.2,0.1c0,0-0.1,0-0.1-0.1
      c-0.1-0.2-0.2-0.5-0.1-0.8c0-0.1,0.1-0.1,0.2-0.1C72.8,27.3,72.9,27.3,72.9,27.3z M72.6,5.4L72.6,5.4L72.6,5.4L72.6,5.4z
       M72.4,19.8c0-0.1,0.1-0.1,0.2-0.1c0.1,0,0.1,0.1,0.1,0.1c0,0.1,0,0.2,0,0.3c0,0.1-0.1,0.1-0.2,0.1c0,0-0.1,0-0.1,0
      C72.3,20,72.3,19.9,72.4,19.8z M73.1,32.9C73.1,32.9,73.1,32.9,73.1,32.9C73,33,73,33,72.9,32.9c-0.1-0.1-0.1-0.2-0.2-0.4
      c0-0.1,0-0.1,0.1-0.2c0.1-0.1,0.2,0,0.3,0.1c0,0.1,0,0.1,0,0.2C73.1,32.7,73.1,32.8,73.1,32.9z M73.1,31.4c0,0.1-0.1,0.2-0.1,0.3
      c-0.1,0.1-0.1,0.1-0.2,0c0-0.1-0.1-0.2-0.1-0.3c0-0.2-0.1-0.3-0.2-0.5c-0.2-0.2-0.2-0.4-0.1-0.6c0.1-0.2,0.2-0.5,0.3-0.6
      c0,0,0.1,0,0.2,0c0.1,0.1,0.2,0.2,0.2,0.4c0,0.2,0,0.5,0.1,0.7C73.2,31,73.1,31.2,73.1,31.4z M51.1,57.6c-0.1,0-0.2-0.1-0.2-0.2
      c0,0,0-0.1,0-0.1c0-0.1,0.1-0.1,0.2-0.1c0.1,0,0.1,0.1,0.1,0.2C51.3,57.4,51.2,57.5,51.1,57.6z M55,55.3
      C55.1,55.3,55.1,55.2,55,55.3c0.1-0.1,0.2-0.1,0.2-0.1c0.1,0.1,0.1,0.2,0.1,0.4c0,0,0,0.1-0.1,0.1c0,0-0.1,0-0.1,0
      c-0.1-0.1-0.1-0.1-0.2-0.2C55,55.4,55,55.3,55,55.3z M55.4,57.2C55.4,57.2,55.3,57.2,55.4,57.2c-0.1,0.1-0.1,0.1-0.1,0.1
      c-0.1-0.1,0-0.2,0-0.3C55.3,56.8,55.4,56.9,55.4,57.2C55.4,57.1,55.4,57.1,55.4,57.2z M61.1,54.1C61.1,54.1,61.2,54.2,61.1,54.1
      c0.1,0.1,0.2,0.1,0.2,0.2c0,0,0,0.1,0,0.1c0,0-0.1,0.1-0.1,0.1c-0.1,0-0.2-0.1-0.2-0.2C61,54.2,61,54.2,61.1,54.1z M60.7,62.8
      C60.7,62.9,60.6,62.8,60.7,62.8c-0.2-0.1-0.2-0.2-0.2-0.4c0,0,0-0.1,0.1-0.1c0.1,0,0.1,0,0.2,0C60.9,62.5,60.9,62.6,60.7,62.8z
       M61.7,60.4c0,0.1-0.1,0.3-0.2,0.4c-0.1,0-0.2,0-0.3-0.1c-0.1,0-0.2,0-0.2,0.2c0,0.1,0,0.2-0.1,0.3c-0.1,0.2-0.2,0.3-0.3,0.4
      c-0.1,0-0.1,0-0.2-0.1c-0.1-0.2-0.2-0.5-0.2-0.7c0-0.2,0.2-0.3,0.3-0.3c0.1,0,0.1,0,0.2,0c0.2,0,0.3-0.1,0.4-0.3
      c0-0.1,0-0.1,0.1-0.2c0-0.1,0-0.1,0.1-0.2c0-0.1,0.2-0.1,0.3-0.1c0.1,0,0.3,0.2,0.2,0.3C61.7,60.1,61.7,60.3,61.7,60.4z M62,57.3
      c-0.2-0.1-0.3-0.3-0.3-0.5c0,0,0-0.1,0-0.1c0.1-0.2,0.3-0.3,0.4-0.2c0.1,0.1,0.2,0.1,0.3,0.3c0.1,0.2,0,0.3-0.1,0.5
      c0,0-0.1,0-0.2,0.1C62.1,57.3,62,57.3,62,57.3z M62.7,60.5c-0.1,0-0.1,0-0.2,0c-0.1,0-0.2-0.1-0.2-0.3c0-0.1,0.1-0.2,0.1-0.3
      c0.1-0.1,0.2-0.1,0.3,0c0.1,0.1,0.1,0.2,0.2,0.3C62.9,60.3,62.8,60.5,62.7,60.5z M67.7,42.3C67.7,42.3,67.7,42.2,67.7,42.3
      c0-0.1,0-0.1,0-0.1C67.7,42.2,67.7,42.2,67.7,42.3C67.7,42.2,67.7,42.3,67.7,42.3z M69.6,48.4c0,0.1-0.1,0.2-0.1,0.1
      c-0.1,0-0.1-0.1-0.1-0.2c0-0.1,0-0.1,0-0.2c0-0.1,0.1-0.1,0.1-0.1c0,0,0.1,0,0.1,0.1C69.6,48.2,69.6,48.3,69.6,48.4z M69.5,47.2
      c0,0.1-0.1,0.1-0.2,0.1c-0.1,0-0.1,0-0.1-0.1c0-0.1,0-0.1,0-0.2c0-0.1,0-0.1,0-0.2c0-0.1,0.1-0.1,0.1-0.1c0.1,0,0.1,0,0.2,0.1
      C69.6,46.9,69.6,47.1,69.5,47.2z M70.1,47.5L70.1,47.5L70.1,47.5L70.1,47.5z M70.3,46.9c0,0.1-0.1,0.1-0.2,0
      c-0.1-0.1-0.2-0.3-0.1-0.5c0-0.1,0.1-0.1,0.1-0.1c0.1,0,0.1,0,0.2,0.1c0,0.1,0,0.1,0.1,0.2C70.4,46.7,70.4,46.8,70.3,46.9z
       M75.5,59.2c0.1,0,0.1,0,0.2,0.1c0,0.1,0,0.2,0,0.3c-0.1,0-0.2-0.1-0.2-0.2C75.4,59.3,75.5,59.3,75.5,59.2z M75.5,62.1
      c0-0.1,0.1-0.1,0.2-0.1c0.1,0,0.1,0.1,0.1,0.1c0,0,0,0.1,0,0.1c0,0,0,0.1,0,0.1c0,0.1-0.1,0.1-0.2,0.1c-0.1,0-0.1-0.1-0.1-0.2
      C75.4,62.2,75.5,62.1,75.5,62.1z M73.2,56.5c0-0.1,0.2-0.2,0.2-0.2c0.1,0,0.2,0.1,0.2,0.2c0,0.1,0,0.1,0.1,0.2
      c0,0.2,0,0.3-0.1,0.5c0,0.1-0.1,0.1-0.2,0.1c-0.1,0-0.2-0.1-0.2-0.2c0-0.1,0-0.2-0.1-0.3C73.2,56.7,73.2,56.6,73.2,56.5z
       M77.6,3.1L77.6,3.1L77.6,3.1L77.6,3.1z M74.3,20.6c0-0.1,0.1-0.1,0.2-0.1c0.1,0,0.1,0.1,0.1,0.2c0,0.1-0.1,0.1-0.2,0.1
      c0,0,0-0.1-0.1-0.1C74.3,20.6,74.3,20.6,74.3,20.6z M73.5,6.1L73.5,6.1L73.5,6.1L73.5,6.1z M73.4,46.2
      C73.4,46.2,73.4,46.2,73.4,46.2c0,0.1,0,0.1,0,0.1C73.3,46.3,73.3,46.3,73.4,46.2C73.3,46.2,73.3,46.2,73.4,46.2z M73.5,49.1
      C73.5,49.1,73.4,49.1,73.5,49.1C73.4,49,73.4,49,73.4,49c0-0.1,0-0.1-0.1-0.2c0,0,0,0,0,0l0,0c0,0,0,0,0,0c0,0,0,0,0,0
      c0-0.1-0.1-0.2,0-0.4c0,0,0-0.1,0.1-0.1c0.1,0,0.1,0,0.2,0.1c0,0,0,0.1,0,0.1c0,0,0,0.1,0,0.1c-0.1,0.1-0.1,0.1-0.2,0.2
      c0,0,0,0,0,0c0,0,0,0,0,0c0.1,0,0.2,0,0.2,0.1C73.6,48.9,73.6,49,73.5,49.1C73.6,49.1,73.5,49.1,73.5,49.1z M74.6,23
      c-0.1,0.2-0.3,0.2-0.4,0.1c-0.2-0.1-0.3-0.3-0.3-0.5c0-0.1,0.2-0.3,0.3-0.3c0,0,0.1,0,0.1,0C74.5,22.4,74.7,22.7,74.6,23z
       M74.8,7.8c0-0.1,0-0.1,0.1-0.2c0,0,0.1,0,0.1,0C75,7.7,75,7.7,75,7.8c0,0.1-0.1,0.1-0.1,0.1C74.8,7.9,74.8,7.9,74.8,7.8z
       M74.9,21.8c-0.1,0-0.1-0.1-0.1-0.2c0-0.1,0.1-0.2,0.2-0.1c0.1,0,0.1,0.2,0.1,0.3C75.1,21.8,75,21.9,74.9,21.8z M75.2,3
      c0,0,0-0.1,0-0.1c0-0.2,0-0.5,0-0.7c0-0.1,0-0.2,0-0.3c-0.1-0.4,0-0.8,0-1.2c0,0,0.1,0,0.1,0c0.1,0.2,0.3,0.3,0.2,0.6
      c0,0.1,0,0.3-0.1,0.4c0,0.1,0,0.3,0,0.4c0,0.2,0,0.4,0.1,0.6c0,0.1,0,0.2,0.1,0.3c0,0.1-0.1,0.2-0.2,0.2C75.3,3.3,75.2,3.1,75.2,3
      z M75.5,10C75.5,10,75.5,10,75.5,10c-0.2,0-0.2-0.1-0.2-0.1c0-0.1,0-0.1,0.1-0.1c0,0,0.1,0,0.1,0C75.6,9.8,75.6,9.9,75.5,10z
       M75.6,4.6c-0.1,0-0.1,0-0.2-0.1c-0.1-0.1-0.1-0.3-0.1-0.4c0-0.1,0.1-0.2,0.1-0.2c0,0,0.1,0,0.2,0.1c0.1,0.1,0.1,0.2,0.1,0.3
      C75.7,4.4,75.7,4.4,75.6,4.6C75.7,4.5,75.6,4.6,75.6,4.6z M75.7,8.1c-0.1-0.1-0.1-0.2,0-0.3c0-0.1,0.1-0.1,0.1-0.1
      c0.1,0,0.1,0,0.2,0.1c0,0.1,0.1,0.1,0.1,0.2c0,0.1-0.1,0.2-0.2,0.2C75.8,8.2,75.8,8.1,75.7,8.1z M76.9,25.5c0-0.1,0.1-0.1,0.2-0.1
      c0.1,0,0.1,0.1,0.1,0.2c0,0.2-0.1,0.3-0.2,0.3c0,0-0.1,0-0.1-0.1C76.9,25.7,76.9,25.6,76.9,25.5z M76.9,22.9c0-0.1,0-0.2,0-0.3
      c0,0,0.1,0,0.1,0c0.1,0,0.2,0.2,0.2,0.3c0,0.1-0.1,0.1-0.1,0.1C77,23.1,76.9,23,76.9,22.9z M77.1,21.4c-0.1,0-0.2-0.1-0.2-0.2
      c0-0.1,0-0.2,0-0.3c0-0.1,0-0.2,0.1-0.3c0,0,0,0,0.1-0.1c0,0,0.1,0,0.1,0c0.2,0.2,0.3,0.4,0.3,0.7C77.3,21.3,77.2,21.4,77.1,21.4z
       M76.7,11.1C76.7,11,76.7,11,76.7,11.1c0.1-0.1,0.2,0,0.2,0c0,0.1,0.1,0.3,0.1,0.4c0,0.1,0,0.1,0,0.1c0,0.1-0.1,0.1-0.1,0.1
      c-0.1,0-0.1,0-0.2-0.1C76.6,11.5,76.6,11.3,76.7,11.1z M76.6,17.9c0.1-0.2,0.2-0.4,0.2-0.6c0-0.1,0.2-0.1,0.2,0
      c0.1,0.1,0.1,0.2,0.1,0.3c0,0.1,0,0.2,0,0.4c0,0.3-0.1,0.7-0.1,1c0,0.1-0.1,0.1-0.1,0.1c0,0-0.1,0-0.1-0.1
      c-0.1-0.2-0.1-0.5-0.2-0.7C76.6,18.2,76.6,18.1,76.6,17.9z M76.6,31.9c0-0.1,0-0.1,0.1-0.1c0.3,0,0.5,0.1,0.5,0.4
      c0,0.2,0,0.3,0,0.5c0,0.2,0.1,0.4,0,0.6c0,0.1-0.1,0.1-0.2,0.1c0,0-0.1,0-0.1-0.1c-0.1-0.1-0.1-0.2-0.1-0.3c0-0.1,0-0.3,0-0.4
      c0-0.2,0-0.3-0.2-0.5C76.7,32.1,76.7,32.1,76.6,31.9z M77.2,41.7L77.2,41.7L77.2,41.7L77.2,41.7z M77.1,39.5L77.1,39.5L77.1,39.5
      L77.1,39.5z M77.3,41C77.3,41,77.2,41,77.3,41L77.3,41C77.2,41,77.2,41,77.3,41C77.2,41,77.2,41,77.3,41L77.3,41L77.3,41
      C77.2,41,77.2,40.9,77.3,41C77.3,40.9,77.3,40.9,77.3,41z M77.4,37.2c0,0.1-0.1,0.3-0.1,0.4c0,0.1-0.1,0.1-0.2,0.1
      c0,0-0.1-0.1-0.1-0.1c-0.2-0.6-0.2-1.2-0.2-1.8c0-0.4,0-0.8,0.2-1.1c0,0,0.1-0.1,0.1-0.1c0,0,0.1,0,0.1,0c0.1,0.1,0.2,0.2,0.2,0.4
      c0,0.4,0,0.8,0.1,1.2C77.4,36.5,77.4,36.9,77.4,37.2z M77.9,23.6C77.9,23.6,77.8,23.7,77.9,23.6c-0.1,0.1-0.1,0-0.2,0
      c0-0.1,0-0.1,0.1-0.1C77.8,23.5,77.9,23.5,77.9,23.6C77.9,23.5,77.9,23.6,77.9,23.6z M78.2,34.1c-0.1,0-0.1-0.1-0.1-0.1
      c0,0,0-0.1,0.1-0.1c0.1,0,0.1,0,0.2,0c0.1,0,0.1,0.1,0.1,0.1C78.5,34.1,78.4,34.2,78.2,34.1z M79.2,14.8c0,0.1-0.1,0.1-0.2,0.1
      c0,0-0.1,0-0.1-0.1c0-0.1,0-0.1,0-0.2c0,0,0.1,0,0.1,0c0,0,0.1,0,0.1,0C79.2,14.7,79.2,14.8,79.2,14.8z M79.4,25.5L79.4,25.5
      L79.4,25.5L79.4,25.5z M79.5,19.3L79.5,19.3L79.5,19.3L79.5,19.3z M89,25.2c0-0.1,0.1-0.2,0.2-0.2c0.1,0,0.2,0.1,0.2,0.2
      c0,0.1-0.1,0.2-0.2,0.2C89.1,25.4,89,25.3,89,25.2z M89.5,23.4c0-0.3-0.1-0.6,0-0.8c0-0.1,0-0.3-0.1-0.4c-0.1-0.2-0.1-0.3-0.1-0.5
      c0-0.1,0.2-0.2,0.3-0.2c0.1,0.1,0.2,0.2,0.2,0.3c0,0.1,0,0.2,0,0.3c0,0.1-0.1,0.2-0.1,0.3c0,0.1,0,0.1,0,0.2
      c0.1,0.2,0.2,0.5,0.2,0.7c0,0.2,0,0.4-0.1,0.6c0,0,0,0,0,0l0,0c0,0,0,0,0,0c-0.1,0-0.2,0.1-0.2,0.2c0,0.1-0.1,0.2-0.2,0.2
      c-0.1,0-0.1,0-0.2,0.1c-0.1,0-0.1-0.2,0-0.3c0,0,0-0.1,0.1-0.1c0.2-0.1,0.4-0.1,0.6-0.1c0,0,0,0,0,0c0,0,0,0,0,0
      C89.7,23.7,89.6,23.6,89.5,23.4z M89.9,28.4c0,0.1,0,0.2-0.1,0.3c0,0.1-0.2,0.1-0.3,0c-0.1-0.1-0.1-0.2-0.1-0.3
      c0-0.1,0.2-0.2,0.3-0.2C89.9,28.3,89.9,28.4,89.9,28.4z M89.4,30.9c-0.1,0-0.2,0-0.3-0.1c0-0.1,0-0.1-0.1-0.2c0-0.1,0-0.1,0.1-0.2
      c0.1,0,0.1,0,0.2,0c0.2,0,0.2,0.1,0.2,0.3C89.6,30.9,89.5,30.9,89.4,30.9z M90.2,57.2c-0.1,0-0.1,0-0.2,0
      c-0.3-0.1-0.4-0.5-0.2-0.8c0-0.1,0.1-0.1,0.2-0.1c0.2,0,0.4,0.1,0.5,0.3c0,0,0,0.1,0,0.1C90.5,56.9,90.4,57.1,90.2,57.2z
       M90.5,41.6c-0.1,0-0.2,0-0.3,0c-0.1-0.1-0.2-0.2,0-0.3c0.1-0.1,0.2-0.1,0.3-0.2c0.1-0.1,0.3,0.1,0.3,0.2
      C90.7,41.4,90.6,41.5,90.5,41.6z M90.4,36c0.1,0,0.2,0.2,0.1,0.3c-0.1,0.1-0.2,0.2-0.3,0.2c-0.1,0-0.1,0-0.2-0.1
      c-0.1-0.1-0.1-0.2-0.1-0.3c0-0.1,0-0.1,0.1-0.2C90.2,36,90.3,36,90.4,36z M88.4,18.1c0.1,0,0.3,0,0.4-0.1c0.1,0,0.2-0.1,0.2-0.2
      c0-0.1,0.1-0.2,0.1-0.3c0-0.1,0-0.3,0-0.4c0-0.1,0-0.2,0-0.3c-0.1-0.4,0.1-0.8,0.1-1.2c-0.1-0.4-0.1-0.7-0.1-1.1
      c0-0.2,0.1-0.3,0.1-0.5c0,0,0,0,0.1-0.1c0.1,0,0.1,0,0.1,0.1c0,0.1,0,0.1,0,0.2c0.1,0.3,0.2,0.6,0.1,0.9c0,0.1,0,0.3,0,0.4
      c0,0.2,0,0.4-0.1,0.5c0,0.1,0,0.1-0.1,0.2c-0.1,0.2,0,0.4,0,0.6c0.1,0.2,0.2,0.3,0.4,0.3c0,0,0,0,0,0c0,0,0,0,0,0c0,0,0,0,0,0
      c0-0.2-0.1-0.5-0.1-0.7c0-0.1,0.1-0.2,0.2-0.1c0.1,0.1,0.2,0.2,0.1,0.4C90.2,17,90,17.1,90,17.3c0,0,0,0,0,0
      c0.1,0.1,0.1,0.1,0.2,0.2c0.1,0.1,0.1,0.3,0,0.4c-0.2,0.2-0.2,0.5-0.4,0.8c-0.1,0.1-0.1,0.3-0.1,0.4c-0.1,0.5-0.2,1-0.1,1.5
      c0,0,0,0.1,0,0.1c0,0.1-0.1,0.1-0.1,0.1c-0.1,0-0.1,0-0.1-0.1c0-0.2,0-0.4,0-0.5c0-0.4-0.1-0.8-0.2-1.2c0-0.1-0.1-0.1-0.1-0.1
      c-0.2-0.1-0.4-0.1-0.6-0.3c-0.1,0-0.1-0.1-0.1-0.2C88.2,18.3,88.3,18.1,88.4,18.1z M82.3,25.6C82.4,25.6,82.4,25.6,82.3,25.6
      c0.2,0.1,0.4,0.1,0.5,0.2c0.1,0,0.1,0.1,0.2,0.3c0,0.1,0,0.2,0,0.3c0,0.1,0,0.2-0.1,0.3c-0.1,0.3-0.1,0.5,0,0.7
      c0.1,0.3,0,0.5-0.1,0.7c-0.1,0.1-0.2,0.1-0.3,0c0-0.1-0.1-0.1-0.1-0.2c0-0.1,0-0.3,0.1-0.4c0.1-0.2,0-0.3-0.1-0.5
      c-0.1-0.2-0.2-0.4-0.2-0.7c0-0.2-0.2-0.3-0.1-0.5C82.1,25.7,82.3,25.6,82.3,25.6z M82.5,32.5c0-0.2-0.1-0.3-0.2-0.5
      c-0.1-0.2-0.1-0.3,0-0.5c0.1-0.3,0.2-0.5,0.3-0.8c0-0.1,0.1-0.1,0.2-0.1c0.1,0,0.1,0,0.2,0.1c0,0.1,0.1,0.1,0.1,0.2
      c0,0.2,0.1,0.3,0.1,0.5c0,0.2,0,0.3-0.1,0.5c0,0.2,0,0.3,0,0.5c0.1,0.7,0.1,1.4,0,2.1c0,0.1-0.1,0.1-0.1,0.2c0,0.1-0.2,0.1-0.3,0
      c-0.1-0.1-0.1-0.2-0.1-0.3c0-0.1,0-0.2,0-0.3C82.6,33.5,82.5,33,82.5,32.5z M83.2,44c0,0.1-0.1,0.3-0.2,0.4c0,0-0.1,0-0.1,0
      c-0.1-0.6-0.1-1.3-0.1-1.9c0-0.1,0-0.1,0-0.2c0-0.1,0.1-0.1,0.1-0.1c0.1,0,0.1,0,0.2,0.1c0,0.1,0.1,0.1,0.1,0.2c0,0.2,0,0.4,0,0.6
      C83.3,43.3,83.2,43.7,83.2,44z M82.9,41C82.9,41,82.9,41,82.9,41C82.9,41,83,40.9,83,41c0,0,0,0.1,0,0.1C83,41.1,83,41.1,82.9,41
      C82.9,41.1,82.9,41.1,82.9,41z M83.6,36.1c-0.1,0-0.3,0-0.4,0c-0.1,0-0.1,0.1-0.1,0.1c0,0.1,0,0.1,0,0.2c0,0.1,0,0.2,0,0.3
      c0,0.1-0.1,0.1-0.1,0.2c0,0-0.1,0-0.2-0.1c0,0-0.1,0-0.1-0.1c-0.1-0.4,0-0.8,0.1-1.1c0-0.1,0.1-0.1,0.2-0.1c0.1,0,0.1,0.1,0.1,0
      c0.2,0.1,0.3,0.1,0.5,0.1c0,0,0.1,0.1,0.1,0.2C83.7,36,83.7,36,83.6,36.1z M84.9,36.4C84.9,36.4,84.8,36.4,84.9,36.4
      c-0.2,0-0.2,0-0.3,0c-0.1-0.1-0.2-0.2-0.1-0.3c0.1-0.1,0.2-0.2,0.3-0.1c0.1,0,0.2,0.1,0.2,0.2C85,36.2,84.9,36.3,84.9,36.4z
       M85.4,20c-0.1,0-0.1,0.1-0.2,0c-0.1,0-0.1-0.1-0.1-0.2c0-0.1,0.1-0.1,0.1-0.1C85.5,19.8,85.5,19.9,85.4,20
      C85.5,20,85.5,20,85.4,20z M86.3,27.3c-0.1,0-0.1,0-0.1-0.1c0,0,0-0.1,0-0.1c0-0.1,0.1-0.1,0.2-0.1c0.1,0,0.1,0.1,0.1,0.2
      C86.5,27.3,86.4,27.3,86.3,27.3z M86.2,26.3c-0.1,0.1-0.2,0.1-0.3,0c0-0.1,0-0.1-0.1-0.2c0-0.3,0.1-0.5,0.4-0.7c0.1,0,0.1,0,0.2,0
      c0.1,0,0.1,0.2,0.1,0.3C86.4,25.9,86.4,26.1,86.2,26.3z M88,27.6c0.1,0,0.1,0,0.2,0c0,0,0.1,0,0.1,0.1c0.1,0.1,0.1,0.2,0.1,0.3
      c0,0.1-0.1,0.2-0.2,0.2c-0.2,0-0.3-0.1-0.3-0.3C87.8,27.7,87.9,27.7,88,27.6z M88.1,29.9c-0.1,0-0.1-0.1-0.2-0.1c0,0,0-0.1,0-0.1
      c0-0.1,0.1-0.1,0.1-0.1c0.1,0,0.1,0,0.2,0.1c0.1,0,0.1,0.1,0,0.2C88.2,29.9,88.1,30,88.1,29.9z M88.2,34.1
      C88.2,34.1,88.1,34,88.2,34.1c-0.1-0.1,0-0.2,0.1-0.2c0.1,0,0.1,0,0.1,0.1c0,0,0,0.1-0.1,0.1C88.3,34.1,88.2,34.1,88.2,34.1z
       M86.7,60.2c0.1-0.1,0.2-0.1,0.4-0.1c0.2,0,0.3,0.2,0.3,0.4c0,0.2-0.1,0.3-0.3,0.4c-0.1,0-0.3-0.1-0.4-0.3c0,0,0-0.1,0-0.1
      C86.6,60.3,86.6,60.3,86.7,60.2z"/>
    <path class="st0" d="M53.2,8C53.2,7.9,53.2,7.9,53.2,8c-0.1-0.1-0.2-0.1-0.2,0c-0.2,0.1-0.4,0.3-0.6,0.5c-0.1,0.1-0.2,0.1-0.3,0.2
      l1.1,0.1c0,0,0,0,0.1,0C53.2,8.4,53.3,8.2,53.2,8z"/>
    <path class="st0" d="M82.2,6.8c0,0.1,0,0.3,0.1,0.4c0.1,0.2,0.1,0.5,0.3,0.7c0.1,0.1,0.1,0.3,0.2,0.4V0h-0.1c0,0,0,0.1,0,0.1
      c-0.1,0.1-0.2,0.1-0.2,0c0,0,0,0,0-0.1h-3.1c0,0.1,0,0.1,0.1,0.2c0.2,0.2,0.3,0.6,0.5,0.8C80,1,80,1.1,80,1.2
      c0.1,0.4,0.3,0.8,0.4,1.2c0,0.1,0.1,0.2,0.2,0.3c0.1,0.1,0.2,0.2,0.3,0.3c0.1,0.2,0.2,0.5,0.2,0.7c0,0.5,0.2,1,0.5,1.5
      c0,0.1,0.2,0.1,0.3,0.1c0.1,0,0.1,0,0.2,0c0,0,0.1,0.1,0.1,0.1c0,0.2,0,0.4,0,0.6C82.1,6.3,82.2,6.6,82.2,6.8z M81,0.2L81,0.2
      L81,0.2L81,0.2z M82.4,1.3C82.5,1.3,82.5,1.3,82.4,1.3c0.1,0.1,0,0.1,0,0.1C82.4,1.4,82.4,1.4,82.4,1.3
      C82.4,1.4,82.4,1.3,82.4,1.3z M82.1,4.3c-0.1,0-0.3-0.1-0.3-0.2c0-0.3,0.1-0.5,0.4-0.5c0.1,0,0.3,0,0.4,0.2c0,0,0,0.1,0,0.1
      c0,0.1,0,0.1-0.1,0.2C82.4,4.2,82.3,4.3,82.1,4.3z"/>
    <path class="st0" d="M79.1,0.3C79,0.3,79,0.4,79,0.5c0,0.1,0,0.1,0.1,0.1c0,0,0,0,0.1-0.1C79.2,0.5,79.2,0.4,79.1,0.3
      C79.1,0.4,79.1,0.3,79.1,0.3z"/>
  </g>
  <g>
    <path class="st0" d="M127.4,30.1C127.4,30.2,127.4,30.2,127.4,30.1C127.4,30.2,127.4,30.2,127.4,30.1
      C127.4,30.2,127.4,30.2,127.4,30.1z"/>
    <path class="st0" d="M146,31.4C146,31.4,146,31.4,146,31.4C146,31.4,146,31.4,146,31.4C146,31.4,146,31.4,146,31.4z"/>
    <path class="st0" d="M126.4,42.7C126.4,42.7,126.4,42.7,126.4,42.7C126.4,42.7,126.4,42.7,126.4,42.7
      C126.4,42.7,126.4,42.7,126.4,42.7C126.4,42.7,126.4,42.7,126.4,42.7z"/>
    <polygon class="st0" points="127.3,30.2 127.3,30.2 127.3,30.2     "/>
    <path class="st0" d="M127.5,29.4C127.5,29.4,127.5,29.4,127.5,29.4C127.5,29.4,127.5,29.4,127.5,29.4
      C127.5,29.4,127.5,29.4,127.5,29.4z"/>
    <path class="st0" d="M127.5,29.4C127.5,29.4,127.5,29.4,127.5,29.4C127.5,29.4,127.5,29.4,127.5,29.4
      C127.5,29.4,127.5,29.4,127.5,29.4z"/>
    <path class="st0" d="M146.2,31.6C146.2,31.6,146.2,31.6,146.2,31.6L146.2,31.6C146.2,31.6,146.2,31.6,146.2,31.6z"/>
    <path class="st0" d="M127.4,30.1C127.4,30.1,127.4,30.1,127.4,30.1C127.4,30.1,127.4,30.1,127.4,30.1z"/>
    <path class="st0" d="M159.2,4.4c-2.8-2.2-6.2-3.5-10.2-4.1c0,0.1,0,0.2,0,0.2c0,0.4,0.1,0.7,0.1,1.1c0,0.3,0,0.6,0.1,0.8
      c0.1,0.3,0.1,0.7,0.1,1.1c0,0.2,0,0.4-0.1,0.6c-0.1,0.2-0.1,0.4-0.1,0.6c0.1,0.5,0.1,1.1,0.2,1.6c0,0.2,0,0.5,0,0.7
      c0,0.3,0,0.6-0.1,0.9c0,0.1,0,0.3,0,0.4c0,0.7,0,1.4,0,2c0,0.1,0,0.3,0,0.4c0,0.7,0,1.4,0,2.1c0,0.1,0,0.3-0.1,0.4
      c0,0.1-0.1,0.3,0,0.4c0.1,0.2,0.1,0.5,0.1,0.7c0,0.2,0,0.4,0,0.6c0,0.2,0,0.4,0.1,0.5c0.1,0.2,0.1,0.4,0.1,0.6
      c0,0.1,0,0.1-0.1,0.2c0,0,0,0,0,0c0.1,0.8,0.2,1.6,0.2,2.4c0,0.9-0.1,1.9-0.4,3.1c-0.2,1-0.7,2-1.4,3c-0.3,0.5-0.8,0.9-1.3,1.4
      c0,0.3,0.1,0.6,0.1,0.9c0,0.3,0,0.6-0.1,0.8c0,0.1-0.2,0.2-0.3,0.1c0,0-0.1,0-0.1-0.1c0-0.1-0.1-0.2-0.1-0.3c0-0.3,0-0.7,0-1
      c-0.3,0.2-0.7,0.4-1.1,0.6c-1.4,0.7-3.3,1-5.8,1h-1.2V9.1h2.8c1.9,0,3.4,0.3,4.5,0.8c1.1,0.5,1.9,1.2,2.6,2
      c0.5,0.7,0.9,1.4,1.2,2.3c0-0.2,0-0.4,0-0.6c0-0.3,0-0.6-0.1-1c0-0.2,0-0.4,0-0.5c0.1-0.6,0-1.1,0-1.7c0-0.2,0-0.4-0.1-0.5
      c-0.1-0.7-0.1-1.1-0.1-1.8c0-0.4,0-0.7,0-1.1c0-0.2-0.1-0.4,0-0.5c0-0.1,0-0.3-0.1-0.4c-0.2-0.3-0.1-0.7-0.1-1.1
      c0.1-0.4,0-0.8,0.1-1.2c0-0.4,0-0.7,0.1-1.1c0-0.2,0-0.4,0-0.5c-0.1-0.3-0.1-0.6,0-1c0.1-0.3,0.1-0.6,0.1-1c0,0,0,0,0-0.1
      c-1.3-0.2-2.7-0.3-4.1-0.3h-3.6c0,0,0.1,0.1,0.1,0.2c0,0.1,0,0.1,0,0.2c0,0.1,0,0.1,0,0.1c0,0.3,0,0.4,0,0.5
      c0,0.1-0.1,0.1-0.1,0.1c-0.1,0-0.1,0-0.2-0.1c0-0.1-0.1-0.1-0.1-0.2c0-0.3,0-0.5,0.1-0.7c0,0,0-0.1,0.1-0.1h-14.3
      c0,0.1,0,0.3-0.1,0.4c0,0,0,0.1-0.1,0.1c0,0-0.1,0-0.1,0c0-0.1-0.1-0.1-0.1-0.2c0-0.1,0-0.1,0-0.2h-10.5v8.4l2.7,0.2
      c0.7,0,1.5,0.1,2.4,0.3c0.8,0.1,1.7,0.3,2.4,0.6c0.1,0,0.2,0.1,0.2,0.1c0.1,0.4,0.2,0.9,0.2,1.4v16.4l-4.1,2c0,0,0,0,0,0.1
      c0,0.5,0,1,0,1.5c0,0,0,0.1,0,0.1l4.2,2.2v18.9c0,0.8-0.1,1.1-0.2,1.2c-0.1,0.1-0.2,0.2-0.4,0.3c0,0-0.4,0.2-1.7,0.3
      c-1.2,0.1-2.1,0.2-2.7,0.3l-2.6,0.2v8.4h11.1c0-0.1,0-0.2,0-0.3c0,0,0,0,0.1-0.1c0,0,0.1,0,0.1,0c0.1,0.1,0.1,0.2,0.1,0.4h2.3
      c-0.1-0.1-0.1-0.2-0.1-0.3c0-0.1,0-0.1,0-0.2c0-0.2,0.1-0.3,0.3-0.2c0.1,0,0.2,0.1,0.3,0.1c0.1,0,0.1,0.1,0.1,0.3
      c0,0.1,0,0.2,0,0.3c0,0,0,0.1,0,0.1h16.2v-8.6l-2.8-0.1c-0.9,0-1.9-0.1-3.1-0.3c-1.5-0.2-1.9-0.3-1.9-0.4
      c-0.2-0.1-0.3-0.1-0.3-0.2c-0.1-0.3-0.2-0.7-0.2-1.2V37.8h0.6c0-0.1,0.1-0.2,0.2-0.3c0.1-0.1,0.2-0.1,0.3,0c0,0.1,0.1,0.2,0.1,0.3
      c0,0,0,0,0,0.1h2.3c1.5,0,3-0.1,4.4-0.3c0-0.2,0-0.3,0-0.5c0-0.1,0-0.2,0-0.3c0.2-0.4,0.1-0.8,0.1-1.2c0-0.4,0-0.8,0-1.2
      c0-0.1,0-0.2,0-0.3c0-0.4,0-0.8,0-1.2c0-0.3-0.1-0.6,0-0.9c0-0.1,0.1-0.2,0.2-0.1c0.3,0.1,0.4,0.3,0.4,0.6c0,0.1,0,0.1,0,0.2
      c0,0.1,0,0.2-0.1,0.3c-0.1,0.2-0.1,0.5,0,0.7c0.1,0.4,0.1,0.8,0.1,1.2c0,0.2,0,0.4,0,0.6c0,0.3-0.1,0.6-0.1,0.8c0,0.2,0,0.4,0,0.5
      c0,0.2,0,0.3,0,0.5c1.2-0.2,2.3-0.4,3.4-0.7c2.8-0.8,5.3-2.1,7.6-3.7c2.4-1.8,4.4-4,5.7-6.7c1.4-2.7,2.1-5.8,2.1-9.2
      C165.3,11.8,163.2,7.6,159.2,4.4z M140.8,8.8C140.8,8.8,140.8,8.7,140.8,8.8c-0.1-0.1,0-0.1,0-0.1C140.9,8.7,140.9,8.7,140.8,8.8
      C140.9,8.7,140.9,8.8,140.8,8.8z M140.7,1.7c0.1,0,0.1,0,0.2,0.1c0,0.1,0,0.1,0.1,0.2c0,0.1,0,0.1,0,0.2c0,0,0,0.1-0.1,0.1
      c-0.1,0-0.1,0-0.2-0.1C140.6,2,140.6,1.8,140.7,1.7z M116,7.8c0,0.1-0.1,0.1-0.2,0.1c-0.1,0-0.2-0.1-0.2-0.2
      c0-0.1,0.1-0.2,0.2-0.2C116.1,7.6,116.1,7.7,116,7.8z M117.1,55.3c0,0.1-0.1,0.1-0.1,0.2c-0.1,0.1-0.1,0.2-0.2,0
      c-0.1-0.1-0.1-0.2-0.2-0.4c-0.1-0.1,0-0.3,0-0.4c0-0.1,0.1-0.1,0.2-0.1c0.2,0.1,0.3,0.2,0.4,0.4C117.1,55.1,117.1,55.2,117.1,55.3
      z M146,59.2C146,59.2,146,59.3,146,59.2c0.1,0.1,0.1,0.2,0,0.2c0,0-0.1,0-0.1-0.1C145.9,59.3,145.9,59.3,146,59.2z M129.9,4.5
      C129.9,4.5,130,4.6,129.9,4.5c0.1,0.1,0,0.2,0,0.2c0,0-0.1,0-0.1-0.1C129.8,4.6,129.9,4.5,129.9,4.5z M129.5,3.5
      c0.1,0,0.1,0,0.2,0.1c0.1,0.2,0.1,0.2,0,0.2c-0.1,0-0.1,0-0.2,0c0,0-0.1,0-0.1-0.1C129.3,3.7,129.4,3.5,129.5,3.5z M128.4,9.2
      c0.1-0.1,0.2-0.2,0.3-0.3c0.2-0.1,0.5,0,0.5,0.2c0,0.1,0.1,0.1,0.1,0.2c0,0.1,0,0.3,0.1,0.3c0,0.2-0.1,0.4-0.2,0.4
      c-0.1,0.1-0.2,0-0.3,0c-0.2-0.2-0.3-0.4-0.5-0.7C128.3,9.4,128.3,9.3,128.4,9.2z M126.7,37.9c-0.1,0-0.1,0-0.2-0.1
      c-0.2-0.2-0.2-0.4-0.1-0.6c0.1-0.2,0.2-0.3,0.4-0.3c0.1,0,0.2,0,0.2,0.1c0.1,0.1,0.2,0.2,0.2,0.4C127.2,37.7,127,38,126.7,37.9z
       M126.9,41.2c-0.1,0.2-0.3,0.2-0.5,0.3c-0.1,0-0.1,0-0.2-0.1c-0.2-0.2-0.2-0.6,0-0.8c0.1-0.1,0.3-0.1,0.4-0.1
      c0.2,0.1,0.3,0.3,0.4,0.5C127,41.1,126.9,41.1,126.9,41.2z M127.8,50.7c0.1,0.1,0.3,0.1,0.4-0.1c0.2-0.3,0.4-0.5,0.6-0.7
      c0.1-0.1,0.2,0,0.3,0.1c0,0.1,0.1,0.1,0.1,0.2c0.1,0.1,0.1,0.2,0.1,0.3c-0.1,0.2-0.1,0.4-0.2,0.6c0,0.1-0.1,0.2-0.3,0.3
      c-0.2,0.1-0.4,0.2-0.7,0.3c-0.2,0.1-0.3,0.1-0.5,0.1c-0.2,0-0.3,0.1-0.5,0.1c-0.1,0-0.1,0-0.2,0c-0.1,0-0.1-0.1-0.2-0.1
      c-0.1-0.3,0-0.6-0.1-1c0-0.3-0.1-0.6,0-0.8c0-0.1,0.1-0.1,0.2-0.1c0,0,0.1,0,0.1,0c0.1,0,0.2,0.1,0.2,0.2
      C127.3,50.3,127.5,50.5,127.8,50.7z M128,42.4C128,42.4,128,42.4,128,42.4C128,42.4,128,42.4,128,42.4C128,42.4,128,42.4,128,42.4
      c0.1,0,0.1,0,0.2,0c0.1,0,0.1,0,0.2,0.1c0,0.1,0,0.1,0,0.2c0,0.1-0.1,0.1-0.1,0.1c0,0-0.1,0-0.1-0.1
      C128.1,42.5,128.1,42.4,128,42.4L128,42.4C128,42.4,128,42.4,128,42.4C128,42.4,128,42.4,128,42.4c0-0.1,0-0.3,0-0.4c0,0,0,0,0,0
      c0,0,0,0,0,0l0,0c0,0,0-0.1,0-0.1c-0.1-0.2-0.2-0.4-0.3-0.7c0,0,0-0.1,0-0.1c0-0.1,0.1-0.1,0.2-0.1c0,0,0.1,0,0.1,0
      c0,0.2,0.1,0.4,0.2,0.6c0,0.1,0,0.2-0.1,0.3c0,0-0.1,0-0.1,0.1c0,0,0,0,0,0C128,42.1,128,42.2,128,42.4z M128.4,46
      c0,0.2-0.1,0.4-0.3,0.5c-0.1,0-0.2,0-0.2,0c-0.1-0.2-0.2-0.5-0.1-0.7c0-0.1,0.1-0.3,0.1-0.4c0,0,0-0.1,0.1-0.1c0.1,0,0.1,0,0.2,0
      c0.1,0.1,0.1,0.2,0.2,0.3C128.4,45.7,128.4,45.9,128.4,46z M128.3,37.2c0,0.2,0,0.4-0.1,0.5c-0.1,0.2-0.1,0.4,0,0.6
      c0.1,0.3,0.1,0.6,0,0.8c0,0.2-0.1,0.3-0.1,0.5c0,0.2-0.1,0.4-0.1,0.6c0,0.1-0.1,0.1-0.1,0.1c-0.1,0-0.1,0-0.2-0.1
      c0-0.1-0.1-0.1-0.1-0.2c0-0.2,0-0.4,0-0.6c0-0.1,0-0.2,0-0.3c0.1-0.3,0.1-0.7,0.1-1.1c0-0.4,0-0.7,0-1.1c0-0.1,0-0.1,0-0.2
      c0-0.1,0.2-0.2,0.2-0.2C128.1,36.8,128.3,37,128.3,37.2z M127.5,6.6c0.1,0,0.2,0.1,0.1,0.2c0,0.1-0.1,0.2-0.2,0.1
      c-0.1-0.1-0.2-0.1-0.2-0.2C127.3,6.6,127.4,6.6,127.5,6.6z M127.2,22.4C127.2,22.4,127.2,22.4,127.2,22.4c0.2,0.1,0.3,0.2,0.2,0.3
      c0,0-0.1,0.1-0.2,0.1c-0.1,0-0.2,0-0.2-0.2C127,22.5,127.1,22.4,127.2,22.4z M127,24c0-0.1,0.1-0.1,0.2-0.1c0.1,0,0.1,0.1,0.1,0.1
      c0,0.2,0.1,0.3,0.1,0.5c0,0.2,0,0.3,0.1,0.5c0,0.1,0,0.3,0,0.4c0,0.1,0.1,0.3,0.1,0.4c0,0.1,0,0.2-0.1,0.3c0,0-0.1,0-0.1,0
      c-0.2,0.1-0.3,0-0.3-0.2c0-0.1,0-0.1,0-0.2c0-0.2,0-0.4-0.1-0.5c0,0,0-0.1,0-0.2c0-0.1,0-0.3,0-0.4C126.7,24.4,126.8,24.2,127,24z
       M127.4,28.6c0,0.1,0,0.1-0.1,0.1c0,0-0.1,0-0.1-0.1c0-0.1,0-0.1,0.1-0.2C127.4,28.5,127.4,28.5,127.4,28.6z M126.2,33.5
      c0.1,0,0.2-0.1,0.2-0.2c0-0.1,0.1-0.3,0.2-0.4c0.1-0.1,0.2-0.3,0.3-0.5c0.1-0.1,0.1-0.3,0.1-0.4c0-0.1,0-0.2,0.1-0.3
      c0.1-0.3,0.1-0.5-0.1-0.8c-0.1-0.3,0-0.6,0.2-0.8c0.1-0.1,0.2-0.1,0.2,0c-0.1-0.1-0.1-0.1,0-0.2c0,0,0,0,0,0c0-0.1,0-0.2,0-0.2
      c0-0.1,0.1-0.2,0.1-0.3c0,0,0,0,0,0c0,0,0,0,0.1,0c0,0,0,0,0,0c0,0,0,0,0,0l0,0c0,0,0,0.1,0,0.1c0,0,0,0.1,0,0.1
      c-0.1,0.1-0.2,0.2-0.2,0.4c0,0,0,0,0,0c0,0,0,0,0,0c0,0,0,0,0,0c0.1,0,0.2,0,0.3,0c0.1,0,0.1,0,0.1,0.1c0,0.1,0,0.2,0,0.3
      c-0.1,0.3-0.1,0.7-0.1,1.1c0,0,0,0.1,0,0.1c0.1,0.2,0,0.3-0.1,0.5c0,0.1-0.1,0.1-0.1,0.2c0,0.1,0,0.1,0,0.2c0,0.3,0.1,0.5,0.2,0.7
      c0,0.3,0,0.5,0.1,0.7c0.1,0.2,0.1,0.4,0.1,0.5c0,0.2,0,0.4-0.1,0.5c0,0.1-0.1,0.1-0.1,0.2c-0.3,0.3-0.3,0.6-0.1,1
      c0,0.1,0.1,0.1,0.1,0.2c0,0.1,0,0.1-0.1,0.2c0,0-0.1,0-0.1,0c0,0-0.1,0-0.1,0c-0.1-0.2-0.4-0.3-0.5-0.5c-0.1-0.1-0.1-0.2-0.2-0.2
      c-0.1-0.1-0.3-0.1-0.4-0.1c-0.1,0-0.2,0.1-0.3,0.2c-0.1,0.1-0.1,0.2-0.1,0.4c0,0.1,0,0.2-0.1,0.3c-0.1,0.1-0.3,0.2-0.4,0.1
      c-0.1-0.2-0.2-0.4-0.2-0.6c0-0.1,0-0.2,0-0.2c0.2-0.3,0.2-0.7,0.4-1c0.1-0.1,0.1-0.2,0.2-0.4c0-0.2,0-0.4,0.1-0.5
      c0-0.1,0.1-0.2,0.2-0.2C126,33.6,126.1,33.6,126.2,33.5z M125.5,33.6c0,0.1,0,0.1-0.1,0.2c0,0-0.1,0-0.1,0c0,0-0.1,0-0.1-0.1
      c-0.1-0.2,0-0.4,0-0.6c0-0.2-0.1-0.3-0.2-0.3c-0.1,0-0.1-0.1-0.1-0.1c0-0.1,0-0.2,0.1-0.3c0.1-0.1,0.2-0.1,0.3-0.2
      c0,0,0.1,0,0.1,0c0,0,0.1,0,0.1,0c0.1,0.2,0.3,0.4,0.1,0.7C125.4,33.1,125.5,33.4,125.5,33.6z M123.1,1.6c0.1,0,0.1,0,0.2,0.1
      c0,0.1,0.1,0.1,0.1,0.2c0,0.1,0,0.1-0.1,0.2c-0.1,0.1-0.1,0-0.2,0c0-0.1-0.1-0.1-0.1-0.2C123.1,1.7,123.1,1.7,123.1,1.6z
       M121.9,2.7c-0.1-0.1-0.1-0.2-0.1-0.3c0-0.1,0.1-0.2,0.2-0.2c0.1,0,0.2,0.1,0.2,0.2C122.2,2.5,122.2,2.7,121.9,2.7
      C122,2.7,122,2.7,121.9,2.7z M122.3,3.7c-0.1,0-0.2,0-0.2-0.2c0-0.1,0-0.2,0.1-0.2c0,0,0.1,0,0.1,0c0.1,0.1,0.1,0.2,0.1,0.3
      C122.4,3.6,122.4,3.6,122.3,3.7z M123.9,5.5c-0.1,0-0.1,0.1-0.2,0.1c-0.2,0.1-0.5,0-0.5-0.2c0-0.1-0.1-0.3-0.1-0.4
      c-0.1-0.2-0.1-0.4,0-0.5c0-0.1,0.1-0.2,0.2-0.2c0.1-0.1,0.3-0.1,0.4,0c0.1,0.1,0.2,0.2,0.3,0.3c0.1,0.1,0.2,0,0.3-0.1
      c0.1-0.2,0.2-0.4,0.4-0.5c0.1-0.1,0.2-0.1,0.2-0.2c0-0.3,0.2-0.5,0.3-0.7c0.1-0.1,0.1-0.3,0.1-0.4c0-0.2-0.1-0.4-0.1-0.6
      c0-0.1-0.2-0.2-0.3-0.2c-0.1,0.1-0.3,0.1-0.4,0.2c-0.2,0.1-0.4,0-0.5-0.1c-0.1-0.1-0.1-0.3,0-0.4c0.1-0.2,0.2-0.3,0.4-0.4
      c0.1-0.1,0.2-0.2,0.1-0.4c0-0.1-0.1-0.3-0.1-0.4c0,0,0-0.1,0.1-0.1c0.2-0.1,0.3-0.1,0.5-0.1c0.1,0,0.2,0,0.3,0
      c0.1,0.2,0.1,0.3,0.2,0.5c0,0.1,0.1,0.3,0.1,0.4c0.1,0.2,0.2,0.4,0.2,0.6c0,0.4,0.1,0.7,0.1,1.1c0,0.3,0,0.5,0.1,0.7
      c0.1,0.3,0.1,0.5-0.1,0.7c-0.1,0.3-0.3,0.5-0.6,0.6c-0.3,0.2-0.6,0.4-1,0.4C124.1,5.3,124,5.4,123.9,5.5z M124.5,3.1
      C124.5,3.1,124.5,3.1,124.5,3.1c0.1,0,0.1,0,0.1,0C124.6,3.1,124.6,3.2,124.5,3.1C124.5,3.2,124.5,3.1,124.5,3.1z M124.8,39.9
      C124.7,39.9,124.7,39.9,124.8,39.9c-0.1-0.1-0.2-0.1-0.3-0.2c-0.1-0.1-0.2-0.2-0.1-0.4c0-0.1,0-0.1,0.1-0.2
      c0.1-0.1,0.1-0.3,0.1-0.4c-0.1-0.4-0.1-0.8-0.1-1.2c0-0.1,0.1-0.2,0.2-0.2c0,0,0.1,0,0.1,0c0.1,0,0.2,0,0.3,0
      c0.1,0,0.2,0.1,0.2,0.2c0.1,0.3,0.1,0.6,0.1,0.8c0,0.1,0,0.2,0,0.2c-0.2,0.3-0.1,0.5,0,0.8c0.1,0.3,0.1,0.6,0,0.8
      c-0.1,0.1,0,0.3,0,0.4c0.1,0.1,0.1,0.2,0.1,0.3c0,0.1,0,0.1,0,0.2c0,0.1,0,0.1-0.1,0.2c-0.1,0-0.1,0-0.2,0
      c-0.1-0.1-0.2-0.2-0.2-0.3c0-0.1,0-0.1,0-0.2C125.1,40.4,125,40.1,124.8,39.9z M125.5,46.9c0,0.1,0,0.1-0.1,0.2c0,0-0.2,0-0.3-0.1
      c0-0.1-0.1-0.1-0.1-0.2c0-0.1,0-0.2,0-0.2c0-0.4,0.1-0.5,0.3-0.7c0,0,0.1,0,0.1,0c0.1,0,0.1,0.1,0.1,0.1
      C125.5,46.3,125.6,46.6,125.5,46.9z M125.9,49.5c-0.2,0-0.3-0.1-0.2-0.3c0,0,0-0.1,0-0.1c0-0.1,0.1-0.2,0.2-0.2
      c0.1,0,0.2,0.1,0.2,0.2c0,0.1,0,0.1,0,0.2C126.1,49.4,126,49.5,125.9,49.5z M125.8,43.7c0,0.1,0,0.2,0,0.3c0,0.1,0,0.1-0.1,0.2
      c0,0-0.1,0.1-0.2,0.1c-0.1,0-0.1,0-0.2-0.1c-0.1-0.4-0.1-0.8-0.1-1.2c0-0.4,0-0.7,0-1.1c0-0.1,0.2-0.3,0.3-0.2
      c0.1,0,0.1,0,0.2,0.1c0.2,0.1,0.4,0.2,0.6,0.1c0.1,0,0.2,0,0.2,0.1c0.1,0.1,0,0.2,0,0.3c0,0.1-0.1,0.1-0.1,0.2c0,0,0,0.1,0,0.1
      c0.1,0,0.3,0,0.4,0.1c0.2,0.1,0.3,0.4,0.2,0.6c0,0.1-0.1,0.1-0.1,0.2c-0.1,0.1-0.2,0.1-0.3,0.1c-0.1-0.1-0.3-0.1-0.4-0.2
      C126,43.5,125.8,43.6,125.8,43.7z M126.5,48.3c0.1,0,0.2,0,0.3,0.1c0,0.1,0,0.1,0,0.2c0,0.1-0.1,0.1-0.2,0.1
      c-0.2-0.1-0.2-0.1-0.2-0.2C126.4,48.4,126.4,48.3,126.5,48.3z M128.4,55.5c-0.1,0-0.2,0-0.3,0c-0.1,0-0.2,0-0.3,0.1
      c-0.1,0.1-0.2,0.3-0.3,0.4c-0.1,0.1-0.1,0.2-0.1,0.3c0,0.2,0.1,0.3,0.1,0.5c0,0.1,0,0.2,0,0.3c0,0.3-0.1,0.6,0,0.8
      c0.1,0.3,0,0.6,0,0.8c0,0.1-0.1,0.3-0.1,0.4c0,0.2,0,0.4,0.2,0.6c0.1,0.1,0.1,0.2,0.1,0.3c-0.1,0.2-0.3,0.3-0.4,0.5
      c-0.1,0.1-0.1,0.3-0.2,0.5c-0.1,0.1-0.2,0.1-0.3,0c-0.1,0-0.1-0.1-0.1-0.2c0-0.1-0.1-0.1-0.1-0.2c0-0.3,0.1-0.6,0.2-0.8
      c0-0.1,0.1-0.1,0.1-0.2c0.1-0.1,0.2-0.1,0.2-0.2c0.1-0.1,0.1-0.1,0-0.2c-0.1-0.1-0.2-0.1-0.3-0.3c-0.1-0.2-0.2-0.4-0.3-0.5
      c-0.1-0.1-0.1-0.3,0-0.4c0,0,0-0.1,0-0.1c0.4-0.5,0.3-0.7,0.1-1.1c0-0.1,0-0.2,0-0.3c0.2-0.3,0.2-0.5,0.1-0.8c0-0.1,0-0.2,0-0.3
      c0,0,0-0.1,0-0.1c0-0.2,0.2-0.3,0.4-0.3c0.1,0,0.3,0,0.4,0.1c0.2,0.1,0.3,0,0.5,0c0.2-0.1,0.3,0,0.3,0.2
      C128.5,55.4,128.4,55.5,128.4,55.5z M129.4,59.1c-0.1,0.1-0.1,0-0.2,0c0,0,0-0.1-0.1-0.1c-0.1-0.2,0-0.4,0.1-0.6
      c0,0,0.1-0.1,0.2-0.1c0.1,0,0.1,0.1,0.1,0.2C129.5,58.7,129.5,58.9,129.4,59.1z M129.4,57.8c-0.1,0.1-0.2,0.1-0.3,0
      c-0.3-0.3-0.5-0.6-0.7-1.1c0.1-0.1,0.2-0.2,0.3-0.3c0.1-0.1,0.2-0.1,0.3,0c0.1,0.1,0.2,0.1,0.3,0.2
      C129.7,56.9,129.9,57.4,129.4,57.8z M129.8,60.5c-0.1,0-0.1,0-0.2-0.1c0,0,0-0.1,0-0.1c0.1-0.1,0.2-0.2,0.3-0.2c0,0,0,0.1,0,0.1
      C130,60.3,129.9,60.4,129.8,60.5z M130,56.4C129.9,56.4,129.9,56.4,130,56.4c-0.2,0-0.3-0.1-0.3-0.2c0-0.1,0-0.1,0.1-0.2
      c0,0,0.1,0,0.1,0c0.1,0,0.2,0.1,0.2,0.2C130.1,56.3,130,56.3,130,56.4z M130.1,60.8L130.1,60.8L130.1,60.8L130.1,60.8z M130,44.9
      c-0.1,0-0.1,0-0.2,0c-0.2,0-0.3-0.1-0.4-0.3c-0.1-0.1-0.1-0.3-0.1-0.4c0,0,0-0.1,0-0.1c0,0,0-0.1,0-0.1c0-0.2,0-0.3-0.2-0.3
      c-0.1,0-0.1-0.1-0.2-0.1c0-0.1-0.1-0.1-0.1-0.2c0-0.1,0-0.1,0.1-0.2c0.1,0,0.1,0,0.2,0c0.2,0.2,0.4,0.3,0.6,0.3
      c0.1,0,0.3,0.1,0.4,0.1c0.1,0,0.2,0.1,0.3,0.3c0,0,0,0.1,0,0.1C130.5,44.5,130.3,44.8,130,44.9z M131.1,32.5
      C131,32.5,131,32.5,131.1,32.5c-0.2-0.1-0.3-0.4-0.3-0.6c0,0,0-0.1,0-0.1c0.1-0.1,0.2-0.1,0.3,0C131.3,32,131.3,32.3,131.1,32.5z
       M133.3,13.5c0,0.1-0.1,0.1-0.2,0.1c-0.1-0.1-0.1-0.1-0.1-0.2c0-0.1,0.1-0.1,0.2-0.1C133.3,13.4,133.3,13.4,133.3,13.5z M134,9.7
      c-0.2,0.1-0.4,0-0.5-0.2c0,0,0-0.1,0-0.1c0-0.2,0.1-0.4,0.4-0.4c0.2,0,0.4,0.2,0.4,0.4C134.3,9.4,134.1,9.6,134,9.7z M134.7,22.3
      c-0.2,0.1-0.3,0-0.4-0.1c0-0.1-0.1-0.2,0-0.3c0-0.1,0.1-0.1,0.1-0.1c0,0,0.1,0,0.1,0c0.1,0,0.2,0.1,0.3,0.3
      C134.8,22.2,134.8,22.3,134.7,22.3z M134.8,18.9c-0.1,0-0.1-0.1-0.1-0.1c0,0,0-0.1,0.1-0.1c0.1-0.1,0.2,0,0.3,0.1c0,0,0,0.1,0,0.1
      C135,18.9,134.9,18.9,134.8,18.9z M136.7,20.6C136.7,20.7,136.6,20.7,136.7,20.6c-0.2,0-0.2-0.1-0.1-0.1c0,0,0.1,0,0.1,0
      C136.7,20.5,136.7,20.6,136.7,20.6z M136.8,12c-0.1,0-0.1,0-0.1-0.1c0,0,0.1,0,0.1,0C136.9,11.9,136.9,11.9,136.8,12
      C136.9,11.9,136.9,12,136.8,12z M139.2,35.8c-0.1,0.3-0.2,0.5-0.2,0.8c0,0.1-0.1,0.1-0.1,0.1c-0.1,0-0.1,0-0.2-0.1
      c0,0,0-0.1,0-0.1c0-0.2,0-0.4,0-0.5c0-0.2,0-0.5-0.1-0.7c0,0,0-0.1,0-0.1c0.1-0.1,0.2-0.1,0.3,0c0.1,0.1,0.2,0.3,0.3,0.4
      C139.1,35.7,139.2,35.8,139.2,35.8z M143.7,28.7C143.7,28.7,143.7,28.8,143.7,28.7c-0.1,0.1-0.2,0-0.2,0c0-0.1,0-0.1,0-0.2
      c0,0,0.1,0,0.1,0C143.7,28.4,143.8,28.6,143.7,28.7z M146.5,30.9c0,0.2-0.1,0.3-0.2,0.3c-0.1,0.1-0.2,0.1-0.2,0.2c0,0,0,0,0,0
      c0,0,0,0,0,0c0.1,0,0.1,0,0.1,0.2c0,0,0,0,0,0l0.1,0c0,0-0.1,0-0.1,0c0,0,0,0,0,0c0,0,0,0,0,0l0,0c0,0,0,0,0,0
      c-0.1-0.1-0.1-0.1-0.2-0.2c0,0,0,0,0,0l0,0c0-0.1-0.1-0.1-0.1-0.2c0-0.3,0-0.6,0-1c0-0.2,0.1-0.3,0.2-0.5c0.1-0.1,0.1-0.1,0.2-0.1
      c0.1,0,0.1,0,0.2,0.1c0,0.1,0.1,0.2,0.1,0.3C146.5,30.4,146.5,30.6,146.5,30.9z M156.2,12.3c0-0.1,0.1-0.1,0.2-0.1
      c0,0,0,0.1,0,0.1c0,0.1,0,0.1,0,0.2c0,0.1,0,0.2-0.1,0.3c0,0.1-0.1,0.1-0.2,0.1c0,0-0.1,0-0.1-0.1c0-0.1-0.1-0.1-0.1-0.2
      C156,12.6,156.1,12.4,156.2,12.3z M156.1,15.2C156.1,15.2,156,15.2,156.1,15.2c0-0.1,0-0.1,0-0.1
      C156.2,15.2,156.2,15.2,156.1,15.2z M150.2,9.9c-0.1,0.4,0,0.8-0.1,1.2c0,0,0,0.1,0,0.1c0,0-0.1-0.1-0.1-0.1
      c-0.1-0.3-0.2-0.6-0.2-0.9c0-0.5,0-1,0-1.6c-0.1-0.5,0-1.1,0-1.7c0-0.2,0.1-0.3,0.3-0.2c0.1,0,0.1,0.1,0.2,0.1
      c0.1,0.2,0.2,0.5,0.2,0.7c0,0.4,0,0.8,0,1.2C150.3,9.1,150.3,9.5,150.2,9.9z M150.9,14.7C150.9,14.6,150.9,14.6,150.9,14.7
      c0-0.2,0-0.2,0.1-0.1C151,14.5,151,14.6,150.9,14.7C151,14.6,150.9,14.6,150.9,14.7z M155.3,12.4c-0.1,0.1-0.1,0.1-0.2,0
      c0,0-0.1,0-0.1,0c-0.1-0.1-0.2-0.3-0.1-0.5c0-0.1,0.1-0.3,0.2-0.3c0.1,0,0.1-0.1,0.2,0C155.5,11.8,155.6,12.2,155.3,12.4z
       M156.4,19.3c0,0.1-0.1,0.1-0.1,0.1c-0.1,0-0.1,0-0.2-0.1c-0.1-0.1-0.1-0.2-0.1-0.4c0-0.3,0-0.6,0-0.8c0-0.3,0-0.7,0-1
      c0-0.1,0.1-0.2,0.2-0.2c0.1,0,0.2,0,0.3,0.1c0,0.1,0.1,0.2,0.1,0.3C156.5,18,156.5,18.6,156.4,19.3z M156.8,32
      c-0.1,0-0.2,0-0.2-0.2c0-0.1,0-0.1,0.1-0.2c0.1,0,0.1,0,0.2,0C157,31.8,156.9,31.9,156.8,32z M160.2,10.9
      C160.2,11,160.1,11,160.2,10.9c-0.1,0.1-0.1,0-0.1,0c0-0.1,0-0.1,0-0.2c0,0,0.1,0,0.1,0C160.2,10.8,160.2,10.9,160.2,10.9z
       M163,24.7c0.1,0,0.1-0.1,0.2-0.1c0.2-0.1,0.3,0,0.4,0.2c0,0.1,0,0.1,0,0.2c0,0.3-0.3,0.4-0.5,0.3c-0.1,0-0.1-0.1-0.2-0.1
      C162.8,25,162.8,24.8,163,24.7z M161.9,15.9c0.1,0,0.1,0.1,0.1,0.1c0.1,0.1,0.1,0.2,0.1,0.3c0,0,0,0.1,0,0.1
      c0,0.1-0.1,0.1-0.2,0.1c0,0-0.1,0-0.1-0.1c0-0.1,0-0.2,0-0.2C161.8,16,161.8,15.9,161.9,15.9z M162,19.4c0.2,0,0.3,0.1,0.3,0.3
      c0,0.1-0.1,0.3-0.2,0.3c-0.2,0-0.3-0.1-0.4-0.3C161.7,19.5,161.8,19.4,162,19.4z"/>
    <path class="st0" d="M118.7,30.8c0-0.1,0.1-0.3,0.1-0.4c0-0.1,0-0.1,0-0.2c0-0.1,0-0.2-0.1-0.3l-1,0.5L118.7,30.8z"/>
    <path class="st0" d="M141,0.5C141,0.5,141,0.5,141,0.5C141,0.5,141,0.5,141,0.5z"/>
    <path class="st0" d="M126.3,42.8C126.3,42.8,126.3,42.8,126.3,42.8C126.3,42.7,126.3,42.7,126.3,42.8
      C126.3,42.7,126.3,42.8,126.3,42.8z"/>
  </g>
</g>
</svg>
