<!-- Generator: Adobe Illustrator 19.2.1, SVG Export Plug-In  -->
<svg version="1.1"
   xmlns="http://www.w3.org/2000/svg" xmlns:xlink="http://www.w3.org/1999/xlink" xmlns:a="http://ns.adobe.com/AdobeSVGViewerExtensions/3.0/"
   x="0px" y="0px" width="177.9px" height="99.4px" viewBox="0 0 177.9 99.4" style="enable-background:new 0 0 177.9 99.4;"
   xml:space="preserve">
<style type="text/css">
  .st0{fill:#8BC53F;}
  .st1{fill:#FFFFFF;}
  .st2{fill:#58595B;}
</style>
<defs>
</defs>
<g>
  <g>
    <path class="st0" d="M122.2,10.9v64.2c0,7.3-3.6,10.9-10.9,10.9h-5.1L122,99.4H107L91.3,86H66c-7.3,0-10.9-3.6-10.9-10.9V10.9
      C55.1,3.6,58.7,0,66,0h45.2C118.5,0,122.2,3.6,122.2,10.9z M110.3,73.6V12.4c0-1.8-0.3-3-0.8-3.5c-0.5-0.5-1.7-0.8-3.5-0.8H71.4
      c-1.8,0-3,0.3-3.5,0.8c-0.5,0.5-0.8,1.7-0.8,3.5v61.1c0,1.8,0.3,3,0.8,3.5c0.5,0.5,1.7,0.8,3.5,0.8H106c1.8,0,3-0.3,3.5-0.8
      C110,76.6,110.3,75.4,110.3,73.6z"/>
  </g>
  <g>
    <path class="st1" d="M177.3,54.5v-1.3c0-3.4-1-6.2-3.1-8.5c-2.2-2.4-5.1-3.6-8.6-3.6c-3.5,0-6.4,1.2-8.6,3.6
      c-0.5,0.6-1,1.2-1.4,1.9c-0.5-1.3-1.2-2.4-2.3-3.3c-1.8-1.5-4.1-2.2-7-2.2c-3,0-5.2,0.6-6.9,1.9c-0.7,0.5-1.2,1.1-1.6,1.7v-3.3
      h-7.9v0.4c-1.2-0.4-2.4-0.6-3.8-0.6c-3.5,0-6.4,1.2-8.6,3.6c-0.7,0.8-1.3,1.6-1.7,2.5c-0.5-0.9-1-1.8-1.7-2.5
      c-2.1-2.4-5-3.6-8.4-3.6c-1.4,0-2.8,0.2-4,0.7v-7.7h-7.9v12.3c-0.4-0.6-0.8-1.2-1.3-1.7c-2.2-2.4-5.1-3.6-8.6-3.6
      c-3.5,0-6.4,1.2-8.6,3.6c-0.8,0.9-1.5,1.9-1.9,2.9c-0.5-1.4-1.2-2.6-2.2-3.7c-0.9-0.9-1.9-1.6-3-2.1c-1.1-0.5-2.4-0.7-3.6-0.7
      c-1.2,0-2.3,0.2-3.3,0.6c-1.1,0.4-2.1,1-2.9,1.6c-0.4-0.3-0.7-0.6-1.1-0.8c-1.5-0.9-3.1-1.4-4.8-1.4c-1.1,0-2.1,0.1-3,0.4v-0.1
      h-7.9v5.5c-0.4-0.8-1-1.5-1.6-2.2c-2.2-2.4-5.1-3.6-8.6-3.6s-6.4,1.2-8.6,3.6c-0.8,0.9-1.5,1.9-2,3c-0.5-1.4-1.3-2.7-2.4-3.8
      c-0.9-1-2-1.7-3.2-2.2c-1.2-0.5-2.6-0.7-4.1-0.7c-1.1,0-2.1,0.2-3.1,0.5v-7.6H0V65h7.9V51.8c0-0.9,0.3-1.6,0.8-2.2
      c0.6-0.6,1.3-0.8,2.1-0.8c1,0,1.5,0.4,1.8,0.7c0.2,0.2,0.7,0.8,0.7,2.2V65h7.9v-5.1c0.4,0.7,0.9,1.3,1.4,1.8
      c2.2,2.4,5.1,3.6,8.6,3.6s6.4-1.2,8.6-3.6c0.6-0.7,1.1-1.4,1.6-2.2V65h7.9V51.4c0-1.2,0.4-1.7,0.7-2c0.4-0.4,1-0.6,1.7-0.6
      c0.6,0,1,0.2,1.3,0.5c0.3,0.3,0.6,0.9,0.6,2V65h7.1h0.9H66h1.2h6.8v-5.2c0.4,0.7,0.9,1.4,1.5,2c2.2,2.4,5.1,3.6,8.6,3.6
      c2.7,0,5-0.7,6.9-2.1c1.1-0.8,2.1-1.9,2.8-3.1V65h7.9v-0.3c1.2,0.4,2.4,0.6,3.8,0.6c3.5,0,6.4-1.2,8.5-3.6
      c0.7-0.8,1.3-1.6,1.8-2.5c0.5,0.9,1,1.8,1.7,2.5c2.2,2.4,5,3.6,8.4,3.6c1.4,0,2.8-0.2,4-0.7V65h7.9v-3.5c0.4,0.5,0.8,1,1.3,1.4
      c1.9,1.6,4.4,2.4,7.5,2.4c2.8,0,5.2-0.6,6.9-1.9c1.1-0.8,2-1.8,2.5-3c0.3,0.5,0.7,0.9,1.1,1.3c2.2,2.4,5.1,3.6,8.6,3.6
      c2.7,0,5.1-0.7,6.9-2.1c1.8-1.3,3.1-3.1,3.9-5.2l0.4-1.1h0.3v-0.8l0.6-1.6H177.3z M34,56.5c-0.7,0.8-1.5,1.1-2.7,1.1
      c-1.2,0-2.1-0.3-2.7-1.1c-0.7-0.8-1-1.9-1-3.2c0-1.4,0.3-2.4,1-3.3c0.7-0.8,1.5-1.1,2.7-1.1c1.2,0,2.1,0.3,2.7,1.1
      c0.7,0.8,1,1.9,1,3.2C35.1,54.6,34.7,55.7,34,56.5z M83.8,48.9c0.6,0,1.2,0.1,1.6,0.3h-3.3C82.7,49,83.2,48.9,83.8,48.9z
       M84.1,57.6c-1,0-1.7-0.2-2.4-0.7h4.6C85.8,57.4,85.1,57.6,84.1,57.6z M108.1,56.4c-0.7,0.8-1.6,1.2-2.8,1.2
      c-1.2,0-2.1-0.3-2.7-1.1c-0.7-0.8-1-1.9-1-3.2c0-1.4,0.3-2.4,1-3.3c0.7-0.8,1.5-1.1,2.7-1.1c1.2,0,2.1,0.4,2.8,1.2
      c0.7,0.8,1.1,1.9,1.1,3.2S108.8,55.6,108.1,56.4z M128.9,56.5c-0.7,0.8-1.5,1.1-2.7,1.1c-1.2,0-2.1-0.4-2.8-1.2
      c-0.7-0.8-1.1-1.9-1.1-3.2c0-1.3,0.4-2.4,1.1-3.2c0.7-0.8,1.6-1.2,2.8-1.2c1.2,0,2.1,0.3,2.7,1.1c0.7,0.8,1,1.9,1,3.2
      C130,54.6,129.6,55.7,128.9,56.5z M137.7,54.1v-1.1c0.1,0.2,0.2,0.3,0.4,0.5c0.2,0.2,0.4,0.4,0.7,0.6H137.7z M146.1,48.7
      c0.7,0,2,0.1,2,0.6l0,0.1c-0.9-0.2-1.7-0.4-2.5-0.6c-0.1,0-0.3-0.1-0.4-0.1C145.5,48.7,145.8,48.7,146.1,48.7z M147.6,57.7
      c-0.4,0.1-0.9,0.1-1.4,0.1c-0.4,0-0.7-0.1-1.1-0.2c-0.9-0.3-1.1-0.7-1.1-1.2c0.2,0,0.4,0.1,0.6,0.1c1,0.2,1.9,0.4,2.7,0.6
      c0.3,0.1,0.6,0.2,0.9,0.3C148.1,57.6,147.9,57.6,147.6,57.7z M154,51.7c-0.1,0-0.1-0.1-0.2-0.2h0.2C154,51.6,154,51.7,154,51.7z
       M165.6,48.9c0.6,0,1.2,0.1,1.6,0.3h-3.3C164.4,49,164.9,48.9,165.6,48.9z M165.8,57.6c-1,0-1.7-0.2-2.4-0.7h4.6
      C167.5,57.4,166.8,57.6,165.8,57.6z"/>
    <path class="st2" d="M5.3,36.7v10.2c0.7-0.9,1.5-1.6,2.4-2.2c1-0.6,2-0.9,3.3-0.9s2.3,0.2,3.2,0.5c0.9,0.3,1.7,0.9,2.3,1.5
      c1.5,1.5,2.3,3.5,2.3,5.9v10.7H16V51.8c0-1.7-0.5-3-1.4-4c-1-1-2.2-1.5-3.7-1.5c-1.5,0-2.8,0.5-3.9,1.5c-1.1,1.1-1.6,2.4-1.6,4
      v10.6H2.6V36.7H5.3z"/>
    <path class="st2" d="M31.3,43.8c2.7,0,5,0.9,6.7,2.8c1.6,1.8,2.4,4,2.4,6.7s-0.8,5-2.4,6.7c-1.7,1.8-3.9,2.8-6.7,2.8
      c-2.7,0-5-0.9-6.7-2.8c-1.6-1.8-2.4-4-2.4-6.7s0.8-5,2.4-6.7C26.3,44.7,28.6,43.8,31.3,43.8z M31.3,60.2c2,0,3.5-0.7,4.7-2.1
      c1.1-1.3,1.7-2.9,1.7-4.9c0-2-0.6-3.6-1.7-4.9c-1.2-1.4-2.7-2.1-4.7-2.1c-2,0-3.5,0.7-4.7,2.1c-1.1,1.3-1.7,2.9-1.7,4.9
      c0,2,0.6,3.6,1.7,4.9C27.8,59.5,29.3,60.2,31.3,60.2z"/>
    <path class="st2" d="M46.8,46.9c1.2-2.1,3.1-3.1,5.6-3.1c1.2,0,2.4,0.3,3.4,1c1,0.6,1.9,1.6,2.4,2.7c0.8-1.5,2.1-2.6,3.9-3.3
      c0.7-0.3,1.5-0.4,2.4-0.4c0.9,0,1.7,0.2,2.6,0.5c0.8,0.4,1.5,0.9,2.2,1.5c1.4,1.5,2.1,3.3,2.1,5.5v11.1h-2.8v-11
      c0-1.5-0.4-2.8-1.3-3.7c-0.9-0.9-1.9-1.4-3.3-1.4c-1.4,0-2.6,0.5-3.5,1.4c-1,0.9-1.5,2.2-1.5,3.8v11h-2.8v-11
      c0-1.5-0.4-2.8-1.3-3.7c-0.9-0.9-1.9-1.4-3.3-1.4c-1.4,0-2.6,0.5-3.5,1.4c-1,0.9-1.5,2.2-1.5,3.8v11H44V44.1h2.8V46.9z"/>
    <path class="st2" d="M84.1,60.2c2.5,0,4.2-1,5.3-3.1h3c-0.6,1.7-1.6,3-3,4c-1.4,1-3.2,1.5-5.3,1.5c-2.8,0-5-0.9-6.7-2.8
      c-1.7-1.8-2.5-4-2.5-6.7c0-2.7,0.8-5,2.4-6.7c1.7-1.8,3.9-2.8,6.7-2.8c2.7,0,5,0.9,6.7,2.8c1.6,1.8,2.4,4,2.4,6.7v1.1H77.6
      c0.2,1.7,0.9,3.1,2,4.2C80.8,59.6,82.2,60.2,84.1,60.2z M83.8,46.3c-1.7,0-3.1,0.5-4.3,1.6c-1.1,1-1.7,2.3-2,3.9h12.5
      c-0.2-1.6-0.9-2.9-2-3.9C86.9,46.8,85.5,46.3,83.8,46.3z"/>
    <path class="st2" d="M99.1,47c1.5-2.2,3.7-3.3,6.6-3.3c2.6,0,4.8,0.9,6.4,2.8c1.6,1.8,2.5,4,2.5,6.7c0,2.7-0.8,4.9-2.5,6.7
      c-1.6,1.8-3.8,2.8-6.6,2.8c-2.8,0-4.9-1.1-6.4-3.2v2.9h-2.8V36.7h2.8V47z M105.3,60.2c2,0,3.5-0.7,4.8-2.1
      c1.1-1.3,1.7-2.9,1.7-4.9c0-2-0.6-3.6-1.7-4.9c-1.2-1.4-2.8-2.1-4.8-2.1c-2,0-3.5,0.7-4.7,2.1c-1.1,1.3-1.7,2.9-1.7,4.9
      c0,2,0.6,3.6,1.7,4.9C101.7,59.5,103.3,60.2,105.3,60.2z"/>
    <path class="st2" d="M132.4,59.5c-1.5,2.2-3.7,3.2-6.6,3.2c-2.6,0-4.8-0.9-6.5-2.8c-1.6-1.8-2.4-4-2.4-6.7c0-2.7,0.8-4.9,2.4-6.7
      c1.7-1.8,3.9-2.8,6.6-2.8c2.8,0,4.9,1.1,6.4,3.3v-3h2.8v18.3h-2.8V59.5z M126.2,60.2c2,0,3.5-0.7,4.7-2.1c1.1-1.3,1.7-2.9,1.7-4.9
      c0-2-0.6-3.6-1.7-4.9c-1.2-1.4-2.7-2.1-4.7-2.1c-2,0-3.5,0.7-4.8,2.1c-1.1,1.3-1.7,2.9-1.7,4.9c0,2,0.6,3.6,1.7,4.9
      C122.7,59.5,124.2,60.2,126.2,60.2z"/>
    <path class="st2" d="M150.7,49c-0.2-1.9-1.8-2.9-4.6-2.9s-4.2,0.9-4.2,2.6c0,0.7,0.3,1.3,0.9,1.7c0.6,0.4,1.4,0.7,2.3,0.9
      c0.9,0.2,1.9,0.5,3,0.7c1.1,0.2,2,0.5,3,0.9c0.9,0.4,1.7,0.9,2.3,1.6c0.6,0.7,0.9,1.6,0.9,2.7c0,1.8-0.7,3.1-2,4.1
      c-1.3,0.9-3.2,1.4-5.5,1.4c-2.4,0-4.4-0.6-5.8-1.8c-1.3-1.1-2-2.5-2.1-4.2h2.9c0.2,1.7,1.1,2.8,2.9,3.4c0.6,0.2,1.3,0.3,1.9,0.3
      c0.6,0,1.2,0,1.7-0.1c0.5-0.1,1.1-0.2,1.6-0.4c1.2-0.5,1.8-1.3,1.8-2.4c0-0.8-0.3-1.3-0.9-1.7c-0.6-0.4-1.4-0.7-2.3-1
      c-0.9-0.3-1.9-0.5-3-0.7c-1.1-0.2-2-0.5-3-0.9c-0.9-0.4-1.7-0.9-2.3-1.5c-0.6-0.6-0.9-1.5-0.9-2.6c0-1.7,0.6-3,1.8-3.9
      c1.2-0.9,3-1.4,5.4-1.4c2.2,0,4,0.5,5.3,1.6c1.1,0.9,1.7,2.1,1.9,3.6H150.7z"/>
    <path class="st2" d="M165.8,60.2c2.5,0,4.2-1,5.3-3.1h3c-0.6,1.7-1.6,3-3,4c-1.4,1-3.2,1.5-5.3,1.5c-2.8,0-5-0.9-6.7-2.8
      c-1.7-1.8-2.5-4-2.5-6.7c0-2.7,0.8-5,2.4-6.7c1.7-1.8,3.9-2.8,6.7-2.8s5,0.9,6.7,2.8c1.6,1.8,2.4,4,2.4,6.7v1.1h-15.4
      c0.2,1.7,0.9,3.1,2,4.2C162.5,59.6,164,60.2,165.8,60.2z M165.6,46.3c-1.7,0-3.1,0.5-4.3,1.6c-1.1,1-1.7,2.3-2,3.9h12.5
      c-0.2-1.6-0.9-2.9-2-3.9C168.7,46.8,167.3,46.3,165.6,46.3z"/>
  </g>
</g>
</svg>
