<!-- Generator: Adobe Illustrator 19.2.1, SVG Export Plug-In  -->
<svg version="1.1"
   xmlns="http://www.w3.org/2000/svg" xmlns:xlink="http://www.w3.org/1999/xlink" xmlns:a="http://ns.adobe.com/AdobeSVGViewerExtensions/3.0/"
   x="0px" y="0px" width="100px" height="66.4px" viewBox="0 0 100 66.4" style="enable-background:new 0 0 100 66.4;"
   xml:space="preserve">
<style type="text/css">
  .st1{fill:#FFFFFF;}
  .st0{fill:#2987CA;}
</style>
<defs>
</defs>
<g id="XMLID_1_">
  <g id="XMLID_26_">
    <g>
      <g>
        <path class="st0" d="M69.3,34.3C69.3,34.3,69.2,34.3,69.3,34.3L69.3,34.3z"/>
        <polygon class="st0" points="72,5.3 72,5.3 72,5.3         "/>
        <path class="st0" d="M72,5.3C71.9,5.4,71.9,5.4,72,5.3C71.9,5.3,71.9,5.3,72,5.3c0-0.3,0-0.7,0-1c0-0.2,0-1.2-0.3-0.9
          c-0.1-0.4-0.3-0.1-0.6-0.3c-0.1,0-0.7-0.1-0.7,0.1C70.4,3,70,3.1,69.9,3c0,0-0.1-0.3-0.2-0.4c-0.1-0.1-0.3-0.2-0.4-0.3
          c-0.4-0.2-1-0.2-1.4-0.2c-0.6-0.1-1.2-0.3-1.9-0.2c0,0-1.1-0.2-1.3-0.2c-0.6,0-1.3,0-1.9-0.1c-0.5,0-1,0-1.5-0.1
          c-0.5-0.1-1.1-0.1-1.6-0.2c-2.3-0.2-4.6-0.4-6.9-0.6c-1.3-0.1-2.5-0.2-3.8-0.2C48,0.4,46.9,0.2,45.8,0c-0.2,0-0.3,0-0.5,0
          c-0.2,0-0.3,0-0.6,0c-0.3,0-0.4,0.1-0.7,0.1C44,0.1,43.9,0,43.8,0c-0.2,0-0.2,0.1-0.4,0.1c-0.1,0-0.3,0-0.5,0
          c-0.1,0-0.3,0-0.4,0c-0.1,0-0.2-0.1-0.3-0.1c-0.2,0-0.2,0.1-0.4,0.1c-0.3,0-0.6,0-1,0c-0.7,0.1-1.2-0.1-1.6,0.6
          C39,1,38.9,1.5,38.6,1.8c-0.3,0.3-0.4,0.1-0.7,0c-0.6-0.2-2.4-1.1-2.4,0.1c-0.4-0.2-0.9-0.2-1.4-0.3c-0.4-0.1-0.7-0.2-1.1-0.2
          c-0.7-0.1-1.3-0.2-2-0.2c-0.3,0-0.6-0.2-0.9,0.1C30,1.5,30,2.1,29.9,2.5c-0.1,0.4-0.2,0.8-0.3,1.2c0,0.2-0.1,0.4-0.1,0.6
          c0,0.2,0,0.6-0.1,0.8c-0.2,0.7-0.2,1.5-0.2,2.1c0,0.9-0.2,1.8-0.3,2.7c0,0.9-0.1,1.7-0.1,2.6c0,0.2,0,0.5-0.1,0.7
          c0,0.1-0.1,0.2-0.1,0.3c0,0,0.1,0.2,0.1,0.2c0,0.3-0.2,0.8-0.2,1.2c-0.1,1-0.1,1.9-0.2,2.9c-0.1,1.1-0.2,2.2-0.2,3.3
          c0,0-0.1,0.1-0.1,0.2c0,0,0.2,0.3,0.2,0.3c0,0.1-0.1,0.2-0.1,0.3c0,0.1,0,0.2,0,0.3c0,0.1,0.1,0.1,0.1,0.2c0,0.1-0.1,0-0.1,0.1
          c0,0.2-0.1,0.4-0.2,0.7c0,0.1,0,0.3,0,0.4c0,0.1,0.1,0.3,0.1,0.4c0,0.1,0.1,0.3,0.1,0.4c0,0.1-0.1,0.2-0.1,0.3
          c-0.1,0.2-0.1,0.5-0.1,0.7c0,0.9,0,1.8,0,2.6c0,0.4-0.1,3.2,0.2,3.2c-0.1,0.1-0.2,0.5-0.2,0.6c0,0.2,0,0.5,0,0.7
          c0,0.5,0,1.1,0.1,1.6c0,0.4,0.2,0.6,0.2,1c0,0.1,0,0.7,0.1,0.8c-0.2,0.2,0,0.5,0,0.7c0.1,0.3,0,0.5,0.1,0.8c0,0.4,0.2,0.7,0.2,1
          c0,0.2,0,0.3,0,0.5c0,0.1,0.1,0.3,0.2,0.4c0,0.1,0,0.3,0.1,0.4c0.1,0.1,0.3,0.1,0.3,0.2c0,0.1,0.1,0.3,0.1,0.3
          c0.2,0.1,0.3-0.2,0.3-0.3c0.1-0.1,0-0.3,0.1-0.3c0.2-0.1,0.1,0.4,0.1,0.5c0.1,0.9,0.3-0.1,0.6-0.2c0.2,0,0.1,0.3,0.3,0.2
          c0.3-0.1,0-0.4,0.4-0.3c-0.2,0.1,0,0.6,0.1,0.8c0-0.2,0.1-0.5,0.2-0.7c0.1-0.2,0.3-0.3,0.3-0.4c0,0.1-0.1,0.5,0,0.5
          c0.1,0.2,0.3,0,0.3-0.2c0.1,0.5,0.4,0.2,0.5-0.1c0.2,0.2,0.1,0.9,0.4,0.4c0.1-0.1,0.1-0.3,0.1-0.5c0.1-0.2,0.2-0.3,0.2-0.5
          c-0.1,0.2,0.1,0.5,0.1,0.7c0,0.1-0.1,0.2,0,0.3c0.3,0.4,0.7-0.4,0.8-0.6c0,0.2-0.1,0.3,0.1,0.4c0-0.2,0.5-0.5,0.6-0.4
          C35,39.8,35,39.9,35,40c0.1,0,0.2,0,0.2-0.1c0,0.2,0.1,0.3,0.3,0.4c0.1,0,0.2,0,0.3,0c0.1,0,0.2,0.1,0.3,0.2
          c-0.4,0.1,0,0.4,0.2,0.2c0,0,0,0.3,0,0.3c0.2,0.2,0.3,0.1,0.6,0.1c0.3,0,0.6,0,0.9,0.1c0.7,0.1,1.4,0.1,2.1,0.1
          c1.5,0,3-0.1,4.5-0.2c0.5,0,0.9-0.1,1.4-0.2c0.4,0,0.9,0.1,1.3,0c0.8-0.1,1.5-0.2,2.3-0.2c0.6,0,1.3-0.1,2-0.1
          c0.3,0,0.6,0,0.9,0c0.1,0,0.2,0,0.3,0c0.2-0.1,0.3,0,0.4,0.1c0.1,0,0.2,0,0.3-0.1c0,0.2,0.5,0.1,0.6,0.1c0-0.2-0.2-0.2-0.3-0.2
          c0-0.1,0-0.1,0-0.1c0,0,0.1-0.1,0.1-0.1c0.2,0,0.4,0.2,0.5,0.3c0-0.1-0.1-0.2-0.1-0.3c0,0,0.4,0,0.5,0c0,0.1,0.1,0.2,0.2,0.2
          c0.1-0.3-0.1-0.2,0.2-0.3c0.3-0.1,0.6-0.1,0.9-0.1c-0.6,0.3,0.1,0.4,0.5,0.3c0.5-0.1,1-0.2,1.5-0.2c0-0.3-0.2-0.2-0.4-0.2
          c-0.2,0-0.4,0-0.5,0c0.3,0,0.5-0.3,0.7-0.3c0.1,0,0.4,0.2,0.5,0.2c0.2,0,0.5-0.1,0.7-0.1c0,0-0.2,0.1-0.2,0.1
          c0.1,0.1,0.8,0.1,0.8-0.1c0,0,1.1-0.2,1.2-0.2c0.6-0.1,1.3-0.1,1.9-0.3c1.3-0.3,2.8-0.9,4.1-0.4c0.1,0.2,1,0.4,1,0.1
          c-0.1,0-0.4,0-0.5-0.1c0,0,0.5,0,0.5,0c0.2-0.1,0.2-0.2,0.3-0.3c0.1-0.2,0.1-0.2,0.2-0.3c0.2-0.1,0.5-0.1,0.7-0.1
          c0.1,0,0.6,0,0.5-0.2c0-0.2-0.6,0-0.7,0c-0.8,0-0.4-0.1,0-0.3c0.2,0,0.6,0,0.8-0.1c0.3-0.1,0.3-0.4,0.3-0.7
          c0-0.3,0.3-1.5-0.1-1.5c0-0.2,0.3-0.3,0.2-0.5c-0.2,0.1-0.9,0.3-1.1,0.2c0.1-0.4,0.9-0.1,1.1-0.6c-0.2-0.1-0.7,0-0.9,0.1
          c0.1-0.1,0.4-0.2,0.5-0.3c0.2-0.1,0.3-0.1,0.6-0.2c0-0.1-0.1-0.3-0.1-0.5c0-0.2,0.1-0.3,0.2-0.4c0-0.1-0.1-0.2-0.1-0.3
          c0-0.1,0.1-0.1,0.1-0.2l0-0.1c0,0,0.1,0,0.1,0c0-0.1,0-0.2,0-0.3c0-0.4,0-0.8,0-1.1c0-0.2-0.1-0.5-0.1-0.7c0-0.3,0.1-0.7-0.1-1
          c0.1,0,0.3-1,0.3-1.1c0-0.2,0.2-1.3,0-1.5c0.3,0,0.1-0.4,0.2-0.6c0.4-0.2,0-0.6,0-0.8c0-0.2,0-1.4,0-1.4c0,0,0.1-0.6,0.1-0.7
          c0.1-0.2,0-0.4,0-0.7c0-0.2,0.1-0.4,0.1-0.6c0.1-0.9,0.1-1.9,0.2-2.8c0-1,0.1-2,0.1-3c0-0.8,0.2-1.6,0.1-2.4
          c0-0.4,0-0.8,0.1-1.2c0-0.2,0-0.3,0-0.6c0-0.9,0.1-2,0.2-2.9c0.1-0.7,0.1-1.4,0.2-2.1c0.1-0.4,0.1-0.8,0.2-1.1
          c0-0.2,0.1-0.4,0.1-0.6c0-0.1,0-0.4,0.1-0.6C72,5.5,72,5.4,72,5.3z"/>
        <path class="st0" d="M36.3,40.5C36.3,40.4,36.3,40.5,36.3,40.5L36.3,40.5z"/>
      </g>
      <path class="st0" d="M28.5,16.1C28.5,16.1,28.5,16.1,28.5,16.1L28.5,16.1z"/>
      <path class="st0" d="M54.7,40.6c0.1,0.2,0.2,0.3,0.4,0.1C55,40.4,54.8,40.7,54.7,40.6z"/>
      <path class="st0" d="M65.4,39.3C65.6,39.6,65.9,39,65.4,39.3C65.4,39.3,65.5,39.2,65.4,39.3z"/>
    </g>
    <g id="XMLID_53_">
      <path id="XMLID_54_" class="st1" d="M46.6,32.8c-0.4-0.1-0.8-0.4-1.1-0.8c-0.2-0.2-0.4-0.4-0.6-0.6c-0.1-0.1-0.2-0.3-0.2-0.4
        c-0.1-0.2-0.1-0.4-0.2-0.7c0-0.1,0-0.4,0-0.5c0-0.1,0.1-0.2,0.1-0.3c0.2-0.2,0.3-0.3,0.6-0.2c0.1,0,0.1,0.1,0.1,0.1
        c0.1,0.1,0.3,0.2,0.4,0.3c0.1,0.2,0.3,0.4,0.4,0.6c0.1,0.1,0.2,0.2,0.3,0.3c0.1,0.1,0.3,0.1,0.5,0.2c0.3,0,0.6,0,0.8,0
        c0.3,0,0.7-0.2,0.9-0.4c0.2-0.2,0.4-0.4,0.6-0.6l0.1-0.3c0.1-0.1,0.1-0.3,0.1-0.5c0.1-0.3,0-0.6-0.1-0.8c0-0.1-0.1-0.2-0.2-0.3
        c-0.1-0.1-0.2-0.2-0.4-0.3c-0.2-0.1-0.4-0.3-0.6-0.4c-0.3-0.2-0.6-0.4-0.8-0.6l-0.2-0.3c-0.3-0.4-0.7-0.8-1-1.1
        c-0.1-0.1-0.2-0.3-0.3-0.4c-0.3-0.4-0.5-0.8-0.8-1.1c-0.2-0.3-0.3-0.6-0.5-0.9c-0.1-0.2-0.1-0.3-0.2-0.5
        c-0.1-0.3-0.2-0.5-0.3-0.8c-0.1-0.3-0.2-0.6-0.3-1l-0.1-0.3c-0.1-0.3-0.1-0.5-0.2-0.8l-0.1-0.5c0-0.4,0-0.8,0-1.2
        c0-0.2,0-0.4,0.1-0.6c0.1-0.3,0.1-0.6,0.2-0.8c0-0.1,0-0.1,0.1-0.1c0.1-0.3,0.2-0.6,0.4-0.9c0.1-0.2,0.2-0.3,0.3-0.5
        c0.2-0.4,0.5-0.8,1-1.1c0.1-0.1,0.2-0.1,0.3-0.2c0.4-0.4,0.9-0.7,1.4-0.9c0.3-0.1,0.3-0.2,0.6-0.3l0.5-0.2
        c0.1-0.1,0.3-0.1,0.5-0.1c0.4,0,0.9,0,1.3,0c0.1,0,0.3,0.1,0.5,0.1c0.2,0.1,0.3,0.1,0.5,0.2c0.3,0.1,0.7,0.3,1,0.6
        c0.5,0.4,0.7,0.7,1.2,1.3l0.3,0.4c0.1,0.1,0.2,0.3,0.2,0.4c0.1,0.1,0.1,0.3,0.2,0.5c0.1,0.1,0.1,0.3,0.1,0.5l0.2,0.6
        c0,0.2,0.1,0.3,0.1,0.5c0,0.2,0,0.4,0,0.7c0,0.2,0,0.4-0.1,0.7c-0.1,0.1-0.1,0.3-0.1,0.5c0,0.1-0.1,0.3-0.3,0.5
        c-0.2,0.3-0.3,0.4-0.7,0.4c-0.2,0.1-0.3,0-0.5,0c-0.3,0-0.6-0.1-0.8-0.3l-0.4-0.3c-0.2-0.1-0.3-0.3-0.5-0.5
        c-0.1-0.2-0.2-0.4-0.3-0.6c-0.1-0.2-0.1-0.1-0.1-0.5c0-0.1,0-0.2,0-0.3c0-0.1-0.1-0.2-0.2-0.3c-0.1-0.1-0.2-0.1-0.3-0.1
        c-0.2,0.1-0.3,0.1-0.4,0.3c-0.2,0.1-0.6,0.3-0.8,0.5c-0.3,0.3-0.3,0.5-0.5,0.7c-0.1,0.1-0.2,0.3-0.3,0.5
        c-0.1,0.6-0.3,1.1-0.6,1.6c-0.1,0.3-0.1,0.5-0.1,0.7c-0.1,0.3-0.1,0.7,0,1c0,0.2,0.1,0.5,0.2,0.7c0.2,0.3,0.4,0.7,0.6,1
        c0.4,0.5,0.8,0.9,1.3,1.3c0.3,0.2,0.5,0.5,0.7,0.7c0.3,0.3,0.6,0.5,0.8,0.8c0.1,0.1,0.2,0.3,0.3,0.4c0.2,0.5,0.4,0.9,0.7,1.4
        c0.1,0.1,0.1,0.2,0.1,0.3c0.1,0.2,0.2,0.4,0.2,0.6c0.1,0.4,0.1,0.8,0,1.2c-0.1,0.5-0.3,0.8-0.6,1.2c0,0.1-0.1,0.1-0.1,0.1
        c-0.2,0.2-0.4,0.4-0.7,0.6c-0.2,0.1-0.4,0.2-0.6,0.3c-0.3,0.1-0.6,0.1-1,0.2c-0.2,0-0.4,0-0.7,0h-0.6c-0.3,0-0.6,0-0.8,0h-0.2
        C46.9,32.9,46.7,32.8,46.6,32.8z"/>
    </g>
    <g id="XMLID_27_">
      <path id="XMLID_28_" class="st1" d="M61.4,14.8l0,0.1l0,0.1v0l0,0.1l0,0v0.1l0,0l0,0.1l0,0.1l0,0v0l0,0l-0.1,0.3l0-0.1v0l0,0.1
        l0,0l0,0v0.1l0,0.1v0L61,16.2l-0.1,0.1v0.1l0,0l0,0l0,0.1l0,0l0,0.1l0,0v0l0,0l0,0.1l0,0.1l-0.3,0.3l-0.1,0.1l-0.1,0.1L60.3,17
        l-0.2,0.1l-0.1,0l0,0l-0.1,0l0,0h-0.1l0,0l-0.1,0.1h0l0,0l-0.1,0l-0.1,0.1h-0.1l-0.1,0l0,0h0l0,0l-0.1,0h-0.1l-0.1,0l0,0v0H59
        l0,0h0l-0.1,0h-0.1l0,0h0l-0.1,0l0.1,0l0.1,0l-0.3,0l-0.1,0h-0.2l-0.3,0l-0.4-0.1l-0.4-0.1l-0.1,0l-0.4-0.3l-0.3-0.3l-0.3-0.5
        l0-0.1l-0.1-0.3l0-0.2l0-0.4l0-0.2l0.1-0.3l0.2-0.3l0.1-0.1l0.2,0l0.2,0.2l0.1,0.2v0.1l0,0.1v0.2l0.1,0.3l0,0.3l0,0.4l0,0.1
        l0.1,0.2l0.1,0.2l0.3,0.3l0.2,0.1h0.1l0.2-0.1l0.2-0.1l0.4-0.2L59,16l0.5-0.6l0.1-0.2l0.2-0.3l0.1-0.4l0-0.2l0-0.2l0-0.3v-0.3
        l0-0.2L59.8,13l-0.2-0.3l-0.2,0l-0.2,0l-0.2,0.1L58.9,13l-0.3,0.3l-0.2,0.1l-0.1,0l-0.2,0l-0.3-0.1l-0.2-0.1l-0.1-0.1l-0.1-0.1
        l0.1,0v0l-0.1,0l0-0.1v0l0,0l0,0V13h0v0h0l0,0l0,0h-0.1l0-0.1l0-0.1h0l0,0l0,0l0-0.1v-0.1l0.1-0.2h0l0,0l0,0h0l0,0l0,0v0l0,0l0,0
        l0,0l0,0l0,0v0l0-0.1l0,0l0,0l0,0v0h0l0,0v0h0l0,0v0l0,0l0,0v0l0,0h0l0,0h0l0,0v0l0.1-0.1h0l0,0v0l0,0.1h0v0h0l0,0v0h0v0l0,0l0,0
        l0-0.1v0l0,0h0l0,0h0l0,0v-0.1l0,0.1l0,0v0l0,0l0,0l0,0l0-0.1l0-0.1l0,0l0,0h0.1l0.1-0.1l0-0.1l0,0h0l0,0l0,0.1l0,0.1l0-0.1l0,0
        l0,0l0-0.1v0l0,0l0,0l0,0l0-0.1l0,0v0l0,0l0,0v0l0,0l0,0l-0.1,0.1v0h0l0,0l0,0v0l0.1-0.1h0l0,0l0,0l0,0l0,0v0l0,0l0.1-0.1l0,0
        l0,0v0l0,0l0,0.1v0l0-0.1L58,11l-0.1-0.1l-0.2-0.1l-0.1,0l-0.5-0.2l-0.2-0.1l-0.2,0l-0.1,0.2l0,0.2l0,0.1l0,0.1l-0.1,0.1
        l-0.1,0.1l-0.1,0h-0.1l-0.1,0l-0.1,0L56,11.2l-0.2-0.4l0-0.1l-0.1-0.3l0-0.1l0-0.3l0-0.1l0.1-0.1H56l0.1,0.1l0.2,0.1l0.2,0.1
        l0.5,0.2l0.3,0.1l0.3,0.1l0.2,0l0.3,0h0.1l0.2,0l0.2-0.1l0.2-0.2l0.1-0.1l0.5-0.5l0.1-0.1l0.3-0.1h0.1l0.3,0.2l0.2,0.2l0.1,0.2
        l0,0.1l0,0.1l0,0.1l-0.1,0.1l-0.2,0.2L60,10.6l0,0.1L59.8,11l-0.1,0.4l-0.1,0.2l0,0.1l0,0.1l0.1,0.1l0,0.1l0.1,0.1l0.3,0.2
        l0.3,0.3l0.1,0.1l0.4,0.5l0.2,0.3l0.1,0.3l0.1,0.3l0,0v0.1l0,0l0,0.1v0l0,0v0.1h0v-0.1l0,0v0l0,0l0,0l0-0.1v0l0,0l0,0l0,0V14l0,0
        l0,0l0,0.1l0,0.1l0,0v0.1l0,0l0,0v0h0l0,0l0,0l0,0l0,0l0,0l0,0V14l0,0v0h0v0l0,0l0,0.1l0,0v0l0,0h-0.1v0.1l0,0.1v0.1l0,0l0,0l0,0
        l0-0.1l0,0l0,0l0,0.1l0,0v0.1l0,0v0l0,0v0l0,0l0,0l0,0l0,0l0,0l0,0h0l0,0v0l0,0v0.1l0,0l0,0h0l0,0l0,0h0l0,0l0,0v0l0,0v0l0,0
        l0-0.1v0l0,0l0,0v-0.1h0v0l0,0v0l0-0.1l0,0v-0.1l0,0v0l0,0.1v0.1l0,0l0,0.1h0l0,0.1l0,0.1l0.1-0.1l0,0v0l0,0.1v0l0,0l0,0.1l0,0
        l0,0v0l0,0v0l0,0l0,0l0,0l0,0.1l0,0.1l0,0h0v0l0,0l0,0v0l0,0h0l0,0l0,0v0h0l0,0l0,0l0,0v0l0,0v0l0,0l0,0v-0.1l0-0.1l0,0l0,0v-0.1
        l0.1,0l0,0.1l0,0l0,0.1l0,0.1l0-0.1v0.1l0,0l0,0.1l0,0.1h0l0,0h0l0,0v0l0,0v0h0l0,0v0l0-0.1l0,0l0,0.1l0,0v0l0,0V15l0-0.1v-0.2
        l0,0l0,0v0l0,0l0,0v-0.1l0-0.1l0,0l0,0.1l0,0.1l0,0.1l0,0l0,0v-0.1l0-0.1l0-0.1v0.2l0,0.1l0,0v0.1l0,0.2l0,0.1v0l0,0v0l0,0l0,0.1
        l0,0.1l0-0.1v-0.1l0-0.1l0,0l0,0v0l0,0l0,0l0-0.1l0-0.1V15l0,0v0l0,0v-0.1l0-0.1l0,0l0,0v0.2l0,0v0.2l0,0l0,0l0,0l0,0h0l0,0l0,0
        l0,0h0l0,0l0,0l0,0h0l0,0l0,0l0,0l0-0.1l0,0l0,0l0-0.2l0,0l0,0.1v0.2l0,0l0,0l0-0.1v0l0,0l0,0v0.1l0,0.1v0l0,0l0,0v0.1l0,0l0-0.1
        v-0.1l0,0v0l0-0.1l0,0l0-0.1v-0.2l0-0.1l0,0L61.4,14.8L61.4,14.8L61.4,14.8L61.4,14.8L61.4,14.8L61.4,14.8z M57.6,12.5L57.6,12.5
        L57.6,12.5L57.6,12.5L57.6,12.5L57.6,12.5L57.6,12.5l-0.1,0.1l0,0l0.1,0L57.6,12.5L57.6,12.5l-0.1,0.1L57.6,12.5L57.6,12.5
        L57.6,12.5z M57.5,12.3L57.5,12.3L57.5,12.3L57.5,12.3z M57.8,11.8L57.8,11.8L57.8,11.8L57.8,11.8L57.8,11.8L57.8,11.8L57.8,11.8
        l0,0.1L57.7,12l-0.1,0.1v0l0,0l0,0v0l0,0l0,0l0,0l0,0l0,0h0l0,0l0.1-0.2L57.8,11.8L57.8,11.8L57.8,11.8L57.8,11.8L57.8,11.8z
         M57.9,11.6L57.9,11.6l0.1-0.1l0,0L57.9,11.6L57.9,11.6L57.9,11.6L57.9,11.6z M57.9,11.4L57.9,11.4L57.9,11.4L57.9,11.4
        L57.9,11.4l0.1-0.1h0L57.9,11.4L57.9,11.4L57.9,11.4L57.9,11.4L57.9,11.4L57.9,11.4L57.9,11.4z M57.9,11.4L57.9,11.4L57.9,11.4
        L57.9,11.4z M58,11.8L58,11.8L58,11.8L58,11.8l0.1-0.1l0-0.1l0-0.1l0,0l0,0l0-0.1v0h0l0,0l0-0.1l0,0l0-0.1l-0.1,0.1l0,0.1l0,0
        l0,0.1l-0.1,0.1L58,11.8L58,11.8L58,11.8L58,11.8L58,11.8L58,11.8L58,11.8z M58.3,11.7L58.3,11.7L58.3,11.7L58.3,11.7l-0.1,0.1
        L58.3,11.7l-0.1,0.1l0,0l0,0.1l0,0.1h0v0l0,0l0.1-0.1l0,0l0,0L58.3,11.7L58.3,11.7L58.3,11.7z M58.5,11.4L58.5,11.4L58.5,11.4
        L58.5,11.4L58.5,11.4L58.5,11.4L58.5,11.4L58.5,11.4l-0.1,0.1l0,0l0,0l0,0h0l0,0l0,0l0,0l0,0v0h0l0,0l-0.1,0.1l0.1-0.1l0,0l0,0h0
        l0,0l0,0v0l0,0l0,0l0,0v0l0-0.1L58.5,11.4L58.5,11.4L58.5,11.4z M58.5,11L58.5,11l-0.1,0.1l0,0.1h0v0h0l0,0l0,0v0l0,0l0,0l0,0
        l0,0L58.5,11L58.5,11z M58.7,17.3L58.7,17.3l-0.2,0l0,0l0,0h0.1l0.1,0l0,0L58.7,17.3L58.7,17.3z M58.5,11.1L58.5,11.1L58.5,11.1
        l0.1-0.1l0,0l0,0l0,0L58.5,11.1L58.5,11.1L58.5,11.1z M58.7,11.5L58.7,11.5L58.7,11.5L58.7,11.5l-0.1,0.1v0l0,0l0,0l0,0l0,0l0,0
        v0l0,0v0h0v0l0,0l0-0.1v0l0,0v0l0,0v0L58.7,11.5L58.7,11.5L58.7,11.5L58.7,11.5L58.7,11.5l-0.1,0.1l0,0v0L58.7,11.5L58.7,11.5
        L58.7,11.5z M59.1,17L59.1,17l0.1,0l0,0l0,0l0,0h0.1l0.1,0l0,0h0.1l0,0l0,0l-0.1,0l-0.1,0l0,0v0h0l0,0h0l0,0l0,0L59.1,17L59.1,17
        L59.1,17L59.1,17L59.1,17l0.1-0.1l0,0h0L59.1,17L59.1,17L59.1,17L59.1,17z M59.7,17.1L59.7,17.1L59.7,17.1l-0.1,0l0,0h0l0,0l0,0
        l0.1,0h0l-0.1,0l0,0v0l-0.1,0l-0.2,0l-0.1,0l-0.1,0l0,0h0.1l0,0h0l0,0h0l0,0l0.1,0l0,0h0l0,0l0,0v0l0.1,0l0,0l0,0l0,0l0,0h0
        L59.7,17.1L59.7,17.1z M59.4,17.3l0.1,0L59.4,17.3L59.4,17.3l-0.1,0.1L59.4,17.3L59.4,17.3z M59.5,17.3l0.2-0.1l0,0L59.5,17.3
        L59.5,17.3z M60.1,16.9L60.1,16.9L60.1,16.9L60.1,16.9l-0.1,0l-0.1,0h0l-0.1,0l0,0l-0.1,0h0l0,0h0l0.1,0l0,0h0l0,0l0,0h0l0.1,0
        l0.1,0l0.1,0L60.1,16.9z M59.7,17.2l0.1-0.1L59.7,17.2L59.7,17.2z M61.2,15.2L61.2,15.2L61.2,15.2L61.2,15.2l-0.1,0.1v0l0,0
        l0,0.1v0l0,0l0,0.1l0,0l0,0l0,0l0,0v0h0l0,0l0,0l0,0l0,0v0l0.1-0.1v0l0,0.1l0,0l0,0l0,0l0,0l0,0v0l0,0.1v0l0,0v0l0,0v0l0,0l0,0
        l0,0v0l0,0l0,0v0l0-0.1l0,0v0l0,0l0-0.1l0,0v0l0,0l0,0v-0.1l0,0l0,0h0l0,0.1l0,0L61.2,15.2L61.2,15.2L61.2,15.2L61.2,15.2z
         M61.1,14.3L61.1,14.3L61.1,14.3L61.1,14.3L61.1,14.3l-0.1,0.1v0.1l0,0l0-0.1v0l0-0.1l0,0v-0.2l0,0v0.1L61.1,14.3L61.1,14.3
        L61.1,14.3L61.1,14.3L61.1,14.3L61.1,14.3L61.1,14.3L61.1,14.3L61,14.2v-0.1l0,0l0,0l0,0v0.1l0,0l0,0v0L61.1,14.3L61.1,14.3
        L61.1,14.3L61.1,14.3L61.1,14.3L61.1,14.3L61.1,14.3L61.1,14.3L61.1,14.3L61.1,14.3L61.1,14.3L61.1,14.3z M61.1,15.6L61.1,15.6
        l0,0.1l0,0l0,0.1l0,0.1l0,0l0,0h0v0h0l0-0.1v0L61.1,15.6L61.1,15.6z M61.4,14.1L61.4,14.1L61.4,14.1L61.4,14.1L61.4,14.1l0.1,0.2
        l0,0.1l0,0l0-0.1l0,0V14.1z"/>
    </g>
  </g>
  <g id="XMLID_2_">
    <path id="XMLID_24_" class="st0" d="M2.6,65.3c-0.3-0.1-0.6-0.3-0.9-0.6c-0.2-0.1-0.3-0.3-0.4-0.5c-0.1-0.1-0.1-0.2-0.2-0.4
      C1,63.7,1,63.5,0.9,63.3c0-0.1,0-0.3,0-0.4c0-0.1,0.1-0.2,0.1-0.2c0.1-0.2,0.3-0.2,0.5-0.1c0,0,0.1,0,0.1,0.1
      c0.1,0.1,0.2,0.2,0.3,0.3C2,63,2.1,63.2,2.2,63.4c0.1,0.1,0.2,0.2,0.3,0.3c0.1,0.1,0.3,0.1,0.4,0.1c0.2,0,0.4,0,0.7,0
      c0.3,0,0.6-0.1,0.8-0.3c0.2-0.1,0.3-0.3,0.4-0.5l0.1-0.3c0-0.1,0.1-0.3,0.1-0.4c0-0.2,0-0.4-0.1-0.7c0-0.1-0.1-0.2-0.1-0.2
      c-0.1-0.1-0.2-0.2-0.3-0.3c-0.1-0.1-0.3-0.2-0.4-0.3c-0.2-0.1-0.4-0.3-0.6-0.5l-0.2-0.2c-0.3-0.3-0.5-0.6-0.8-0.9
      c-0.1-0.1-0.2-0.2-0.2-0.3c-0.2-0.3-0.4-0.6-0.6-0.9c-0.1-0.2-0.3-0.5-0.4-0.7c0-0.1-0.1-0.3-0.2-0.4c-0.1-0.2-0.1-0.4-0.3-0.6
      c-0.1-0.2-0.2-0.5-0.3-0.8l-0.1-0.3c-0.1-0.2-0.1-0.4-0.2-0.7L0,54.1c0-0.3,0-0.6,0-1c0-0.2,0-0.4,0.1-0.5c0-0.3,0.1-0.5,0.2-0.7
      c0,0,0-0.1,0-0.1c0.1-0.3,0.2-0.5,0.3-0.8c0.1-0.1,0.1-0.3,0.2-0.4c0.2-0.3,0.4-0.6,0.8-0.9c0.1-0.1,0.1-0.1,0.2-0.2
      c0.4-0.3,0.7-0.5,1.2-0.8c0.3-0.1,0.3-0.1,0.5-0.2l0.4-0.1c0.1,0,0.3-0.1,0.4-0.1c0.4,0,0.7,0,1.1,0c0.1,0,0.3,0,0.4,0.1
      c0.1,0,0.3,0.1,0.4,0.2c0.3,0.1,0.6,0.3,0.8,0.5c0.4,0.4,0.6,0.5,1,1l0.3,0.3c0.1,0.1,0.1,0.2,0.2,0.4c0.1,0.1,0.1,0.3,0.2,0.4
      c0,0.1,0.1,0.2,0.1,0.4l0.1,0.5c0,0.1,0,0.3,0,0.4c0,0.2,0,0.4,0,0.5c0,0.2,0,0.4-0.1,0.5c0,0.1-0.1,0.3-0.1,0.4
      c0,0.1-0.1,0.3-0.2,0.4c-0.2,0.2-0.3,0.3-0.6,0.4c-0.2,0-0.3,0-0.4,0c-0.2,0-0.4-0.1-0.6-0.2l-0.4-0.2c-0.1-0.1-0.3-0.2-0.4-0.4
      c-0.1-0.1-0.2-0.3-0.2-0.5c0-0.2,0-0.1,0-0.4c0-0.1,0-0.2,0-0.3c0-0.1-0.1-0.1-0.1-0.2c-0.1-0.1-0.2-0.1-0.3,0
      c-0.1,0-0.2,0.1-0.3,0.2c-0.2,0.1-0.4,0.3-0.6,0.4c-0.2,0.3-0.3,0.4-0.4,0.6c-0.1,0.1-0.2,0.2-0.2,0.4c-0.1,0.4-0.3,0.9-0.4,1.3
      c-0.1,0.2-0.1,0.4-0.1,0.6c0,0.3,0,0.5,0,0.8c0,0.2,0.1,0.4,0.1,0.5c0.1,0.3,0.3,0.5,0.5,0.8c0.4,0.4,0.7,0.8,1.1,1.1
      c0.2,0.2,0.4,0.4,0.6,0.6c0.2,0.2,0.5,0.4,0.7,0.7c0.1,0.1,0.2,0.2,0.2,0.3c0.2,0.4,0.4,0.7,0.6,1.1c0,0.1,0.1,0.2,0.1,0.2
      c0.1,0.2,0.1,0.4,0.1,0.5c0,0.3,0,0.6,0,1c0,0.4-0.2,0.7-0.5,0.9c0,0-0.1,0.1-0.1,0.1c-0.2,0.1-0.4,0.3-0.5,0.4
      c-0.1,0.1-0.3,0.2-0.5,0.2c-0.3,0-0.5,0.1-0.8,0.2c-0.2,0-0.4,0-0.5,0H3.8c-0.2,0-0.5,0-0.7,0H3C2.8,65.4,2.7,65.4,2.6,65.3z"/>
    <path id="XMLID_21_" class="st0" d="M12.3,65.6C12.3,65.6,12.3,65.6,12.3,65.6c-0.5-0.1-1-0.3-1.3-0.6c-0.1-0.1-0.2-0.1-0.2-0.2
      c-0.2-0.2-0.4-0.4-0.6-0.7c-0.3-0.4-0.6-0.9-0.8-1.4c0-0.1-0.1-0.2-0.1-0.4c0-0.1,0-0.2,0-0.3c0-0.1,0-0.2,0-0.3c0,0,0,0,0-0.1
      c0-0.2,0-0.4-0.1-0.6c0-0.1,0-0.2,0-0.3c0-0.3,0-0.6,0-0.9c0-0.3,0-0.7,0-1c0,0,0-0.1,0-0.2c0.1-0.2,0.1-0.3,0.1-0.5
      c0-0.1,0.1-0.2,0.1-0.4c0.1-0.3,0.1-0.5,0.2-0.8c0.3-0.6,0.6-1.2,1.1-1.6c0.1-0.1,0.2-0.2,0.3-0.3c0.1-0.1,0.3-0.2,0.4-0.4
      c0.1,0,0.1-0.1,0.2-0.1c0.2-0.1,0.4-0.2,0.6-0.2c0.1,0,0.2,0,0.3,0c0.2,0,0.4,0.1,0.6,0.2c0.1,0,0.1,0.1,0.2,0.2
      c0.1,0.1,0.1,0.2,0.2,0.3c0,0,0,0,0,0.1v0.2v0.5c0,0.2,0,0.4-0.1,0.5c0,0.1,0,0.2-0.1,0.3c-0.2,0.4-0.3,0.9-0.5,1.3
      c-0.1,0.3-0.3,0.7-0.4,1.1l-0.1,0.3c0,0.1,0,0.2,0,0.4c-0.1,0.4-0.1,0.7-0.1,1c0,0.1,0,0.2,0,0.3c0,0.3,0,0.6,0.1,0.8
      c0,0,0,0.1,0,0.2c0.1,0.2,0.1,0.5,0.2,0.7c0,0.2,0.1,0.4,0.2,0.5c0,0.1,0.1,0.3,0.2,0.4c0.1,0.1,0.2,0.3,0.4,0.4
      c0,0,0.1,0.1,0.1,0.1c0.1,0,0.2,0.1,0.3,0.1l0.1,0h0.3c0,0,0,0,0.1,0c0.1,0,0.2-0.1,0.3-0.2c0.1,0,0.1-0.1,0.2-0.2
      c0-0.1,0.1-0.2,0.2-0.3c0.3-0.5,0.6-1,0.8-1.5c0.1-0.1,0.1-0.3,0.2-0.4c0.1-0.3,0.2-0.5,0.3-0.8l0.1-0.4c0,0,0-0.1,0-0.2
      c0-0.1,0-0.2-0.1-0.3c0,0-0.1-0.1-0.1-0.1c-0.1,0-0.2-0.1-0.3-0.1c-0.1,0-0.2-0.1-0.3-0.1c-0.3-0.1-0.5-0.2-0.7-0.4
      c0,0-0.1-0.1-0.2-0.1c-0.3-0.2-0.5-0.5-0.6-0.8c0,0,0-0.1,0-0.1c0,0-0.1-0.1-0.1-0.2c0-0.3,0-0.5,0-0.7c0-0.1,0-0.1,0-0.2
      c0,0,0,0,0-0.1c0-0.1,0.1-0.2,0.1-0.4c0.1-0.2,0.2-0.4,0.3-0.5l0.3-0.4c0.1-0.1,0.2-0.2,0.4-0.3l0.2,0c0.1,0,0.3,0,0.5,0
      c0,0,0.1,0,0.1,0c0.2,0,0.3,0.1,0.4,0.2c0.2,0.1,0.3,0.2,0.4,0.3c0.1,0.1,0.3,0.2,0.4,0.3c0.1,0.2,0.2,0.4,0.4,0.5
      c0,0.1,0,0.1,0.1,0.1c0,0.1,0.1,0.2,0.1,0.3V58c0,0.1,0,0.2,0,0.3c0,0.2,0,0.6,0.1,0.8c0,0.1,0.2,0.2,0.3,0.2c0.2,0.1,0.2,0,0.2,0
      s0.2-0.1,0.3-0.1l0.2-0.2c0.2-0.2,0.5-0.3,0.6-0.5c0.3-0.3,0.5-0.6,0.7-1c0.1-0.1,0.2-0.2,0.3-0.3c0.1-0.3,0.4-0.3,0.4-0.3
      c0.2,0.1,0.4,0.3,0.1,0.6l-0.1,0.1l-0.4,0.6c-0.1,0.1-0.2,0.3-0.3,0.4c-0.1,0.2-0.4,0.6-0.6,0.8c-0.4,0.4-0.5,0.5-0.8,0.7
      c-0.1,0.1-0.3,0.1-0.4,0.2c-0.1,0.1-0.2,0.1-0.4,0.1c-0.3,0-0.2,0.3-0.3,0.4c-0.1,0.1-0.1,0.2-0.1,0.3c-0.1,0.1-0.1,0.3-0.1,0.4
      c-0.1,0.4-0.2,0.4-0.3,0.8c-0.1,0.3-0.2,0.5-0.3,0.8L16.7,63c0,0.2-0.2,0.4-0.3,0.6c-0.1,0.2-0.2,0.4-0.3,0.6
      c-0.1,0.1-0.2,0.3-0.3,0.4c-0.1,0.1-0.3,0.3-0.4,0.4c-0.1,0.1-0.3,0.2-0.4,0.3c-0.1,0.1-0.2,0.1-0.4,0.2c-0.2,0.1-0.4,0.1-0.6,0.2
      c0,0-0.1,0-0.1,0l-0.7,0.1h-0.2L12.3,65.6z M16.6,59.2c0-0.1,0.1-0.1,0.1-0.2c0-0.1,0-0.2,0-0.3v-0.3c0-0.1,0-0.1,0-0.1
      c0-0.1,0-0.2-0.1-0.3c0-0.1-0.1-0.2-0.2-0.3c-0.1,0-0.2-0.1-0.2,0c0,0-0.1,0-0.1,0c0,0-0.1,0.1-0.1,0.1c-0.1,0.1-0.1,0.2-0.1,0.4
      c0,0.1,0,0.3,0,0.4c0,0,0,0.1,0,0.1c0,0.1,0.1,0.2,0.1,0.3c0,0,0.1,0.1,0.1,0.1c0,0,0.1,0.1,0.2,0.1
      C16.4,59.4,16.5,59.3,16.6,59.2z"/>
    <path id="XMLID_19_" class="st0" d="M23,65.7c-0.1,0-0.1,0-0.2-0.1c-0.2-0.1-0.4-0.1-0.6-0.2c0,0-0.1,0-0.2,0
      c-0.1-0.1-0.3-0.1-0.4-0.1c-0.1,0-0.2,0-0.3-0.1C21.3,65,21.1,65,21,64.9l-0.2-0.1c-0.1-0.1-0.2-0.1-0.3-0.2
      c-0.2-0.1-0.3-0.3-0.5-0.5c-0.1-0.1-0.1-0.2-0.2-0.2c-0.1-0.1-0.1-0.3-0.2-0.4c-0.1-0.1-0.2-0.4-0.3-0.5c0,0,0-0.1,0-0.2
      c0-0.2-0.1-0.3-0.1-0.5c0,0,0-0.1,0-0.2c0-0.3,0-0.5,0-0.8c0-0.2,0-0.3,0-0.5c0-0.2,0-0.4,0-0.6v-0.3c0-0.1,0-0.2,0-0.3
      c0-0.2,0.1-0.3,0.1-0.5c0-0.1,0-0.3,0.1-0.5c0-0.1,0.1-0.2,0.1-0.3c0-0.2,0.2-0.4,0.2-0.6c0.1-0.3,0.2-0.5,0.3-0.7
      c0,0,0-0.1,0.1-0.2c0.1-0.1,0.1-0.2,0.2-0.3c0.1-0.1,0.2-0.3,0.3-0.4c0.2-0.2,0.4-0.4,0.7-0.6c0,0,0.1-0.1,0.2-0.1
      c0.1,0,0.2-0.1,0.2-0.1c0.1,0,0.2-0.1,0.3-0.2c0.1-0.1,0.3-0.2,0.4-0.2c0.1-0.1,0.2-0.1,0.4-0.2l0.8-0.3c0.2-0.1,0.3-0.1,0.5-0.1
      c0,0,0.1,0,0.2,0l0.4,0.2c0.1,0,0.2,0.1,0.3,0.1c0.2,0,0.3,0.1,0.4,0.2c0.2,0.1,0.3,0.2,0.4,0.3c0.1,0.1,0.2,0.2,0.3,0.2l0.4,0.4
      c0.1,0.1,0.1,0.2,0.2,0.2c0.1,0.1,0.1,0.2,0.2,0.4l0.1,0.2c0,0.2,0.1,0.4,0.1,0.6v0.1c0,0,0,0,0,0.1c0,0.2-0.1,0.3-0.1,0.5v0.4
      c0,0.1,0,0.2,0,0.3c0,0.1,0,0.2-0.1,0.4c-0.1,0.1-0.2,0.3-0.2,0.4c0,0.1-0.2,0.2-0.3,0.2h-0.1c-0.1,0-0.2,0-0.3,0
      c-0.1,0-0.3,0-0.4,0c-0.1,0-0.2-0.1-0.3-0.1c-0.1,0-0.2-0.1-0.2-0.2c0-0.1,0-0.2,0-0.3c0-0.3,0-0.6,0-0.9c0-0.2,0-0.3,0-0.5
      c0-0.1,0-0.2,0-0.3c0-0.1-0.1-0.1-0.1-0.1c0,0-0.1,0-0.1,0l-0.1,0c0,0-0.1,0-0.2,0.1c-0.3,0.1-0.3,0.1-0.4,0.3
      c-0.1,0.1-0.1,0.1-0.2,0.2L23.7,58c-0.1,0.1-0.1,0.2-0.2,0.4c0,0.1-0.1,0.2-0.1,0.4c-0.1,0.1-0.1,0.2-0.2,0.2c0,0-0.1,0.1-0.1,0.1
      c-0.1,0.2-0.2,0.4-0.3,0.6c0,0.1-0.1,0.2-0.1,0.3c0,0.2-0.1,0.4-0.2,0.6c0,0.1,0,0.1,0,0.2c0,0.2,0,0.4-0.1,0.7c0,0.1,0,0.2,0,0.3
      v0.1c0,0.2,0,0.3,0,0.5c0,0.2,0,0.4,0,0.6c0,0.1,0,0.2,0,0.3c0,0.1,0,0.2,0.1,0.4c0.1,0.2,0.1,0.4,0.2,0.6c0,0,0,0.1,0,0.1
      c0.1,0.1,0.2,0.2,0.3,0.3c0.2,0.1,0.4,0.1,0.6,0.2c0.1,0,0.2,0,0.3,0c0.1,0,0.2,0,0.3,0c0.1,0,0.2,0,0.3-0.1
      c0.2,0,0.3-0.1,0.4-0.1c0.1,0,0.1,0,0.2-0.1c0.1,0,0.2-0.1,0.3-0.1c0.1,0,0.1,0,0.2-0.1c0.1-0.1,0.2-0.2,0.3-0.2
      c0.1,0,0.1-0.1,0.1-0.1c0.2-0.2,0.4-0.4,0.6-0.7c0.2-0.2,0.3-0.4,0.5-0.5l0.1-0.1c0.3-0.3,1.1,0.5,0.9,0.7l-0.3,0.3
      c-0.1,0.2-0.3,0.4-0.4,0.5l-0.3,0.3c-0.1,0.1-0.1,0.1-0.2,0.2c-0.2,0.1-0.3,0.2-0.5,0.3l-0.2,0.1c-0.1,0.1-0.2,0.1-0.4,0.2
      L25.7,65c0,0-0.1,0-0.2,0.1c-0.1,0-0.2,0.1-0.4,0.2c-0.2,0-0.3,0.1-0.4,0.2c-0.1,0-0.2,0.1-0.3,0.1l-0.4,0.1c-0.2,0-0.3,0.1-0.5,0
      L23,65.7z"/>
    <path id="XMLID_16_" class="st0" d="M30.5,65c-0.2-0.1-0.4-0.3-0.5-0.4c-0.1-0.1-0.2-0.2-0.3-0.4c-0.1-0.2-0.3-0.3-0.3-0.5
      c-0.1-0.2-0.2-0.5-0.4-0.7c-0.1-0.2-0.1-0.3-0.1-0.4c0-0.2-0.1-0.5-0.2-0.8c-0.1-0.2-0.1-0.4-0.1-0.6c0-0.3,0-0.5,0-0.8
      c0-0.2,0-0.3,0-0.4c0.1-0.3,0.1-0.6,0.1-0.9c0.1-0.3,0.2-0.6,0.2-0.9c0-0.2,0.1-0.4,0.1-0.7c0.1-0.2,0.1-0.4,0.1-0.6
      c0-0.2,0.1-0.4,0.2-0.6c0,0,0-0.1,0-0.2c0,0,0-0.1,0-0.1c0.2-0.1,0.2-0.3,0.3-0.5c0.1-0.2,0.2-0.4,0.4-0.6c0-0.1,0.1-0.1,0.2-0.1
      c0.1,0,0.2,0.1,0.3,0.2c0.1,0.1,0.3,0.1,0.4,0.2c0.2,0.1,0.3,0.2,0.4,0.3c0,0.1,0.1,0.1,0.2,0.2c0.1,0.1,0.2,0.2,0.2,0.4
      c0,0.2,0.1,0.4,0.1,0.6c0,0,0,0.1,0,0.1c0,0.1,0.1,0.2,0.1,0.2c0,0.3,0,0.6,0,0.9v0.1c0,0.1,0,0.2,0,0.4c0,0.1-0.1,0.3,0,0.5
      c0,0,0,0.1,0,0.1l-0.1,0.4c0,0.2,0,0.4-0.1,0.6c0,0.1,0,0.1,0,0.2c0,0.1,0,0.2,0,0.3c0,0.2,0,0.3,0,0.4c0,0.3,0,0.5,0,0.8
      c0,0.1,0.1,0.3,0.1,0.4c0,0.1,0.1,0.2,0.1,0.3c0,0.1,0.2,2,0.2,2.2C31.9,65.2,30.6,65.1,30.5,65z M30.2,53.2c-0.1,0-0.2,0-0.2-0.1
      c-0.1-0.1-0.2-0.2-0.2-0.3c-0.1-0.1-0.1-0.2-0.1-0.3l-0.1-0.2c0-0.1-0.1-0.2-0.1-0.4c0-0.2,0-0.4,0-0.5c0,0,0-0.1,0-0.1
      c0-0.2,0.1-0.2,0.2-0.3c0.2-0.1,0.3-0.2,0.4-0.2c0.1-0.1,0.1-0.1,0.2-0.1c0.1,0,0.3,0,0.5-0.1c0.2,0,0.3,0,0.5,0
      c0.1,0,0.2,0.1,0.3,0.2l0.5,0.4c0.1,0.1,0.2,0.2,0.2,0.4v0.3c0,0.1,0,0.2,0,0.4c0,0.1,0,0.2,0,0.2c0,0.1-0.1,0.1-0.2,0.2
      c0,0-0.1,0-0.1,0c-0.4,0.2-0.4,0.2-0.6,0.4c-0.1,0-0.2,0-0.2,0.1c-0.2,0.1-0.4,0.1-0.6,0.1C30.4,53.2,30.3,53.2,30.2,53.2z"/>
    <path id="XMLID_14_" class="st0" d="M42.4,65.4C42.3,65.4,42.3,65.4,42.4,65.4l-0.6-0.2c-0.1-0.1-0.2-0.1-0.3-0.2
      c0,0-0.1,0-0.1-0.1c-0.3-0.2-0.4-0.5-0.6-0.8l-0.1-0.2c0-0.1,0-0.1-0.1-0.2l-0.2-0.5c0-0.1,0-0.1-0.1-0.2C40.2,63,40.1,63,40,63
      l-0.2,0.2c-0.1,0.1-0.1,0.2-0.2,0.3c-0.1,0.4-0.4,0.7-0.6,0.9c0,0.1-0.1,0.1-0.2,0.2c-0.1,0-0.2,0.1-0.3,0.1
      c-0.2,0.1-0.5,0.1-0.7,0.2c-0.1,0-0.3,0-0.4,0c-0.1,0-0.3,0-0.4,0c-0.2,0-0.4,0-0.6,0l-0.3-0.1c-0.1,0-0.2-0.1-0.3-0.1
      c-0.1,0-0.2-0.1-0.3-0.1c-0.3-0.2-0.5-0.3-0.7-0.5c-0.1-0.1-0.2-0.1-0.2-0.2c-0.1-0.1-0.2-0.3-0.3-0.4l-0.2-0.4
      c-0.1-0.1-0.2-0.3-0.2-0.4c0-0.1-0.1-0.2-0.1-0.3L33.7,62c0,0,0-0.1,0-0.1l-0.1-0.5c0-0.1,0-0.1,0-0.2c0-0.3,0.1-0.7,0.1-1
      c0-0.1,0-0.1,0-0.2c0.1-0.2,0.1-0.4,0.2-0.6l0.1-0.2c0-0.1,0.1-0.1,0.1-0.2c0.2-0.5,0.2-0.5,0.4-0.9c0,0,0-0.1,0-0.1
      c0-0.2,0.1-0.4,0.2-0.6c0.1-0.1,0.2-0.3,0.2-0.4c0,0,0-0.1,0-0.1c0,0,0.1-0.1,0.1-0.2c0.1-0.1,0.2-0.3,0.4-0.5
      c0,0,0.1-0.1,0.1-0.1l0.5-0.5c0.2-0.2,0.4-0.4,0.7-0.6c0.2-0.1,0.3-0.2,0.5-0.3l0.2-0.1c0.1-0.1,0.3-0.1,0.4-0.2
      c0.1-0.1,0.3-0.1,0.4-0.2c0.1-0.1,0.3-0.1,0.4-0.1c0.1,0,0.2,0,0.3,0.1c0.1,0,0.2,0.1,0.3,0.1c0.2,0,0.3,0.1,0.4,0.2
      c0.2,0.1,0.4,0.2,0.5,0.3c0.1,0.1,0.1,0.1,0.2,0.2c0,0.1,0.1,0.3,0,0.4c0,0.1-0.1,0.1-0.1,0.2c-0.1,0.1-0.2,0.2-0.2,0.4
      c0,0-0.1,0.1-0.1,0.1c-0.1,0.1-0.3,0.2-0.4,0.3l-0.2,0.1c-0.2,0.1-0.2,0.1-0.3,0.2c0,0-0.1,0.1-0.1,0.2c0,0.1-0.1,0.1-0.2,0.2
      c-0.1,0.1-0.2,0.1-0.2,0.2c-0.1,0.1-0.1,0.1-0.2,0.2c-0.1,0.1-0.2,0.3-0.3,0.4l-0.1,0.2c-0.1,0.3-0.2,0.7-0.3,1
      c0,0.1-0.1,0.2-0.1,0.3c0,0.1-0.1,0.3-0.1,0.4c0,0.2,0,0.4,0,0.6v0.2c0,0.3,0,0.3,0,0.5c0,0.2-0.1,0.3-0.1,0.5c0,0.2,0,0.4,0,0.6
      v0.1c0,0.2,0,0.5,0,0.7c0,0.1,0,0.1,0,0.2c0,0.1,0,0.1,0.1,0.2c0,0.1,0.1,0.1,0.1,0.1l0.2-0.1c0.1,0,0.2-0.1,0.2-0.2
      c0.1-0.1,0.2-0.2,0.3-0.3c0.1-0.2,0.3-0.4,0.5-0.5l0.6-0.8c0.1-0.2,0.3-0.3,0.4-0.5l0.1-0.3c0.1-0.2,0.1-0.3,0.2-0.5
      c0-0.1,0-0.3,0.1-0.4c0-0.1,0-0.1,0-0.2c0-0.2,0-0.4,0.1-0.6l0.1-0.6c0-0.2,0.1-0.3,0.1-0.5c0-0.1,0.1-0.3,0.1-0.4
      c0-0.1,0-0.1,0-0.2l0.1-0.4c0,0,0-0.1,0.1-0.2c0.1-0.2,0.2-0.4,0.3-0.5c0-0.1,0.1-0.2,0.2-0.3c0.1-0.2,0.3-0.4,0.4-0.5
      c0.1-0.1,0.2-0.2,0.4-0.2h0.2c0.2,0,0.2,0.5,0.2,0.6c0,0.2,0,0.4,0,0.5v0.1c0,0.3-0.1,0.6-0.1,0.9c0,0,0,0.1,0,0.1
      c0,0.2-0.1,0.6-0.1,0.8c0,0.1,0,0.1,0,0.2c0,0.2,0,0.5,0.1,0.7c0,0.1,0,0.2,0,0.3c0,0.3,0.1,0.6,0,0.9c0,0.2,0,0.4,0,0.6
      c0,0,0,0.1,0,0.1c0,0,0,0.1,0,0.1c0,0.1,0,0.2,0,0.3c0,0.2,0,0.4,0,0.6V63c0,0.1,0,0.2,0,0.3c0,0.1,0.1,0.2,0,0.3
      C42.8,65.9,42.5,65.4,42.4,65.4z"/>
    <path id="XMLID_12_" class="st0" d="M60.7,66.4c-0.1,0-0.1,0-0.2,0c-0.1,0-0.2-0.1-0.4-0.1c-0.1,0-0.2-0.1-0.3-0.1
      c-0.1,0-0.2-0.1-0.4-0.2c-0.4-0.2-0.8-0.6-1.2-1c-0.1-0.1-0.2-0.2-0.2-0.3c-0.2-0.3-0.4-0.6-0.6-1c-0.1-0.2-0.2-0.4-0.3-0.6
      c0-0.1-0.1-0.3-0.2-0.4c-0.1-0.2-0.2-0.3-0.2-0.5c-0.1-0.1-0.1-0.3-0.2-0.4c0-0.1-0.1-0.3-0.2-0.4c-0.1-0.1-0.1-0.3-0.1-0.4
      l-0.1-0.3c0-0.1-0.1-0.3-0.1-0.5c0-0.1,0-0.2,0-0.3c0-0.3,0-0.6-0.1-0.8c0,0,0-0.1,0-0.2c0-0.1,0-0.3,0-0.4c0-0.1,0-0.2,0-0.3
      L56,57.4c0-0.1,0-0.3,0-0.5v-0.4c0-0.1,0-0.3,0-0.4c0-0.2,0-0.3,0-0.5c0-0.1,0-0.1,0-0.2c0-0.3,0.1-0.6,0.1-0.8l0.1-0.4
      c0-0.1,0.1-0.2,0.1-0.4c0-0.2,0-0.3,0.1-0.5c0-0.1,0.1-0.2,0.1-0.4c0.1-0.3,0.2-0.5,0.2-0.8l0.1-0.3c0-0.1,0-0.2,0.1-0.3
      c0-0.1,0.1-0.3,0.2-0.4l0.2-0.4c0.1-0.2,0.2-0.4,0.3-0.6c0-0.1,0.1-0.2,0.2-0.2l0.3-0.4c0-0.1,0.1-0.1,0.2-0.2l0.4-0.5
      c0.1-0.1,0.3-0.2,0.4-0.4c0.2-0.1,0.4-0.2,0.5-0.2c0.1,0,0.1,0,0.2,0c0.1,0,0.3,0.1,0.4,0.1c0.1,0,0.3,0.1,0.5,0.1
      c0,0,0.1,0,0.2,0c0.1,0,0.2,0,0.4,0c0.2,0,0.4,0,0.7,0c0.1,0,0.2,0,0.3,0c0.2,0,0.4,0.1,0.6,0.1c0.1,0,0.2,0,0.3,0.1l0.1,0.1
      c0.3,0.2,0.5,0.4,0.8,0.6l0.1,0.1c0.1,0.1,0.2,0.2,0.3,0.4c0,0.1,0.1,0.1,0.2,0.2c0,0.1,0.1,0.2,0.2,0.3l0.1,0.2
      c0.1,0.1,0.2,0.3,0.3,0.4c0.1,0.2,0.2,0.4,0.3,0.6c0,0.1,0.1,0.2,0.1,0.4c0,0.1,0,0.3,0,0.4c0,0.1,0,0.3,0,0.4v0.2
      c0,0.2,0,0.3-0.1,0.4c0,0.1-0.1,0.2-0.1,0.3c-0.1,0.1-0.2,0.2-0.4,0.3c-0.2,0.1-0.2,0.1-0.4,0.1l-0.1,0c-0.1,0-0.1,0-0.2,0
      c-0.2,0.1-0.4,0.2-0.6,0.2c-0.1,0-0.2,0-0.3,0c-0.1,0-0.1,0-0.2,0c-0.1,0-0.1-0.1-0.1-0.1c-0.1-0.1-0.1-0.2-0.1-0.4c0,0,0,0,0-0.1
      c0-0.1,0-0.2,0-0.3c0-0.1,0-0.2,0-0.4v-0.5c0-0.1,0-0.3-0.1-0.5L63,52c0-0.2-0.1-0.3-0.2-0.4l-0.2-0.3c0,0,0,0-0.1-0.1
      c0,0-0.1-0.1-0.2-0.1c-0.1,0-0.1,0-0.2,0l-0.2,0.1c-0.2,0.1-0.3,0.3-0.4,0.4c0,0.2-0.1,0.4-0.2,0.5c0,0.1-0.1,0.3-0.2,0.4
      c-0.1,0.2-0.2,0.5-0.3,0.7c0,0.1-0.1,0.2-0.1,0.4l-0.1,0.3c-0.1,0.1-0.1,0.3-0.1,0.4c0,0.1,0,0.1,0,0.2c-0.1,0.2-0.1,0.4-0.2,0.5
      l-0.1,0.2c0,0.1,0,0.1,0,0.2c0,0.2,0,0.3,0,0.5c0,0.1,0,0.3,0,0.4v0.6c0,0.1,0,0.2,0,0.3c0,0.1,0,0.2,0,0.3c0,0.1,0,0.1,0,0.2
      c0,0.2,0,0.3,0,0.5c0,0.1,0,0.3,0,0.4v0.1c0,0.3,0,0.6,0.1,0.8c0,0.2,0,0.4,0,0.6c0,0.2,0,0.4,0,0.6l0.1,0.8c0,0.1,0,0.2,0.1,0.3
      l0.1,0.2c0,0,0,0.1,0,0.2l0.1,0.4c0,0.1,0.1,0.2,0.1,0.4c0,0.1,0.1,0.2,0.1,0.4c0.1,0.3,0.2,0.5,0.4,0.8c0.1,0.2,0.2,0.3,0.3,0.5
      c0.1,0.1,0.2,0.2,0.3,0.3c0.2,0.1,0.2,0.1,0.3,0.2c0.1,0,0.2,0.1,0.3,0.1c0,0,0.1,0,0.2,0c0.1,0,0.3,0,0.4,0c0.1,0,0.1,0,0.2,0
      c0.2,0,0.4,0,0.7-0.1c0.1,0,0.1,0,0.2,0c0.4-0.1,0.8-0.4,1.2-0.6c0.2-0.1,0.3-0.3,0.5-0.5c0.1-0.1,0.2-0.3,0.3-0.5l0.2-0.3
      c0.2-0.4,0.4-0.9,0.7-1.3c0.3-0.2,0.7,0.8,0.4,1.2c-0.1,0.2-0.3,0.4-0.5,0.7c-0.1,0.2-0.3,0.4-0.4,0.5c-0.1,0.2-0.3,0.3-0.5,0.4
      l-0.1,0.1c-0.2,0.1-0.3,0.2-0.4,0.4c-0.1,0.1-0.2,0.2-0.3,0.2c-0.2,0.1-0.3,0.2-0.5,0.3c-0.1,0-0.2,0.1-0.3,0.1
      c-0.1,0-0.2,0.1-0.3,0.1l-0.2,0.1c0,0-0.1,0.1-0.2,0.1l-0.4,0.1c-0.1,0.1-0.3,0.1-0.4,0.1l-0.4,0.1c0,0-0.1,0-0.2,0
      c-0.3,0-0.6,0.1-0.8,0.1h-0.2L60.7,66.4z"/>
    <path id="XMLID_10_" class="st0" d="M75.7,65.5c-0.2-0.2-0.3-0.3-0.3-0.3c-0.1-0.1-0.2-0.3-0.3-0.4l-0.4-1.2
      c-0.1-0.1-0.1-0.3-0.2-0.5c-0.2-0.5-0.3-0.4-0.4-0.9c0-0.1,0-0.1-0.1-0.1c-0.1,0-0.1,0-0.2,0.1c0,0.1-0.7,0.8-0.8,1
      c0,0-0.1,0.1-0.2,0.2c-0.2,0.3-0.5,0.5-0.8,0.8c0,0,0,0-0.1,0.1c-0.1,0-0.2,0.1-0.3,0.2c-0.1,0.1-0.3,0.2-0.4,0.3
      c-0.1,0-0.1,0-0.2,0c-0.2,0-0.4,0.1-0.6,0.1c-0.1,0-0.2,0-0.3-0.1c-0.1,0-0.2-0.1-0.4-0.2c0,0-0.1-0.1-0.1-0.1
      c-0.1-0.1-0.2-0.2-0.4-0.3c-0.1,0-0.2-0.1-0.2-0.2c-0.1-0.1-0.3-0.3-0.4-0.4L68.5,63c-0.1-0.1-0.1-0.2-0.2-0.4c0,0,0-0.1-0.1-0.2
      c-0.1-0.2-0.1-0.5-0.2-0.7c0,0,0-0.1-0.1-0.2c0-0.2,0-0.4,0-0.5c0-0.2,0-0.4-0.1-0.7v-0.4c0-0.3,0-0.5,0-0.8c0-0.2,0-0.4,0.1-0.7
      c0.1-0.2,0.1-0.5,0.1-0.8c0-0.1,0-0.3,0.1-0.4v-0.2c0-0.1,0.1-0.2,0.1-0.3c0.1-0.2,0.2-0.5,0.3-0.7c0-0.1,0.1-0.2,0.1-0.3
      c0-0.1,0-0.2,0-0.3c0-0.1,0.1-0.2,0.1-0.3c0.1-0.1,0.1-0.3,0.2-0.4c0.1-0.1,0.2-0.2,0.3-0.3c0.1,0,0.2-0.1,0.3,0c0,0,0,0,0.1,0
      c0.1,0.1,0.2,0.1,0.4,0.2c0.1,0,0.3,0.1,0.3,0.2l0.2,0.2c0.1,0.1,0.2,0.2,0.3,0.3c0.1,0.1,0.1,0.1,0.2,0.3c0,0.1,0.1,0.2,0.1,0.3
      l0.1,0.2c0,0.2,0.1,0.4,0.1,0.6c0,0.1,0,0.3,0,0.4c0,0.2,0,0.3,0,0.4c0,0.2,0,0.4,0,0.5c0,0.1,0,0.1,0,0.2c0,0.1,0,0.3,0,0.4
      c0,0.2-0.1,0.4-0.1,0.5c0,0.2,0,0.5,0,0.8c0,0.1,0,0.3,0,0.4c0,0.1,0,0.1,0,0.3c0,0.1,0,0.1,0,0.2c0,0.2,0,0.3,0,0.4
      c0,0.2,0.1,0.4,0.1,0.5c0,0,0,0,0,0.1c0.1,0.2,0.1,0.3,0.2,0.5c0,0.1,0.1,0.3,0.2,0.4c0,0.1,0,0.1,0,0.1c0,0.1,0.1,0.1,0.2,0.1
      c0.1,0,0.1,0,0.2,0c0.1,0,0.1-0.1,0.2-0.2c0.2-0.2,0.4-0.4,0.5-0.7c0-0.1,0.1-0.1,0.1-0.2c0-0.1,0.1-0.2,0.2-0.3l0.1-0.2
      c0-0.1,0.1-0.2,0.1-0.3c0.1-0.2,0.2-0.4,0.3-0.6l0.3-0.5c0.1-0.1,0.1-0.3,0.2-0.4c0-0.1,0.1-0.2,0.1-0.3c0-0.1,0-0.2,0.1-0.3
      c0.1-0.3,0.1-0.6,0.1-0.8c0-0.1,0-0.2,0-0.3c0.1-0.2,0.1-0.4,0.1-0.5l0.1-0.5c0-0.3,0.1-0.6,0.1-0.9c0-0.1,0.1-0.2,0.1-0.3
      c0-0.3,0.1-0.6,0.2-0.9c0-0.1,0.1-0.2,0.1-0.3c0.3-0.1,0.5,0.2,0.6,0.4l0.2,0.3c0,0.1,0.1,0.2,0.1,0.3c0,0.2,0.1,0.4,0.2,0.6
      c0.1,0.1,0.1,0.3,0.1,0.4v0.2c0,0.1,0,0.2,0,0.3c0,0.1,0.1,0.2,0.1,0.3c0,0.2,0,0.5,0,0.8c0,0.1,0,0.3,0.1,0.4c0,0.2,0,0.2,0,0.4
      c0,0.2,0,0.4,0,0.5v0.3c0,0.1,0,0.2,0,0.3c0,0.2,0,0.4-0.1,0.7c0,0.1,0,0.3,0,0.4c0,0.2,0,0.4,0,0.6c0,0.2,0,0.4,0,0.5
      c0,0.1,0.4,2.1,0.4,2.4C76.7,65.6,75.9,65.7,75.7,65.5z"/>
    <path id="XMLID_8_" class="st0" d="M86.6,64.9c-0.1,0-0.5,0.1-0.6,0.2c0,0-0.6,0.2-1,0.2c-0.1,0-0.4,0-0.6,0c-0.3,0-0.7,0-0.9-0.2
      c-0.3-0.2-0.2-0.5,0.2-0.6c0.1,0,0.2,0,0.2-0.1c0.1,0,0.1-0.1,0.2-0.1c0.1-0.2,0.2-0.4,0.3-0.6c0-0.1,0.1-0.2,0.1-0.3
      c0-0.2,0.1-0.4,0.2-0.5l0.1-0.4c0.1-0.3,0.2-0.5,0.2-0.8c0-0.1,0.1-0.3,0.1-0.4c0.1-0.2,0.1-0.3,0.2-0.5c0-0.1,0-0.3,0.1-0.5
      c0,0,0-0.1,0-0.2c0-0.1,0-0.1,0-0.2c0-0.1,0-0.3,0-0.4c0-0.1,0-0.1,0-0.2c0-0.2,0-0.3,0-0.5c0-0.2-0.1-0.3-0.1-0.5
      c0-0.2,0-0.3-0.1-0.5c0-0.1,0-0.2-0.1-0.3c-0.1-0.3-0.2-0.6-0.4-0.9c0-0.1-0.1-0.2-0.1-0.3c0-0.1-0.1-0.1-0.1-0.1
      c-0.1,0-0.1,0-0.2,0c-0.1,0.1-0.2,0.1-0.2,0.2c-0.1,0.1-0.1,0.2-0.2,0.3c0,0.1-0.1,0.2-0.2,0.4c-0.1,0.2-0.2,0.4-0.3,0.6l-0.1,0.3
      l-0.1,0.2c-0.1,0.2-0.2,0.4-0.2,0.7c0,0.1,0,0.2-0.1,0.3c-0.1,0.2-0.1,0.4-0.2,0.6c0,0.1,0,0.1,0,0.2c0,0.2,0,0.4-0.1,0.6
      c0,0.1,0,0.3,0,0.4c0,0.1,0,0.1,0,0.2c-0.1,0.2-0.1,0.2,0,0.4c0,0.1,0,0.1,0,0.2c0,0.2-0.1,0.4-0.1,0.6c0,0.1,0,0.1,0,0.2
      c0,0.1,0,0.2-0.1,0.3c0,0.2-0.1,0.3-0.1,0.5c0,0.1,0,0.3,0,0.4c0,0,0,0.1,0,0.2c0,0.1-0.1,0.3-0.1,0.4c0,0.2-0.1,0.4-0.3,0.6
      c0,0-0.1,0.1-0.2,0.1c-0.1,0-0.3,0-0.4,0.1c0,0-0.1,0-0.2,0.1c0,0-0.1,0-0.1,0L80.7,65L80.5,65c0,0-0.1,0.1-0.2,0.1
      c-0.2,0-0.3,0.1-0.5,0.1c-0.1,0-0.2,0-0.3,0l-0.4-0.1c-0.1,0-0.2-0.1-0.3-0.2c-0.1-0.1-0.2-0.3-0.3-0.4c0,0-0.1-0.2-0.1-0.3
      c0-0.1,0-0.1,0-0.2l-0.1-0.6c0-0.1,0-0.2-0.1-0.3c0-0.2,0-0.4,0-0.6c0-0.3,0-0.5,0-0.8l-0.1-0.6v-0.5v-0.3c0-0.1,0-0.3,0-0.4
      c0-0.2,0-0.3,0-0.5c0-0.3,0-0.6,0-0.9c0-0.5,0-1.1,0.1-1.6c0-0.1,0-0.2,0-0.3c0-0.2,0.1-0.5,0.1-0.7c0-0.2,0-0.5,0-0.7l0.1-1
      c0-0.2,0-0.3,0.1-0.5c0-0.1,0-0.2,0-0.3c0-0.2,0-0.4,0-0.5l0.1-0.3c0-0.1,0-0.2,0-0.3c0-0.2,0.1-0.4,0.1-0.6c0-0.1,0-0.2,0.1-0.3
      c0-0.1,0.1-0.3,0.1-0.4c0-0.1,0-0.2,0.1-0.3l0.1-0.5c0-0.2,0.1-0.4,0.1-0.6l0.1-0.6l0.1-0.3c0-0.2,0-0.3,0.1-0.5
      c0-0.1,0.1-0.3,0.1-0.4c0-0.2,0.1-0.3,0.2-0.4c0-0.1,0.1-0.1,0.1-0.2c0,0,0.2-0.1,0.3-0.1c0.3,0,0.5,0,0.8,0c0,0,0.1,0,0.1,0
      c0.2,0.1,0.3,0.2,0.2,0.4c0,0,0,0.1,0,0.2c0,0.1,0,0.2,0,0.3c0,0.1,0,0.3,0.1,0.4c0.1,0.3,0.1,0.7,0.1,1v0.2c0,0.1,0,0.1,0,0.2
      c0,0.2,0,0.5,0,0.7v0.2c0,0.3,0,0.5,0,0.8c0,0.3,0,0.6,0.1,0.9c0,0,0,0.1,0,0.2c0,0.2,0,0.2,0,0.4c0,0.2,0.1,0.5,0,0.7v0.1
      c0,0.3,0.1,0.5,0.1,0.8l0.1,0.3c0,0.1,0,0.2,0,0.3c0,0.3,0,0.4,0,0.5c0,0.1,0,0.1,0,0.2c0,0.1,0,0.2,0,0.2c0,0.1,0,0.2,0,0.4
      c0,0.1,0,0.2,0,0.3c0,0.1,0.1,0.1,0.2,0.1l0.1-0.1c0.1-0.2,0.2-0.4,0.3-0.5l0.1-0.2l0.3-0.3c0.2-0.2,0.3-0.4,0.5-0.5
      c0.1-0.1,0.2-0.1,0.3-0.2l0.1,0l0.4-0.1c0.1,0,0.2,0,0.3,0c0.3,0.1,0.3,0.1,0.6,0.1c0.1,0,0.2,0,0.3,0.1c0.2,0.1,0.3,0.2,0.4,0.3
      c0.2,0.1,0.3,0.1,0.4,0.2c0.2,0.1,0.4,0.2,0.5,0.3l0.1,0.1c0.1,0.1,0.2,0.3,0.3,0.4c0.1,0.1,0.2,0.3,0.3,0.4
      c0.1,0.1,0.1,0.3,0.2,0.4l0.1,0.1c0,0.1,0.1,0.3,0.2,0.4c0,0.1,0,0.1,0,0.2c0,0.1,0.1,0.3,0.1,0.4c0,0.1,0.1,0.2,0.1,0.3
      c0,0.1,0,0.2,0,0.3l0.1,0.3l0.1,0.2c0,0.2,0.1,0.4,0.2,0.7c0,0.1,0,0.2,0,0.3c0,0,0,0.1,0,0.1C88.3,60.7,87.9,64.7,86.6,64.9z"/>
    <path id="XMLID_5_" class="st0" d="M93.9,65.7c-0.1,0-0.1,0-0.2,0c-0.1,0-0.2,0-0.3,0c-0.4-0.1-0.4-0.1-0.7-0.1
      c-0.1,0-0.2,0-0.3-0.1l-0.3-0.1c-0.1,0-0.1,0-0.2-0.1l-0.3-0.1c-0.1-0.1-0.2-0.2-0.4-0.2c0,0,0,0-0.1,0l-0.5-0.5
      c-0.1-0.1-0.2-0.2-0.3-0.3c-0.1-0.1-0.1-0.3-0.2-0.4c-0.1-0.2-0.3-0.4-0.4-0.6c0,0,0-0.1,0-0.2c0-0.2-0.1-0.3-0.1-0.5
      c0,0,0-0.1,0-0.2c0-0.3,0-0.5,0-0.8c0-0.2,0-0.3,0-0.5c0-0.2,0-0.4,0-0.6v-0.3c0-0.1,0-0.2,0-0.3c0-0.2,0-0.4,0.1-0.6
      c0.1-0.3,0.2-0.5,0.3-0.8c0-0.1,0-0.1,0.1-0.2l0.2-0.4c0.1-0.2,0.2-0.3,0.2-0.4c0.2-0.3,0.4-0.6,0.6-0.8c0,0,0.1-0.1,0.1-0.2
      c0.1-0.1,0.2-0.2,0.3-0.3c0,0,0.1-0.1,0.1-0.1c0.2-0.2,0.4-0.3,0.5-0.5c0.1-0.1,0.3-0.2,0.4-0.3c0.1-0.1,0.3-0.2,0.4-0.3
      c0.2-0.1,0.4-0.1,0.5-0.2c0.2-0.1,0.4-0.2,0.7-0.2c0.2,0,0.3-0.1,0.5-0.1c0.1,0,0.3,0,0.4,0.1c0.1,0.1,0.2,0.1,0.3,0.2l0.2,0.2
      c0.1,0.1,0.2,0.1,0.3,0.2c0.1,0,0.2,0.1,0.3,0.1c0.3,0.1,0.5,0.3,0.7,0.5l0.1,0.1c0.1,0.1,0.1,0.1,0.2,0.2c0,0.1,0.1,0.1,0.1,0.2
      c0,0.1,0.1,0.2,0.1,0.3c0,0.2,0,0.4,0.1,0.6v0.3c0,0.1,0,0.2,0,0.3v0.1c0,0,0,0.1,0,0.1c0,0.1-0.1,0.2-0.2,0.4c0,0,0,0,0,0.1
      L97,58.3c-0.1,0-0.1,0.1-0.2,0.1c-0.1,0-0.2,0.1-0.2,0.2c0,0.1-0.1,0.2-0.2,0.4c0,0.1-0.1,0.1-0.1,0.2l-0.2,0.2
      c-0.1,0.1-0.1,0.2-0.2,0.2c-0.1,0.1-0.2,0.2-0.3,0.2c-0.4,0.1-0.3,0.1-0.5,0.3c0,0-0.1,0.1-0.2,0.1c-0.1,0.1-0.2,0.1-0.4,0.2
      c-0.1,0-0.1,0-0.2,0.1c-0.2,0.2-0.4,0.3-0.5,0.5c-0.2,0.1-0.3,0.2-0.5,0.3c-0.1,0-0.1,0.1-0.1,0.2c0,0,0,0.1,0,0.2
      c0,0.1,0,0.3,0,0.4v0.1c0.1,0.2,0.1,0.4,0.1,0.6c0,0.2,0.1,0.3,0.1,0.5c0,0.1,0,0.1,0,0.2c0,0.1,0.1,0.2,0.1,0.3
      c0,0.2,0.1,0.4,0.2,0.6c0,0.1,0.1,0.2,0.2,0.2l0.1,0.1c0.1,0.1,0.2,0.1,0.4,0.1c0.1,0,0.3,0,0.5-0.1c0.1,0,0.3-0.2,0.4-0.2
      c0.1,0,0.1,0,0.2-0.1c0.1,0,0.2-0.1,0.3-0.1c0.1,0,0.1,0,0.2-0.1c0.1-0.1,0.2-0.2,0.3-0.2c0.1,0,0.1-0.1,0.1-0.1
      c0.2-0.2,0.4-0.3,0.6-0.5c0.2-0.2,0.3-0.4,0.5-0.5l0.1-0.1c0.1-0.1,0.2-0.3,0.3-0.4c0.1-0.1,0.2-0.2,0.3-0.4c0,0,0.1-0.1,0.2-0.2
      c0.1-0.2,0.4-0.3,0.5-0.5c0.1-0.1,0.1-0.2,0.2-0.3c0.1-0.1,0.1-0.3,0.3-0.3c0.1,0,0.1-0.1,0.2,0c0.1,0,0.2,0,0.2,0.1
      c0.1,0.1,0.2,0.2,0.1,0.5c0,0.2-0.1,0.5-0.3,0.7c-0.1,0.1-0.2,0.2-0.2,0.3c0,0,0,0-0.1,0.1c-0.1,0.1-0.1,0.2-0.2,0.3l-0.1,0.1
      c0,0,0,0-0.1,0.1c-0.2,0.1-0.3,0.3-0.5,0.5l-0.3,0.3c-0.1,0.2-0.3,0.4-0.4,0.5l-0.3,0.3c-0.1,0.1-0.1,0.1-0.2,0.2
      c-0.2,0.1-0.3,0.2-0.5,0.3l-0.2,0.1c-0.1,0.1-0.2,0.1-0.4,0.2L96.1,65c0,0-0.1,0-0.2,0.1c-0.1,0-0.2,0.1-0.4,0.2
      c-0.2,0-0.3,0.1-0.4,0.2c-0.1,0-0.2,0.1-0.3,0.1c-0.1,0-0.4,0.1-0.5,0.1C94.2,65.7,94.1,65.7,93.9,65.7z M94,59.8l0.4-0.4
      c0.3-0.2,0.4-0.4,0.7-0.6l0.1-0.1c0.1-0.1,0.2-0.3,0.3-0.4c0-0.1,0.1-0.2,0.1-0.3c0-0.1,0.1-0.2,0.1-0.3c0-0.1,0.1-0.2,0.1-0.3
      c0-0.1,0.1-0.3,0.1-0.4c0-0.2,0-0.3-0.1-0.5l-0.1-0.2c0,0,0,0,0-0.1l-0.1-0.1c-0.1,0-0.1,0-0.2,0c-0.2,0.1-0.4,0.2-0.6,0.3
      c0,0-0.1,0.1-0.1,0.1c-0.1,0.1-0.2,0.1-0.2,0.2l0,0.1c0,0.1,0,0.2,0,0.3l-0.1,0.2c-0.1,0.2-0.3,0.4-0.4,0.6
      c-0.1,0.1-0.1,0.2-0.2,0.4l-0.1,0.4c0,0.1,0,0.2-0.1,0.3l-0.2,0.4c0,0,0,0.1,0,0.1c0,0.1,0,0.3,0,0.4c0,0.1,0.2,0.2,0.3,0.1
      C93.7,60.1,93.8,59.9,94,59.8z"/>
    <path id="XMLID_3_" class="st0" d="M45.4,52.7c0-0.5,0-1,0-1.6c0-0.8,0-1.5,0-2.3v-0.7c0-0.1,0-0.2,0-0.3c0-0.2,0.1-0.4,0.3-0.6
      c0-0.1,0.2-0.2,0.3-0.2c0.1,0,0.3,0,0.3,0.1l0.4,0.2c0.1,0.1,0.4,0.3,0.5,0.4c0.3,0.2,0.5,0.4,0.7,0.7c0.1,0.2,0.3,0.5,0.4,0.8
      c0.1,0.2,0.1,0.3,0.1,0.5c0,0.1,0,0.3,0,0.4c0,0.3,0,0.7,0,1c0,0.2,0,0.5,0,0.7l0.1,0.4c0,0.4,0.1,1.4,0.1,1.9c0,0.3,0,0.5,0,0.8
      c0,0.4,0.1,0.8,0,1.3c0,0.4,0,0.8,0,1.3c0,0.2,0,0.4,0,0.6c0,0.3,0,0.5,0,0.8c0,0.2,0,0.4-0.1,0.6c0,0.6,0,1.2,0,1.7v2
      c0,0.1,0,0.2,0,0.3c0,0.2,0,0.4-0.1,0.6c0,0.2-0.1,0.3-0.2,0.4c-0.1,0.2-0.3,0.4-0.4,0.6c-0.2,0.1-0.3,0.1-0.4,0.1s-0.2,0-0.4,0
      c-0.1,0-0.2-0.1-0.3-0.1c-0.2-0.1-0.4-0.3-0.5-0.4c-0.2-0.2-0.3-0.4-0.5-0.6c-0.1-0.2-0.1-0.3-0.2-0.4c-0.1-0.2-0.1-0.4-0.2-0.6
      c0-0.2-0.1-0.4-0.1-0.6v-0.3c0-0.9,0-1.9-0.1-2.9c0-0.4,0-0.8,0-1.3c0-1.2,0.1-2.4,0-3.6c0-0.3,0-0.6,0-1
      C45.3,53.2,45.4,52.9,45.4,52.7z"/>
  </g>
</g>
</svg>
