<svg version="1.1" id="Layer_1" xmlns="http://www.w3.org/2000/svg" xmlns:xlink="http://www.w3.org/1999/xlink" x="0px" y="0px"
   viewBox="0 0 277 58" enable-background="new 0 0 277 58" xml:space="preserve">
<path fill="none" d="z"/>
<g id="Layer_x25_201">
  <path fill="#B0B0B0" d="M208.9,49.7c0,0.4,0.1,0.8,0.3,1.3c0.6,1.5,1.7,2.6,3.4,3.2c1.7,0.6,4.2,1,7.7,1H233
    c7.6,0,11.3-1.8,11.3-5.5V35.2c0-3.6-3.8-5.4-11.3-5.4h-12.8c-6.3,0-10,1.4-11.1,4.1c-0.2,0.5-0.3,0.9-0.3,1.4L208.9,49.7z
     M223.3,35.2h6.7c2.4,0,3.6,0.6,3.6,1.8v11.2c0,1-1.2,1.6-3.6,1.6h-6.7c-2.4,0-3.6-0.6-3.6-1.8L219.7,37
    C219.7,35.8,220.9,35.2,223.3,35.2z M176.7,55.2h16.9c7.2,0,10.8-1.9,10.8-5.7v-2.5c0-2.4-1.5-3.9-4.5-4.5c2.9-0.8,4.4-2.4,4.4-4.9
    v-2c0-1.4-0.2-2.4-0.6-3c-1.3-1.8-4.4-2.8-9.5-2.8h-18.2L160,42.2L176.7,55.2z M190.6,45.1c1.8,0.1,2.7,0.6,2.7,1.5v1.6
    c0,0.9-0.8,1.3-2.5,1.4h-12v-4.5H190.6z M190.9,35.2c0.4,0,0.8,0.1,1.3,0.2c0.8,0.3,1.2,0.7,1.2,1.2v1.7c0,0.8-0.9,1.3-2.6,1.3
    h-12.1v-4.4H190.9z M265.2,35.2H276v-5.5h-33.9c0,0,4.5,0.4,4.4,4.8v0.7l7.7,0v20h10.9V35.2z"/>
  <path fill="#006FE0" d="M103,55.2l3.4-5.5h15.4l3.4,5.5h13.5l9.2-7.8l9.9,7.8h12.9l-16.6-13L170,29.7h-12.9l-9,7.2l-8.4-7.2h-12.9
    l15.8,12.4l-9.4,7.4l-10.4-16.4c-1.4-2.2-4.2-3.4-8.5-3.4c-4.3,0-7.2,1.1-8.6,3.4l-14,22.1H103z M113.5,36.3l5.1,8.3h-8.9
    L113.5,36.3z M77.9,35.2v20h11v-20l12.6,0c3.1-5,4.8-5.5,4.8-5.5H66.9v5.5H77.9z"/>
  <path fill="#CCCCCC" d="M31.8,18.4l8.8-7.9l-0.3,3.2l7.2-2.9l-8.3,7.6l0.3-3.6L31.8,18.4z"/>
  <path fill="#CCCCCC" d="M28.7,12.4l-1.3-7.5l1.7,1.2L30,1l1.3,7.3l-1.9-1.4L28.7,12.4z"/>
  <path fill="#006CE3" d="M2,51.3c-0.2,1,0.2,2,0.8,2.8c8,1.2,16.7,1.9,25.7,1.9c9,0,17.3-0.7,25.4-2l0.2,0.1c0.7-0.8,1-1.9,0.8-2.9
    c-0.2-1.2-0.5-2.4-0.9-3.6l1.3-1c0.6-0.3,0.7-1.1,0.4-1.7l-4.2-7.1c-0.3-0.6-1.1-0.8-1.6-0.4l-1.2,0.5c-4.4-5.1-10.7-8.5-17.7-9.1
    l0-0.2c0-0.4-0.6-0.8-0.9-1c0-0.6-0.4-1.1-1-1.3v-5.8c0.6-0.2,1-0.7,1-1.4c0-0.8-0.4-1.4-1.1-1.4c-0.8,0-1.9,0.6-1.9,1.4
    c0,0.6,0.4,1.2,1,1.4v5.8c-0.6,0.2-1,0.7-1,1.3c-0.4,0.2-0.1,0.6-0.1,1v0.2c-7.4,0.4-14,3.9-18.6,9.2L7,37.5
    c-0.6-0.3-1.3-0.1-1.6,0.4L1.2,45c-0.3,0.6-0.2,1.3,0.4,1.7l1.3,1C2.5,48.9,2.2,50.1,2,51.3z"/>
  <path fill="#CCCCCC" d="M25.7,18.4l-8.8-7.9l0.3,3.2L10,10.8l8.3,7.6L18,14.8L25.7,18.4z"/>
  <path fill="#FFFFFF" d="M48.8,49.1L48.8,49.1c-1.1-6-5.4-11.1-11.3-13.7c-1.3-0.6-2.9,0.4-3.1,1.9c-0.2,1-1.5,2-2.7,2h-6.5
    c-1.2,0-2.6-1.2-2.8-2.4c0-1.2-1.8-2-3-1.4C13.4,38,9.1,43,8,49.1l0,0.1c3.6,2,6.4,2.6,20.3,2.6C42.3,51.7,46,51.2,48.8,49.1z"/>
  <path fill="#0068E6" d="M20,39.9c-0.2-0.1-0.6-0.1-0.9-0.1c-0.7,0.1-1.3,0.4-1.7,0.9c0,0-0.1,0-0.1,0c-0.3-0.1-0.7,0-0.8,0.4
    c-0.1,0.3,0.1,0.7,0.4,0.8c0.3,0.1,0.7-0.1,0.8-0.4c0-0.1,0-0.2,0-0.3c0,0,0.1-0.1,0.1-0.1c0.3-0.5,0.8-0.8,1.4-0.8
    c0.2,0,0.5,0,0.7,0C19.8,40.4,20.1,40,20,39.9z"/>
  <path fill="#0068E6" d="M36.7,39.9c-0.2,0.1,0.1,0.5,0.1,0.5c0.2,0,0.5-0.1,0.7,0c0.6,0.1,1.1,0.4,1.4,0.8c0,0,0.1,0.1,0.1,0.1
    c0,0.1,0,0.2,0,0.3c0.1,0.3,0.5,0.5,0.8,0.4c0.3-0.1,0.5-0.5,0.4-0.8c-0.1-0.3-0.5-0.5-0.8-0.4c0,0-0.1,0-0.1,0
    c-0.4-0.5-1-0.9-1.7-0.9C37.3,39.7,36.8,39.8,36.7,39.9z"/>
  <path fill="#999999" d="M43.8,39.6c-1.8-1.9-4.1-3.4-6.6-4.5c-1.3-0.6-2.9,0.4-3.1,1.9c-0.2,1-1.5,2-2.7,2h-6.5
    c-0.6,0-1.2-0.4-1.7-0.9c0.6,0.6,1.3,1.2,2.1,1.2h6.5c1.2,0,2.6-1,2.7-2c0.2-1.4,1.8-2.4,3.1-1.9C39.9,36.5,42,37.9,43.8,39.6z"/>
  <path fill="#797979" d="M18.8,44.8c0-1.3,1-2.4,2.3-2.4c0.2,0,0.4,0,0.5,0.1c-0.6,0.2-1,0.7-1,1.4c0,0.8,0.6,1.4,1.4,1.4
    c0.6,0,1.2-0.4,1.3-1c0,0.2,0.1,0.4,0.1,0.5c0,1.3-1,2.4-2.3,2.4S18.8,46.1,18.8,44.8z M17.9,44.8c0,1.8,1.5,3.3,3.3,3.3
    c1.8,0,3.3-1.5,3.3-3.3c0-1.8-1.5-3.3-3.3-3.3C19.3,41.5,17.9,42.9,17.9,44.8z"/>
  <path fill="#797979" d="M33.8,44.8c0-1.3,1-2.4,2.3-2.4c0.2,0,0.4,0,0.5,0.1c-0.6,0.2-1,0.7-1,1.4c0,0.8,0.6,1.4,1.4,1.4
    c0.6,0,1.2-0.4,1.3-1c0,0.2,0.1,0.4,0.1,0.5c0,1.3-1,2.4-2.3,2.4S33.8,46.1,33.8,44.8z M32.9,44.8c0,1.8,1.5,3.3,3.3,3.3
    c1.8,0,3.3-1.5,3.3-3.3c0-1.8-1.5-3.3-3.3-3.3C34.3,41.5,32.9,42.9,32.9,44.8z"/>
</g>
<path fill="none" d="z"/>
</svg>
